STARTFONT 2.1
COMMENT
COMMENT Converted from OpenType font "TimesNewRomanPS-ItalicMT.otf" by "otf2bdf 3.0".
COMMENT
FONT -FreeType-Times New Roman-Medium-I-Normal--42-300-100-100-P-214-ISO10646-1
SIZE 30 100 100
FONTBOUNDINGBOX 68 56 -21 -13
STARTPROPERTIES 19
FOUNDRY "FreeType"
FAMILY_NAME "Times New Roman"
WEIGHT_NAME "Medium"
SLANT "I"
SETWIDTH_NAME "Normal"
ADD_STYLE_NAME ""
PIXEL_SIZE 42
POINT_SIZE 300
RESOLUTION_X 100
RESOLUTION_Y 100
SPACING "P"
AVERAGE_WIDTH 214
CHARSET_REGISTRY "ISO10646"
CHARSET_ENCODING "1"
FONT_ASCENT 37
FONT_DESCENT 9
COPYRIGHT "© 2006 The Monotype Corporation. All Rights Reserved."
_OTF_FONTFILE "TimesNewRomanPS-ItalicMT.otf"
_OTF_PSNAME "TimesNewRomanPS-ItalicMT"
ENDPROPERTIES
CHARS 943
STARTCHAR 0020
ENCODING 32
SWIDTH 240 0
DWIDTH 10 0
BBX 0 0 0 0
BITMAP
ENDCHAR
STARTCHAR 0021
ENCODING 33
SWIDTH 336 0
DWIDTH 14 0
BBX 10 29 3 -1
BITMAP
01C0
01C0
01C0
03C0
03C0
0380
0380
0380
0700
0700
0600
0600
0600
0400
0C00
0800
0800
0800
1000
1000
1000
0000
0000
0000
0000
F000
F000
F000
6000
ENDCHAR
STARTCHAR 0022
ENCODING 34
SWIDTH 432 0
DWIDTH 18 0
BBX 13 12 6 16
BITMAP
3838
7878
7878
78F0
70F0
70E0
60E0
E0C0
C0C0
C080
8080
8100
ENDCHAR
STARTCHAR 0023
ENCODING 35
SWIDTH 504 0
DWIDTH 21 0
BBX 19 29 3 -1
BITMAP
0180C0
018080
018080
010180
030180
030180
030100
030300
020300
FFFFE0
FFFFE0
060200
060600
040600
0C0600
0C0600
0C0400
0C0C00
FFFFE0
180C00
180C00
180800
181800
101800
301800
301800
301000
203000
203000
ENDCHAR
STARTCHAR 0024
ENCODING 36
SWIDTH 504 0
DWIDTH 21 0
BBX 18 32 2 -3
BITMAP
000600
003C00
01E780
030DC0
0708C0
0E08C0
0E08C0
0E1880
0E1080
0F1000
0FB000
07E000
03E000
03F000
01F800
007C00
007E00
00DF00
008F00
008700
018700
410700
410300
410700
C30600
C20600
E20C00
F63800
3FE000
040000
040000
0C0000
ENDCHAR
STARTCHAR 0025
ENCODING 37
SWIDTH 840 0
DWIDTH 35 0
BBX 31 29 3 -1
BITMAP
07C0000E
0C300018
18300030
38380060
703800C0
70380180
F0380300
E0780600
E0700C00
E0701800
E0E03000
60E06000
61C0C000
33018000
0C030060
00060198
000C030C
0018060E
00300E0E
00601C0E
00C01C0E
01801C0E
0300381E
0200381C
0400381C
08001838
10001830
20000860
C00007C0
ENDCHAR
STARTCHAR 0026
ENCODING 38
SWIDTH 768 0
DWIDTH 32 0
BBX 29 29 2 -1
BITMAP
0001F800
00031C00
00060E00
000E0E00
000C0E00
000C0E00
001C0C00
001C1C00
001C3800
001EE000
001F8000
001E0000
00FE0000
03CF0000
0F0F0FF0
1E0F0380
3C0F0300
78078600
78078400
F007CC00
F003D800
F003F000
F001F000
F801F000
F800F000
7C037808
3F9E7E30
1FF81FE0
01800700
ENDCHAR
STARTCHAR 0027
ENCODING 39
SWIDTH 216 0
DWIDTH 9 0
BBX 6 12 5 16
BITMAP
1C
3C
3C
78
78
70
70
60
60
40
40
80
ENDCHAR
STARTCHAR 0028
ENCODING 40
SWIDTH 336 0
DWIDTH 14 0
BBX 15 38 3 -9
BITMAP
0002
0004
0008
0010
0020
00C0
01C0
0180
0300
0700
0E00
0E00
1C00
3C00
3800
7800
7800
7000
7000
F000
F000
E000
E000
E000
E000
E000
E000
E000
E000
6000
6000
6000
2000
2000
3000
1000
1000
0800
ENDCHAR
STARTCHAR 0029
ENCODING 41
SWIDTH 336 0
DWIDTH 14 0
BBX 14 37 -3 -9
BITMAP
0040
0020
0020
0030
0010
0010
0018
0018
0018
001C
001C
001C
001C
001C
001C
001C
001C
003C
003C
0038
0038
0078
0070
0070
00F0
00E0
01C0
01C0
0380
0300
0600
0C00
0800
1000
2000
4000
8000
ENDCHAR
STARTCHAR 002A
ENCODING 42
SWIDTH 504 0
DWIDTH 21 0
BBX 15 17 6 12
BITMAP
0300
0380
0380
0380
F39E
F93E
797C
1FF0
0300
1FF0
797C
F13E
E39E
0380
0380
0380
0300
ENDCHAR
STARTCHAR 002B
ENCODING 43
SWIDTH 672 0
DWIDTH 28 0
BBX 22 22 4 3
BITMAP
003000
003000
003000
003000
003000
003000
003000
003000
003000
003000
FFFFFC
FFFFFC
003000
003000
003000
003000
003000
003000
003000
003000
003000
003000
ENDCHAR
STARTCHAR 002C
ENCODING 44
SWIDTH 240 0
DWIDTH 10 0
BBX 6 9 0 -5
BITMAP
10
38
7C
38
18
18
30
60
C0
ENDCHAR
STARTCHAR 002D
ENCODING 45
SWIDTH 336 0
DWIDTH 14 0
BBX 11 2 1 8
BITMAP
7FE0
FFE0
ENDCHAR
STARTCHAR 002E
ENCODING 46
SWIDTH 240 0
DWIDTH 10 0
BBX 5 4 1 0
BITMAP
20
70
F8
70
ENDCHAR
STARTCHAR 002F
ENCODING 47
SWIDTH 288 0
DWIDTH 12 0
BBX 17 30 -1 -1
BITMAP
000180
000300
000300
000600
000600
000C00
000C00
001800
001000
003000
002000
006000
004000
00C000
008000
018000
010000
030000
060000
060000
0C0000
0C0000
180000
180000
300000
300000
600000
600000
C00000
800000
ENDCHAR
STARTCHAR 0030
ENCODING 48
SWIDTH 504 0
DWIDTH 21 0
BBX 19 28 2 0
BITMAP
003E00
00E300
018180
0381C0
0701C0
0701C0
0E01C0
1E01E0
1C01E0
3C01E0
3C01E0
3C01C0
7801C0
7803C0
7803C0
7803C0
700380
700780
700780
F00700
700F00
700E00
700E00
701C00
701800
303800
307000
1FC000
ENDCHAR
STARTCHAR 0031
ENCODING 49
SWIDTH 504 0
DWIDTH 21 0
BBX 14 28 3 0
BITMAP
001C
01FC
007C
0038
0038
0038
0070
0070
0070
00F0
00E0
00E0
00E0
01C0
01C0
01C0
03C0
0380
0380
0380
0700
0700
0700
0F00
0E00
0E00
1F00
FFC0
ENDCHAR
STARTCHAR 0032
ENCODING 50
SWIDTH 504 0
DWIDTH 21 0
BBX 19 28 1 0
BITMAP
007E00
00FF80
01FFC0
0307C0
0603C0
0401E0
0001E0
0001C0
0001C0
0001C0
000180
000380
000300
000600
000C00
000C00
001800
003000
006000
00C000
018000
030000
040000
080200
100600
3FFC00
7FFC00
FFFC00
ENDCHAR
STARTCHAR 0033
ENCODING 51
SWIDTH 504 0
DWIDTH 21 0
BBX 18 28 1 0
BITMAP
003E00
00FF80
018780
0103C0
0203C0
0003C0
0003C0
000380
000380
000600
001C00
007000
07F800
00FC00
003E00
001F00
000F00
000F00
000F00
000F00
000F00
000E00
000E00
000C00
201C00
781800
FF6000
7FC000
ENDCHAR
STARTCHAR 0034
ENCODING 52
SWIDTH 504 0
DWIDTH 21 0
BBX 19 28 1 0
BITMAP
000020
000060
0000E0
0001C0
0003C0
0007C0
000DC0
001B80
003380
006380
00C700
018700
030700
030600
060E00
0C0E00
180E00
301C00
601C00
7FFF80
FFFF80
003800
003800
003800
007000
007000
007000
00E000
ENDCHAR
STARTCHAR 0035
ENCODING 53
SWIDTH 504 0
DWIDTH 21 0
BBX 18 28 2 0
BITMAP
007FC0
00FFC0
00FF80
01FF80
010000
030000
030000
038000
07E000
07F800
07FC00
007C00
003E00
001E00
000E00
000E00
000E00
000E00
000E00
000E00
000C00
000C00
001800
001800
C03000
F06000
FFC000
FF0000
ENDCHAR
STARTCHAR 0036
ENCODING 54
SWIDTH 504 0
DWIDTH 21 0
BBX 19 28 3 0
BITMAP
0001E0
000F00
001C00
007800
00F000
01E000
03C000
078000
0F0000
1E0000
1FF800
3E3C00
781E00
780F00
780F00
F00F00
F00700
E00F00
E00F00
E00F00
E00F00
E00E00
E01E00
E01C00
E03C00
603800
307000
1DC000
ENDCHAR
STARTCHAR 0037
ENCODING 55
SWIDTH 504 0
DWIDTH 21 0
BBX 17 28 5 0
BITMAP
1FFF80
1FFF80
3FFF00
7FFE00
400600
800C00
000C00
001800
001800
003000
007000
006000
00C000
00C000
018000
018000
030000
070000
060000
0C0000
0C0000
180000
180000
300000
300000
600000
C00000
C00000
ENDCHAR
STARTCHAR 0038
ENCODING 56
SWIDTH 504 0
DWIDTH 21 0
BBX 18 28 2 0
BITMAP
007E00
018300
030180
0700C0
0700C0
0700C0
0700C0
0700C0
0781C0
07C380
03C300
01EC00
01F000
01F800
067C00
1C3C00
381E00
701E00
600F00
E00F00
E00700
C00700
C00700
C00600
E00E00
600C00
301800
1FE000
ENDCHAR
STARTCHAR 0039
ENCODING 57
SWIDTH 504 0
DWIDTH 21 0
BBX 18 28 2 0
BITMAP
007E00
01C300
038180
070180
0E01C0
1E00C0
1E00C0
1C01C0
3C01C0
3C01C0
3C01C0
3C01C0
3C03C0
3C03C0
3C0780
1C0780
1E0F00
0FFF00
019E00
001E00
003C00
007800
00F000
01E000
03C000
070000
1C0000
F00000
ENDCHAR
STARTCHAR 003A
ENCODING 58
SWIDTH 336 0
DWIDTH 14 0
BBX 9 18 2 0
BITMAP
0780
0780
0780
0300
0000
0000
0000
0000
0000
0000
0000
0000
0000
0000
2000
7000
F800
7000
ENDCHAR
STARTCHAR 003B
ENCODING 59
SWIDTH 336 0
DWIDTH 14 0
BBX 10 23 1 -5
BITMAP
03C0
03C0
03C0
0180
0000
0000
0000
0000
0000
0000
0000
0000
0000
0000
1000
3800
3C00
3C00
1800
1800
3000
6000
8000
ENDCHAR
STARTCHAR 003C
ENCODING 60
SWIDTH 672 0
DWIDTH 28 0
BBX 22 20 3 4
BITMAP
000004
00001C
000078
0003C0
000F00
003C00
01E000
078000
1E0000
F80000
F00000
3C0000
0F8000
01E000
007800
001E00
0007C0
0000F0
00003C
00000C
ENDCHAR
STARTCHAR 003D
ENCODING 61
SWIDTH 672 0
DWIDTH 28 0
BBX 22 8 4 10
BITMAP
FFFFFC
FFFFFC
000000
000000
000000
000000
000000
FFFFFC
ENDCHAR
STARTCHAR 003E
ENCODING 62
SWIDTH 672 0
DWIDTH 28 0
BBX 22 20 3 4
BITMAP
800000
E00000
780000
1F0000
03C000
00F000
003E00
000780
0001E0
000078
00003C
0000F0
0003C0
001F00
007800
01E000
078000
3C0000
F00000
C00000
ENDCHAR
STARTCHAR 003F
ENCODING 63
SWIDTH 504 0
DWIDTH 21 0
BBX 15 29 4 -1
BITMAP
07F0
1838
301C
380E
380E
380E
000E
001E
003C
003C
0078
00E0
01C0
0380
0600
0400
0800
1800
1000
1000
1000
0000
0000
0000
0000
F000
F000
F000
6000
ENDCHAR
STARTCHAR 0040
ENCODING 64
SWIDTH 912 0
DWIDTH 38 0
BBX 35 38 2 -9
BITMAP
0001FE0000
000F01C000
0038003000
00E0001800
0180000400
0300000200
0600000300
0C00000100
1C00000080
1800100080
3000EDC080
300183C0C0
600703C0C0
600E038040
600C038040
C01C0380C0
C0380380C0
C038070080
C070070080
C070070080
C0700E0100
C0E01E0100
C0E01E0300
C0E02E0600
C0F05C0400
60F19C1820
607F0E3020
603E0FC060
3000000040
3000000080
1800000180
0C00000300
0600000600
0300000C00
0180001800
00E0006000
003E078000
0007FC0000
ENDCHAR
STARTCHAR 0041
ENCODING 65
SWIDTH 600 0
DWIDTH 25 0
BBX 25 28 -2 0
BITMAP
00000200
00000600
00000600
00000E00
00001E00
00001E00
00003E00
00007E00
0000DE00
00009E00
00019C00
00031C00
00061C00
00041C00
000C1C00
00181C00
00303C00
003FFC00
007FFC00
00C03C00
00803C00
01003800
03003800
06003800
04003800
0C007800
3C007C00
FF03FF80
ENDCHAR
STARTCHAR 0042
ENCODING 66
SWIDTH 600 0
DWIDTH 25 0
BBX 26 28 -1 0
BITMAP
01FFC000
007FFC00
003C0F00
003C0780
003C0780
003803C0
003803C0
007807C0
00780780
00700780
00F00F00
00F01E00
00E1F800
00FFE000
01E1F000
01C07C00
01C03C00
03C01E00
03C01E00
03801E00
03801E00
07801E00
07003C00
07007C00
0F00F800
0E01F000
1FFFE000
FFFF0000
ENDCHAR
STARTCHAR 0043
ENCODING 67
SWIDTH 672 0
DWIDTH 28 0
BBX 26 29 3 -1
BITMAP
0007F840
003E0FC0
00F003C0
01E00180
03C00180
07800180
0F000180
1E000180
1E000000
3C000000
7C000000
78000000
78000000
F8000000
F0000000
F0000000
F0000000
F0000000
F0000000
F0000000
F0000000
F8000000
78000400
7C000800
3C001800
1F003000
0FC1C000
03FF8000
00300000
ENDCHAR
STARTCHAR 0044
ENCODING 68
SWIDTH 720 0
DWIDTH 30 0
BBX 30 28 -1 0
BITMAP
01FFC000
007FFF00
003C07C0
003C01E0
003C00F0
00380078
00780078
0078003C
0070003C
0070003C
00F0003C
00F0003C
00E0003C
01E0003C
01E0003C
01C0003C
03C0007C
03C00078
03C00078
038000F0
078000F0
078001E0
070003C0
0F000780
0F000F00
0F003C00
1F03F000
FFFF8000
ENDCHAR
STARTCHAR 0045
ENCODING 69
SWIDTH 600 0
DWIDTH 25 0
BBX 27 28 -1 0
BITMAP
01FFFFE0
007FFFE0
003C01E0
003C00E0
003C0040
00380040
00380040
00780000
00780000
00700800
00F01000
00F01000
00E07000
00FFE000
01E0E000
01E06000
01C02000
03C04000
03C04000
03800000
03800100
07800100
07800200
07000600
0F000E00
0F003C00
1F83FC00
FFFFFC00
ENDCHAR
STARTCHAR 0046
ENCODING 70
SWIDTH 600 0
DWIDTH 25 0
BBX 29 28 -1 0
BITMAP
01FFFFF8
003FFFF8
003C0070
003C0030
003C0030
00380020
00380020
00780000
00780000
00700400
00F00800
00F01800
00E07800
00FFF800
01E07000
01E03000
01C03000
03C02000
03C02000
03800000
07800000
07800000
07800000
07000000
0F000000
0F000000
1F000000
FFE00000
ENDCHAR
STARTCHAR 0047
ENCODING 71
SWIDTH 720 0
DWIDTH 30 0
BBX 27 29 3 -1
BITMAP
0007FC20
003E0FE0
00F003C0
01E001C0
03C000C0
078000C0
0F000080
1E000080
1E000000
3C000000
7C000000
78000000
78000000
F8000000
F000FFE0
F0001F00
F0001E00
F0001E00
F0001E00
F0001C00
F8001C00
78003C00
78003C00
3C003800
3C007800
1E007800
0F80F000
03FFC000
001C0000
ENDCHAR
STARTCHAR 0048
ENCODING 72
SWIDTH 720 0
DWIDTH 30 0
BBX 35 28 -1 0
BITMAP
01FFC0FFE0
003F003F00
003E001E00
003C001E00
003C003C00
0038003C00
0038003800
0078003800
0078007800
0070007800
00F0007000
00F000F000
00E000F000
01FFFFE000
01E000E000
01C001E000
01C001E000
03C001C000
03C003C000
038003C000
0780038000
0780038000
0700078000
0700078000
0F00070000
0F000F0000
1F001F8000
FFE07FE000
ENDCHAR
STARTCHAR 0049
ENCODING 73
SWIDTH 336 0
DWIDTH 14 0
BBX 18 28 -1 0
BITMAP
01FFC0
003F00
003E00
003C00
003C00
003800
003800
007800
007800
007000
00F000
00F000
00E000
00E000
01E000
01E000
01C000
03C000
03C000
038000
038000
078000
078000
070000
0F0000
0F0000
1F0000
FFE000
ENDCHAR
STARTCHAR 004A
ENCODING 74
SWIDTH 456 0
DWIDTH 19 0
BBX 24 29 -1 -1
BITMAP
0007FF
0001F8
0000F0
0000F0
0000E0
0001E0
0001E0
0001C0
0003C0
0003C0
0003C0
000380
000780
000780
000700
000F00
000F00
000E00
000E00
001E00
001E00
001C00
703C00
F03800
F07800
E0F000
E1E000
7F8000
180000
ENDCHAR
STARTCHAR 004B
ENCODING 75
SWIDTH 672 0
DWIDTH 28 0
BBX 31 28 -1 0
BITMAP
01FFC3FE
007F01FC
003C00E0
003C01C0
003C0380
00380600
00780C00
00783800
00706000
0070C000
00F38000
00F60000
00EC0000
01FE0000
01EF0000
01CF0000
01C78000
03C3C000
03C3C000
0381E000
0780F000
0780F000
07007800
07003C00
0F003C00
0F003E00
1F003F00
FFE1FFE0
ENDCHAR
STARTCHAR 004C
ENCODING 76
SWIDTH 552 0
DWIDTH 23 0
BBX 23 28 -1 0
BITMAP
01FFC0
007F00
003C00
003C00
003C00
003800
007800
007800
007000
007000
00F000
00F000
00E000
01E000
01E000
01C000
03C000
03C000
03C000
038000
078002
078004
070004
0F000C
0F0018
0F0038
1FC7F8
FFFFF0
ENDCHAR
STARTCHAR 004D
ENCODING 77
SWIDTH 840 0
DWIDTH 35 0
BBX 40 28 -1 0
BITMAP
01FC00007F
007C0000F8
001C0001F0
003E0001E0
003E0003E0
003E0007C0
003E000DC0
006E000BC0
004E001BC0
004E003380
00CE002780
00CE006780
008F00C700
018F018700
018F010F00
010F030F00
0107060E00
03070C1E00
03070C1E00
0207181C00
0607B01C00
0607A03C00
0407E03C00
0407C03800
0C07807800
0C03007800
1C0300F800
FF8207FF00
ENDCHAR
STARTCHAR 004E
ENCODING 78
SWIDTH 672 0
DWIDTH 28 0
BBX 33 29 -1 -1
BITMAP
03F800FF80
00F8003C00
003C001800
003C001800
003E003000
003E003000
006E003000
006F002000
0047006000
0047806000
00C7804000
00C380C000
0083C0C000
0183C0C000
0181E08000
0101E18000
0100E18000
0300F10000
0300F30000
0200730000
06007B0000
06003A0000
04003E0000
04003E0000
0C001C0000
0C001C0000
1C000C0000
FF800C0000
0000080000
ENDCHAR
STARTCHAR 004F
ENCODING 79
SWIDTH 720 0
DWIDTH 30 0
BBX 28 29 2 -1
BITMAP
0003FE00
000E0F00
00380380
007003C0
01E001E0
03C001E0
078000F0
078000F0
0F0000F0
1E0000F0
1E0000F0
3E0000F0
3C0001F0
7C0001E0
7C0001E0
780003E0
780003C0
780003C0
78000780
F8000780
78000F00
78001F00
78001E00
78003C00
3C007800
1E00E000
0F03C000
07FF0000
00700000
ENDCHAR
STARTCHAR 0050
ENCODING 80
SWIDTH 600 0
DWIDTH 25 0
BBX 27 28 -1 0
BITMAP
01FFE000
007FFF00
003C0780
003C03C0
003C01C0
003C01E0
003801E0
007801E0
007801E0
007003C0
007003C0
00F00780
00F00F00
00F03E00
01FFF000
01E00000
01C00000
03C00000
03C00000
03C00000
03800000
07800000
07800000
07000000
0F000000
0F000000
1F000000
FFE00000
ENDCHAR
STARTCHAR 0051
ENCODING 81
SWIDTH 720 0
DWIDTH 30 0
BBX 28 37 2 -9
BITMAP
0003FC00
000E0F00
00380380
007003C0
01E001E0
03C001E0
078000F0
078000F0
0F0000F0
1E0000F0
1E0000F0
3E0000F0
3C0001F0
7C0001E0
7C0001E0
780003E0
780003C0
780003C0
F8000780
F8000780
78000F00
78001E00
78001E00
38003C00
3C007800
1E00E000
0F03C000
07FF0000
00F00000
01800000
03000000
06000080
18000100
3FF80600
7FFFFC00
83FFF000
001F8000
ENDCHAR
STARTCHAR 0052
ENCODING 82
SWIDTH 600 0
DWIDTH 25 0
BBX 25 28 -1 0
BITMAP
01FF8000
007FFC00
003C1E00
003C0F00
003C0780
00380780
00380780
00780780
00700780
00700F00
00F00F00
00F01E00
00E07C00
00FFF000
01EF8000
01C3C000
01C1C000
03C1C000
03C1E000
0381E000
0780E000
0780F000
0700F000
07007000
0F007800
0F007800
1F003C00
FFE03F80
ENDCHAR
STARTCHAR 0053
ENCODING 83
SWIDTH 504 0
DWIDTH 21 0
BBX 22 29 0 -1
BITMAP
003F84
00F9FC
01E03C
01C01C
038018
038008
038008
03C008
03C008
03E000
01F000
00F800
00FC00
007E00
003F00
001F80
000FC0
0007C0
0003E0
2003E0
2001E0
2001E0
2001C0
7001C0
7003C0
780380
7E0F00
47FE00
80E000
ENDCHAR
STARTCHAR 0054
ENCODING 84
SWIDTH 552 0
DWIDTH 23 0
BBX 24 28 3 0
BITMAP
1FFFFF
1FFFFF
1C1E0E
301C06
201C06
203C06
403804
403804
007800
007800
007000
00F000
00F000
00E000
00E000
01E000
01E000
01C000
03C000
03C000
038000
038000
078000
078000
070000
0F0000
1F8000
FFF000
ENDCHAR
STARTCHAR 0055
ENCODING 85
SWIDTH 720 0
DWIDTH 30 0
BBX 30 29 4 -1
BITMAP
7FF807FC
0FC001E0
078000C0
078000C0
07000080
0F000080
0F000180
0E000180
1E000100
1E000300
1C000300
1C000200
3C000200
3C000600
38000600
78000400
78000C00
70000C00
70000800
70001800
F0001800
F0001000
70003000
78006000
7800C000
3C01C000
1F870000
07FE0000
00E00000
ENDCHAR
STARTCHAR 0056
ENCODING 86
SWIDTH 600 0
DWIDTH 25 0
BBX 25 29 5 -1
BITMAP
FFE07F80
1F803F00
0F001C00
0E001800
0E003000
0E006000
0E004000
1E00C000
1E018000
1E030000
1E020000
1E060000
1C0C0000
1C080000
1C100000
1C300000
1C600000
3C400000
3CC00000
3D800000
3F000000
3E000000
3E000000
3C000000
38000000
30000000
30000000
60000000
40000000
ENDCHAR
STARTCHAR 0057
ENCODING 87
SWIDTH 840 0
DWIDTH 35 0
BBX 34 29 5 -1
BITMAP
FFEFFE3FC0
3F03F01F80
1E01E00E00
1E01E00C00
1E01E00800
1E01E01800
1C03E01000
1C07E02000
1C05E06000
1C0DE04000
1C19C08000
3C11C18000
3C31C10000
3C21C30000
3C43C60000
38C3C40000
3883CC0000
3983D80000
3B03D00000
3A03B00000
7E03E00000
7C03C00000
7803C00000
7807800000
7007000000
6007000000
6006000000
4004000000
0004000000
ENDCHAR
STARTCHAR 0058
ENCODING 88
SWIDTH 600 0
DWIDTH 25 0
BBX 34 28 -3 0
BITMAP
007FE0FFC0
001F803F00
000F001C00
0007003800
0007803000
0007806000
000780C000
0003818000
0003C30000
0003C60000
0001CC0000
0001D80000
0001F00000
0001E00000
0000E00000
0001F00000
0003F00000
0006700000
000C700000
0018780000
0030780000
0060380000
00C03C0000
01803C0000
03001C0000
06001E0000
1E003F0000
FFC0FFC000
ENDCHAR
STARTCHAR 0059
ENCODING 89
SWIDTH 552 0
DWIDTH 23 0
BBX 24 28 4 0
BITMAP
7FE1FF
3F807C
0F0030
0F0060
0F0060
0700C0
078180
078100
038300
038600
03C400
01CC00
01D800
01F000
01E000
01E000
01E000
01C000
03C000
03C000
038000
078000
078000
070000
0F0000
0F0000
1F0000
FFF000
ENDCHAR
STARTCHAR 005A
ENCODING 90
SWIDTH 552 0
DWIDTH 23 0
BBX 25 28 0 0
BITMAP
03FFFF80
03FFFF80
03800F00
06001F00
04003E00
08003C00
08007800
0000F000
0001F000
0003E000
0007C000
00078000
000F0000
001F0000
003E0000
007C0000
00780000
00F00000
01F00000
03E00000
07C00000
07800400
0F000400
1F000800
3E001800
7C007800
7807F000
FFFFF000
ENDCHAR
STARTCHAR 005B
ENCODING 91
SWIDTH 384 0
DWIDTH 16 0
BBX 19 36 0 -8
BITMAP
001FE0
003800
003800
003800
003800
007000
007000
007000
00E000
00E000
00E000
00C000
01C000
01C000
01C000
038000
038000
038000
070000
070000
070000
070000
0E0000
0E0000
0E0000
1C0000
1C0000
1C0000
1C0000
380000
380000
380000
700000
700000
700000
FF8000
ENDCHAR
STARTCHAR 005C
ENCODING 92
SWIDTH 288 0
DWIDTH 12 0
BBX 6 30 4 -1
BITMAP
C0
40
40
40
40
60
60
60
60
20
20
20
20
30
30
30
30
10
10
10
10
18
18
18
18
08
08
08
0C
0C
ENDCHAR
STARTCHAR 005D
ENCODING 93
SWIDTH 384 0
DWIDTH 16 0
BBX 19 36 -4 -8
BITMAP
003FE0
0000E0
0001C0
0001C0
0001C0
0001C0
000380
000380
000380
000700
000700
000700
000E00
000E00
000E00
000E00
001C00
001C00
001C00
003800
003800
003800
003800
007000
007000
007000
00E000
00E000
00E000
00C000
01C000
01C000
01C000
038000
038000
FF8000
ENDCHAR
STARTCHAR 005E
ENCODING 94
SWIDTH 432 0
DWIDTH 18 0
BBX 17 14 2 14
BITMAP
018000
01C000
03C000
036000
066000
0C3000
0C1800
181800
180C00
300C00
600600
600200
C00300
C00180
ENDCHAR
STARTCHAR 005F
ENCODING 95
SWIDTH 504 0
DWIDTH 21 0
BBX 21 2 0 -9
BITMAP
FFFFF8
FFFFF8
ENDCHAR
STARTCHAR 0060
ENCODING 96
SWIDTH 336 0
DWIDTH 14 0
BBX 7 7 7 22
BITMAP
F8
78
38
1C
0C
04
02
ENDCHAR
STARTCHAR 0061
ENCODING 97
SWIDTH 504 0
DWIDTH 21 0
BBX 18 18 1 0
BITMAP
00FDC0
0185C0
0703C0
0E0380
0C0380
1C0380
380380
380700
700700
700700
F00E00
E01E00
E01E00
E03E00
E05C40
F09C80
7F1F00
7E1E00
ENDCHAR
STARTCHAR 0062
ENCODING 98
SWIDTH 504 0
DWIDTH 21 0
BBX 19 29 1 0
BITMAP
00E000
0FE000
01C000
01C000
01C000
038000
038000
038000
038000
070000
070000
073F00
0E7FC0
0E83C0
0F01C0
1E01E0
1C01E0
1C01C0
1C01C0
3801C0
3801C0
380380
780380
700700
700600
700E00
E01C00
603000
3DC000
ENDCHAR
STARTCHAR 0063
ENCODING 99
SWIDTH 456 0
DWIDTH 19 0
BBX 17 18 1 0
BITMAP
00FF00
018100
070380
0E0780
1C0700
380200
380000
700000
700000
700000
F00000
F00000
F00000
F00200
F00400
780800
7E7000
1FC000
ENDCHAR
STARTCHAR 0064
ENCODING 100
SWIDTH 504 0
DWIDTH 21 0
BBX 21 29 1 0
BITMAP
000018
0001F8
000078
000078
000070
000070
000070
0000E0
0000E0
0000E0
0001E0
00FDC0
0187C0
0703C0
0E0380
1C0380
1C0380
380300
780700
700700
700F00
F01E00
E01E00
E02E00
E05C00
E0DC40
F19C80
7F1F00
7E1E00
ENDCHAR
STARTCHAR 0065
ENCODING 101
SWIDTH 456 0
DWIDTH 19 0
BBX 17 18 1 0
BITMAP
007F00
018380
070380
0E0380
1C0700
1C0700
380E00
383C00
70F000
7F8000
700000
F00000
F00000
F00000
780600
7C0800
3FF000
1FC000
ENDCHAR
STARTCHAR 0066
ENCODING 102
SWIDTH 288 0
DWIDTH 12 0
BBX 27 38 -7 -9
BITMAP
00000780
000018C0
000030E0
000060C0
0000E000
0000C000
0001C000
0001C000
00038000
00038000
00078000
007FE000
00070000
00070000
000E0000
000E0000
000E0000
000E0000
001C0000
001C0000
001C0000
001C0000
00380000
00380000
00380000
00780000
00700000
00700000
00700000
00E00000
00E00000
00C00000
00C00000
01800000
41000000
E3000000
C4000000
78000000
ENDCHAR
STARTCHAR 0067
ENCODING 103
SWIDTH 504 0
DWIDTH 21 0
BBX 23 27 -1 -9
BITMAP
00FF80
01C1FE
0781FC
0700E0
0F00E0
0E01E0
0E01E0
0E01E0
0E03C0
0F0380
070700
03FC00
008000
030000
060000
0F0000
0FF000
07FF00
18FF80
300FC0
6001C0
E000C0
E000C0
E000C0
700380
3E0E00
0FF800
ENDCHAR
STARTCHAR 0068
ENCODING 104
SWIDTH 504 0
DWIDTH 21 0
BBX 18 29 1 0
BITMAP
006000
0FE000
01E000
01C000
01C000
01C000
038000
038000
038000
070000
070000
070780
071FC0
0E33C0
0E6380
0E4380
1C8380
1D0380
1F0700
1E0700
3C0700
3C0E00
380E00
780E00
700E40
701C40
701C80
E01F00
E01E00
ENDCHAR
STARTCHAR 0069
ENCODING 105
SWIDTH 288 0
DWIDTH 12 0
BBX 9 26 2 1
BITMAP
0380
0780
0380
0100
0000
0000
0000
0000
3E00
5E00
0E00
1C00
1C00
1C00
1C00
3800
3800
3800
7000
7000
7000
7000
E200
E400
F800
F000
ENDCHAR
STARTCHAR 006A
ENCODING 106
SWIDTH 288 0
DWIDTH 12 0
BBX 19 35 -7 -9
BITMAP
0001C0
0003E0
0001C0
000080
000000
000000
000000
000000
000F80
003F00
000700
000700
000E00
000E00
000E00
001E00
001C00
001C00
001C00
003800
003800
003800
007800
007000
007000
007000
00E000
00E000
00E000
01C000
01C000
418000
E30000
C60000
780000
ENDCHAR
STARTCHAR 006B
ENCODING 107
SWIDTH 456 0
DWIDTH 19 0
BBX 19 29 1 0
BITMAP
00E000
0FE000
01C000
01C000
01C000
038000
038000
038000
070000
070000
070000
0F3FE0
0E0700
0E0C00
0E1800
1C3000
1C6000
1CC000
3DC000
3BE000
3CE000
38E000
70E000
70F000
707000
F07080
E07900
E03E00
E03C00
ENDCHAR
STARTCHAR 006C
ENCODING 108
SWIDTH 288 0
DWIDTH 12 0
BBX 10 29 2 0
BITMAP
00C0
1FC0
03C0
0380
0380
0380
0380
0700
0700
0700
0E00
0E00
0E00
1E00
1C00
1C00
1C00
3800
3800
3800
7800
7000
7000
7000
E200
E200
E400
F800
F000
ENDCHAR
STARTCHAR 006D
ENCODING 109
SWIDTH 720 0
DWIDTH 30 0
BBX 27 18 1 0
BITMAP
1F0F03C0
7E1F87E0
0E2789E0
0E4791C0
0E8721C0
1D0741C0
1D0741C0
1E0E8380
3C0F0380
3C0F0380
380E0780
381E0700
781C0700
701C0700
703C0E20
F0380E40
E0380F80
E0380F00
ENDCHAR
STARTCHAR 006E
ENCODING 110
SWIDTH 504 0
DWIDTH 21 0
BBX 18 18 1 0
BITMAP
1F0780
7F1FC0
0E33C0
0E6380
0E4380
1C8380
1D0780
1E0700
1E0700
3C0700
3C0E00
380E00
780E00
701E40
701C40
701C80
E01F00
E01E00
ENDCHAR
STARTCHAR 006F
ENCODING 111
SWIDTH 504 0
DWIDTH 21 0
BBX 18 18 1 0
BITMAP
00FF00
038380
070180
0E01C0
1C01C0
3C01C0
3801C0
7801C0
7003C0
7003C0
F00380
F00780
F00700
F00F00
700E00
701C00
383800
1FE000
ENDCHAR
STARTCHAR 0070
ENCODING 112
SWIDTH 504 0
DWIDTH 21 0
BBX 25 27 -5 -9
BITMAP
00FC7E00
003CDF00
003B0700
003A0780
003C0780
00780780
00780780
00700700
00700700
00E00F00
00E00E00
00E00E00
01C01C00
01C03800
01C03800
01C07000
03C0C000
03FF8000
03800000
07000000
07000000
07000000
07000000
0E000000
0E000000
1E000000
FFC00000
ENDCHAR
STARTCHAR 0071
ENCODING 113
SWIDTH 504 0
DWIDTH 21 0
BBX 18 27 1 -9
BITMAP
00FDC0
0187C0
0703C0
0E03C0
1C0380
1C0380
380380
780700
700700
700F00
F00F00
F01E00
E01E00
E02E00
F05C00
F19C00
7F1C00
7E1C00
003800
003800
003800
007000
007000
007000
00F000
00F000
0FFC00
ENDCHAR
STARTCHAR 0072
ENCODING 114
SWIDTH 384 0
DWIDTH 16 0
BBX 16 18 1 0
BITMAP
3F0F
0F1F
0E3F
0E66
0E44
0C80
1D00
1E00
1E00
3C00
3C00
3800
7800
7000
7000
7000
E000
E000
ENDCHAR
STARTCHAR 0073
ENCODING 115
SWIDTH 384 0
DWIDTH 16 0
BBX 15 18 0 0
BITMAP
03FE
060E
0E0E
0E04
0E04
0F04
0F80
07C0
03C0
01E0
01F0
00F0
4070
4070
C070
C070
E060
FFC0
ENDCHAR
STARTCHAR 0074
ENCODING 116
SWIDTH 288 0
DWIDTH 12 0
BBX 10 23 2 0
BITMAP
0180
0100
0300
0700
0E00
7FC0
0E00
1E00
1C00
1C00
1C00
3800
3800
3800
7800
7000
7000
7000
E000
E200
E400
E800
F000
ENDCHAR
STARTCHAR 0075
ENCODING 117
SWIDTH 504 0
DWIDTH 21 0
BBX 18 18 1 0
BITMAP
1E01C0
3F01C0
4E01C0
CE01C0
0E0380
1E0380
1C0780
1C0700
1C0F00
3C0F00
381700
382E00
382E00
704E00
708C40
711C80
7E1F00
7C1E00
ENDCHAR
STARTCHAR 0076
ENCODING 118
SWIDTH 456 0
DWIDTH 19 0
BBX 17 18 1 0
BITMAP
7C0380
BE0380
1E0380
0E0180
0E0180
0E0100
0F0100
0F0200
070600
070400
070800
071000
073000
076000
07C000
078000
070000
060000
ENDCHAR
STARTCHAR 0077
ENCODING 119
SWIDTH 672 0
DWIDTH 28 0
BBX 27 18 1 0
BITMAP
3C0181C0
FC0181E0
1C0380E0
0E078040
0E078040
0E0B80C0
0E0B8080
0E138100
0E338100
0E238200
0E418400
0EC1C400
0E81C800
0781D000
0701E000
0601E000
0601C000
04018000
ENDCHAR
STARTCHAR 0078
ENCODING 120
SWIDTH 456 0
DWIDTH 19 0
BBX 19 18 -1 0
BITMAP
1F81E0
07C3E0
01C6E0
01CC00
00E800
00F000
00F000
00E000
007000
00F000
00F000
017000
017800
023840
043880
CC3980
F83F00
F01E00
ENDCHAR
STARTCHAR 0079
ENCODING 121
SWIDTH 456 0
DWIDTH 19 0
BBX 21 27 -3 -9
BITMAP
03C038
0FE078
01E038
00E018
00E008
00E010
00E010
00E020
00E060
00E040
007080
007180
007100
007200
007400
007C00
007800
007000
006000
004000
008000
018000
030000
460000
EC0000
F80000
E00000
ENDCHAR
STARTCHAR 007A
ENCODING 122
SWIDTH 384 0
DWIDTH 16 0
BBX 17 18 -1 0
BITMAP
0FFF80
0FFF80
0FFF00
180600
100C00
001800
003000
006000
00C000
018000
030000
020000
040200
080200
100400
3FFC00
7FFC00
FFF800
ENDCHAR
STARTCHAR 007B
ENCODING 123
SWIDTH 408 0
DWIDTH 17 0
BBX 17 38 3 -9
BITMAP
000180
000E00
001800
003000
006000
00E000
01C000
01C000
01C000
01C000
03C000
03C000
03C000
038000
030000
070000
040000
180000
600000
E00000
300000
180000
1C0000
1C0000
1C0000
1C0000
3C0000
380000
780000
700000
F00000
E00000
E00000
E00000
600000
600000
300000
0C0000
ENDCHAR
STARTCHAR 007C
ENCODING 124
SWIDTH 264 0
DWIDTH 11 0
BBX 2 38 5 -9
BITMAP
C0
C0
C0
C0
C0
C0
C0
C0
C0
C0
C0
C0
C0
C0
C0
C0
C0
C0
C0
C0
C0
C0
C0
C0
C0
C0
C0
C0
C0
C0
C0
C0
C0
C0
C0
C0
C0
C0
ENDCHAR
STARTCHAR 007D
ENCODING 125
SWIDTH 408 0
DWIDTH 17 0
BBX 16 38 -3 -9
BITMAP
0018
000C
0006
0003
0003
0003
0007
0007
0007
000F
000E
001E
001C
001C
0018
0018
000C
000C
0003
0003
000C
0030
0060
00E0
00E0
01C0
01C0
01C0
01C0
03C0
03C0
0380
0380
0300
0600
0C00
3000
C000
ENDCHAR
STARTCHAR 007E
ENCODING 126
SWIDTH 552 0
DWIDTH 23 0
BBX 22 6 0 8
BITMAP
0E0004
3FC004
61F00C
403E18
400FF8
8001E0
ENDCHAR
STARTCHAR 00A0
ENCODING 160
SWIDTH 240 0
DWIDTH 10 0
BBX 0 0 0 0
BITMAP
ENDCHAR
STARTCHAR 00A1
ENCODING 161
SWIDTH 384 0
DWIDTH 16 0
BBX 10 29 3 -9
BITMAP
0180
03C0
03C0
03C0
0000
0000
0000
0000
0200
0200
0200
0400
0400
0400
0C00
0C00
1800
1800
1800
3800
3800
3800
7000
7000
7000
F000
F000
E000
C000
ENDCHAR
STARTCHAR 00A2
ENCODING 162
SWIDTH 504 0
DWIDTH 21 0
BBX 17 35 2 -8
BITMAP
000200
000400
000400
000400
000C00
000800
000800
000800
001000
00FF00
019180
073380
0E2780
1C2780
1C6200
384000
384000
704000
708000
708000
F08000
F18000
F10200
710600
7B0C00
3E3000
1FE000
020000
040000
040000
040000
0C0000
080000
080000
180000
ENDCHAR
STARTCHAR 00A3
ENCODING 163
SWIDTH 504 0
DWIDTH 21 0
BBX 21 29 1 -1
BITMAP
0003E0
000C70
001C78
003878
003830
007000
007000
00F000
00F000
00E000
00E000
01E000
01E000
3FFF00
3FFF00
01C000
03C000
03C000
038000
038000
038000
030000
030000
3F0000
5FC040
87F980
8DFF80
D8FE00
201800
ENDCHAR
STARTCHAR 00A4
ENCODING 164
SWIDTH 504 0
DWIDTH 21 0
BBX 20 19 2 5
BITMAP
C0F070
67FCE0
3E07C0
180380
300180
6000C0
600040
600060
400060
400060
400060
600040
6000C0
3000C0
380180
3C0380
6FBEC0
C3F860
800020
ENDCHAR
STARTCHAR 00A5
ENCODING 165
SWIDTH 504 0
DWIDTH 21 0
BBX 26 28 0 0
BITMAP
0FF83FC0
07F00F00
03C00600
01C00C00
01E00800
01E01800
00E03000
00E06000
00F04000
0070C000
00718000
007B0000
003A0000
7FFFFE00
7FFFFC00
00380000
00380000
00780000
00700000
FFFFF800
00F00000
00F00000
00E00000
00E00000
01E00000
01E00000
03E00000
1FFC0000
ENDCHAR
STARTCHAR 00A6
ENCODING 166
SWIDTH 264 0
DWIDTH 11 0
BBX 2 38 5 -9
BITMAP
C0
C0
C0
C0
C0
C0
C0
C0
C0
C0
C0
C0
C0
C0
C0
00
00
00
00
00
00
00
00
C0
C0
C0
C0
C0
C0
C0
C0
C0
C0
C0
C0
C0
C0
C0
ENDCHAR
STARTCHAR 00A7
ENCODING 167
SWIDTH 504 0
DWIDTH 21 0
BBX 21 36 0 -8
BITMAP
000FE0
001030
002038
002038
006018
006000
006000
006000
007000
007000
003800
003C00
01FE00
021F00
040700
040380
0C0380
0C01C0
0E01C0
0600C0
070080
038180
03C300
01FE00
00E000
007000
007000
003800
001800
001800
C01800
E01800
E01000
E01000
702000
3FC000
ENDCHAR
STARTCHAR 00A8
ENCODING 168
SWIDTH 336 0
DWIDTH 14 0
BBX 12 4 5 23
BITMAP
70F0
F8F0
78F0
70E0
ENDCHAR
STARTCHAR 00A9
ENCODING 169
SWIDTH 768 0
DWIDTH 32 0
BBX 29 29 3 -1
BITMAP
003FE000
01E03800
03000E00
06000300
08000180
101FC8C0
30703C60
20E01C20
41C00C30
43800410
C3800410
87800010
87000018
87000018
87000018
87000018
87800018
C7800010
C3800010
41C00430
61E00820
20F03060
303FC040
18000080
0C000100
07000600
01C01C00
007FF000
00070000
ENDCHAR
STARTCHAR 00AA
ENCODING 170
SWIDTH 288 0
DWIDTH 12 0
BBX 11 11 4 17
BITMAP
07E0
1860
3060
6060
60C0
C0C0
C1C0
C380
C580
E9A0
F1C0
ENDCHAR
STARTCHAR 00AB
ENCODING 171
SWIDTH 504 0
DWIDTH 21 0
BBX 18 20 2 -1
BITMAP
004040
008080
018180
030300
060600
0E0C00
1C1C00
383800
707000
F0F000
F0E000
F0F000
707000
307000
303000
183000
181800
081800
080800
040800
ENDCHAR
STARTCHAR 00AC
ENCODING 172
SWIDTH 672 0
DWIDTH 28 0
BBX 22 8 3 10
BITMAP
FFFFFC
FFFFFC
00000C
00000C
00000C
00000C
00000C
00000C
ENDCHAR
STARTCHAR 00AD
ENCODING 173
SWIDTH 336 0
DWIDTH 14 0
BBX 11 2 1 8
BITMAP
7FE0
FFE0
ENDCHAR
STARTCHAR 00AE
ENCODING 174
SWIDTH 768 0
DWIDTH 32 0
BBX 29 29 3 -1
BITMAP
003FE000
01E03800
03000E00
06000300
08000180
13FF00C0
30E3C060
20E0E020
40E07030
40E07010
C0E07010
80E07010
80E0E018
80E3C018
80FF0018
80E70018
80E38018
C0E1C010
C0E1E010
40E0E030
60E07020
20E03860
33FC3C40
18000080
0C000100
07000600
01C01C00
007FF000
00070000
ENDCHAR
STARTCHAR 00AF
ENCODING 175
SWIDTH 504 0
DWIDTH 21 0
BBX 22 1 4 30
BITMAP
FFFFFC
ENDCHAR
STARTCHAR 00B0
ENCODING 176
SWIDTH 408 0
DWIDTH 17 0
BBX 13 12 4 16
BITMAP
0FC0
3FE0
7070
6030
4018
C018
C018
C018
6030
7030
3DE0
1FC0
ENDCHAR
STARTCHAR 00B1
ENCODING 177
SWIDTH 552 0
DWIDTH 23 0
BBX 22 22 1 3
BITMAP
003000
003000
003000
003000
003000
003000
003000
003000
003000
003000
FFFFFC
FFFFFC
003000
003000
003000
003000
003000
003000
003000
003000
FFFFFC
FFFFFC
ENDCHAR
STARTCHAR 00B2
ENCODING 178
SWIDTH 312 0
DWIDTH 13 0
BBX 12 15 2 13
BITMAP
03C0
0FE0
0870
0070
0070
0060
0040
0080
0100
0200
0400
0840
30C0
7F80
FF80
ENDCHAR
STARTCHAR 00B3
ENCODING 179
SWIDTH 312 0
DWIDTH 13 0
BBX 11 15 3 13
BITMAP
0780
09C0
10E0
00C0
01C0
0300
1F00
0780
0380
0180
0180
0180
0300
F600
7800
ENDCHAR
STARTCHAR 00B4
ENCODING 180
SWIDTH 336 0
DWIDTH 14 0
BBX 6 7 9 22
BITMAP
7C
78
70
60
E0
C0
80
ENDCHAR
STARTCHAR 00B5
ENCODING 181
SWIDTH 576 0
DWIDTH 24 0
BBX 22 27 -1 -9
BITMAP
00E01C
00E01C
00E038
01E038
01C038
01C070
01C070
038070
038070
0380E0
0780E0
0701E0
0701C0
0703C0
0F05C4
0F0DC4
0FB9F8
1BE1F0
100000
100000
300000
300000
700000
700000
F00000
E00000
E00000
ENDCHAR
STARTCHAR 00B6
ENCODING 182
SWIDTH 528 0
DWIDTH 22 0
BBX 19 37 2 -9
BITMAP
00FFE0
0FFFE0
1FE180
3FE180
7FE180
7FE180
FFE180
FFE180
FFE180
FFE180
7FE180
7FE180
7FE180
3FE180
0FE180
01E180
002180
002180
002180
002180
002180
002180
002180
002180
002180
002180
002180
002180
002180
002180
002180
002180
002180
002180
002180
002180
002180
ENDCHAR
STARTCHAR 00B7
ENCODING 183
SWIDTH 240 0
DWIDTH 10 0
BBX 4 4 3 12
BITMAP
70
F0
F0
F0
ENDCHAR
STARTCHAR 00B8
ENCODING 184
SWIDTH 336 0
DWIDTH 14 0
BBX 8 9 -1 -8
BITMAP
04
0C
0E
1F
07
07
06
9C
60
ENDCHAR
STARTCHAR 00B9
ENCODING 185
SWIDTH 312 0
DWIDTH 13 0
BBX 9 15 3 13
BITMAP
0180
0780
0380
0300
0300
0700
0600
0600
0E00
0E00
0C00
1C00
1C00
3C00
FE00
ENDCHAR
STARTCHAR 00BA
ENCODING 186
SWIDTH 312 0
DWIDTH 13 0
BBX 11 11 5 17
BITMAP
0FC0
1860
3060
6060
E060
C060
C0E0
C0C0
C180
C300
7E00
ENDCHAR
STARTCHAR 00BB
ENCODING 187
SWIDTH 504 0
DWIDTH 21 0
BBX 18 20 1 -1
BITMAP
080800
040C00
040400
060600
070600
030700
038300
038380
03C380
01C3C0
03C3C0
038780
070700
0E0E00
1C1C00
183800
303000
606000
40C000
808000
ENDCHAR
STARTCHAR 00BC
ENCODING 188
SWIDTH 744 0
DWIDTH 31 0
BBX 26 29 3 -1
BITMAP
03800300
07800600
03800400
03000C00
03001800
07001000
06003000
06006000
0E004000
0C00C000
0C018000
1C010000
18030000
38060000
FE060000
000C00C0
00180180
00180380
00300580
00601B00
00603300
00C06300
0080C600
01818600
0301FF80
02000C00
06000C00
0C000C00
08001800
ENDCHAR
STARTCHAR 00BD
ENCODING 189
SWIDTH 744 0
DWIDTH 31 0
BBX 26 29 3 -1
BITMAP
03800600
07800C00
03800800
03001800
03003000
07002000
06006000
0600C000
0E008000
0C018000
0C030000
1C020000
18060000
380C0000
FE0C0F00
00183F80
003023C0
003001C0
006001C0
00C00180
00C00100
01800300
01000600
03000C00
06001000
04002000
0C00C100
1801FE00
1003FE00
ENDCHAR
STARTCHAR 00BE
ENCODING 190
SWIDTH 744 0
DWIDTH 31 0
BBX 26 29 3 -1
BITMAP
07800200
09C00600
10C00C00
00C00800
01C01800
03003000
1F002000
07806000
0380C000
0180C000
01818000
01830000
03030000
F6060000
700C0000
000C00C0
00180180
00100380
00300580
00601B00
00403300
00C06300
0180C600
01018600
0301FF80
06000C00
04000C00
0C000C00
18001800
ENDCHAR
STARTCHAR 00BF
ENCODING 191
SWIDTH 504 0
DWIDTH 21 0
BBX 15 29 2 -9
BITMAP
001C
001C
003E
001C
0000
0000
0000
0000
0010
0010
0020
0020
0060
00C0
0180
0300
0E00
1C00
3C00
7800
F000
E000
E010
E038
E038
E038
7030
3860
1F80
ENDCHAR
STARTCHAR 00C0
ENCODING 192
SWIDTH 600 0
DWIDTH 25 0
BBX 26 37 -2 0
BITMAP
00000F00
00000700
00000780
00000380
00000180
000000C0
00000040
00000000
00000000
00000200
00000600
00000600
00000E00
00001E00
00001E00
00003E00
00007E00
0000DE00
00009E00
00019C00
00031C00
00061C00
00041C00
000C1C00
00181C00
00303C00
003FFC00
007FFC00
00C03C00
00803C00
01003800
03003800
06003800
04003800
0C007800
3C007C00
FF03FF80
ENDCHAR
STARTCHAR 00C1
ENCODING 193
SWIDTH 600 0
DWIDTH 25 0
BBX 28 37 -2 0
BITMAP
000001F0
000001E0
000001C0
00000380
00000300
00000200
00000400
00000000
00000000
00000200
00000600
00000600
00000E00
00001E00
00001E00
00003E00
00007E00
0000DE00
00009E00
00019C00
00031C00
00061C00
00041C00
000C1C00
00181C00
00303C00
003FFC00
007FFC00
00C03C00
00803C00
01003800
03003800
06003800
04003800
0C007800
3C007C00
FF03FF80
ENDCHAR
STARTCHAR 00C2
ENCODING 194
SWIDTH 600 0
DWIDTH 25 0
BBX 28 36 -2 0
BITMAP
000001C0
000003E0
000007E0
00000C60
00001820
00002010
00004000
00000000
00000200
00000600
00000600
00000E00
00001E00
00001E00
00003E00
00007E00
0000DE00
00009E00
00019C00
00031C00
00061C00
00041C00
000C1C00
00181C00
00303C00
003FFC00
007FFC00
00C03C00
00803C00
01003800
03003800
06003800
04003800
0C007800
3C007C00
FF03FF80
ENDCHAR
STARTCHAR 00C3
ENCODING 195
SWIDTH 600 0
DWIDTH 25 0
BBX 30 35 -2 0
BITMAP
00003E04
00003F84
00006FF8
000043F8
000040F0
00000000
00000000
00000200
00000600
00000600
00000E00
00001E00
00001E00
00003E00
00007E00
0000DE00
00009E00
00019C00
00031C00
00061C00
00041C00
000C1C00
00181C00
00303C00
003FFC00
007FFC00
00C03C00
00803C00
01003800
03003800
06003800
04003800
0C007800
3C007C00
FF03FF80
ENDCHAR
STARTCHAR 00C4
ENCODING 196
SWIDTH 600 0
DWIDTH 25 0
BBX 30 35 -2 0
BITMAP
00001C18
00003E3C
00003E3C
00001C3C
00000800
00000000
00000000
00000200
00000600
00000600
00000E00
00001E00
00001E00
00003E00
00007E00
0000DE00
00009E00
00019C00
00031C00
00061C00
00041C00
000C1C00
00181C00
00303C00
003FFC00
007FFC00
00C03C00
00803C00
01003800
03003800
06003800
04003800
0C007800
3C007C00
FF03FF80
ENDCHAR
STARTCHAR 00C5
ENCODING 197
SWIDTH 600 0
DWIDTH 25 0
BBX 27 35 -2 0
BITMAP
00000780
00000CE0
00000820
00000820
00000820
00000C60
000007C0
00000300
00000600
00000600
00000E00
00001E00
00001E00
00003E00
00007E00
0000DE00
00009E00
00019C00
00031C00
00061C00
00041C00
000C1C00
00181C00
00303C00
003FFC00
007FFC00
00C03C00
00803C00
01003800
03003800
06003800
04003800
0C007800
3C007C00
FF03FF80
ENDCHAR
STARTCHAR 00C6
ENCODING 198
SWIDTH 888 0
DWIDTH 37 0
BBX 40 28 -2 0
BITMAP
00000FFFFF
000007FFFF
000003F00E
000006E006
00000CE006
000009E002
000019E004
000031C000
000063C000
0000C3C040
0000838080
0001038180
0003078780
000607FF00
000C070700
00080F0300
00100F0200
003FFE0200
00600E0200
00C01E0000
00801E0000
01001C0010
03003C0030
06003C0060
0C003800E0
1C007801E0
3C00FE3FC0
FF03FFFFC0
ENDCHAR
STARTCHAR 00C7
ENCODING 199
SWIDTH 672 0
DWIDTH 28 0
BBX 26 36 3 -8
BITMAP
0007F840
003E0FC0
00F003C0
01E00180
03C00180
07800180
0F000180
1E000180
1E000000
3C000000
7C000000
78000000
78000000
F8000000
F0000000
F0000000
F0000000
F0000000
F0000000
F0000000
F0000000
F8000000
78000400
7C000800
3C001800
1F003000
0FC1C000
03FF8000
00300000
00700000
00780000
003C0000
001C0000
00380000
02700000
01800000
ENDCHAR
STARTCHAR 00C8
ENCODING 200
SWIDTH 600 0
DWIDTH 25 0
BBX 27 37 -1 0
BITMAP
0001E000
0000F000
00007000
00007000
00003800
00001800
00000800
00000000
00000000
01FFFFE0
007FFFE0
003C01E0
003C00E0
003C0040
00380040
00380040
00780000
00780000
00700800
00F01000
00F01000
00E07000
00FFE000
01E0E000
01E06000
01C02000
03C04000
03C04000
03800000
03800100
07800100
07800200
07000600
0F000E00
0F003C00
1F83FC00
FFFFFC00
ENDCHAR
STARTCHAR 00C9
ENCODING 201
SWIDTH 600 0
DWIDTH 25 0
BBX 27 37 -1 0
BITMAP
00007C00
00007800
00007000
0000E000
0000C000
00008000
00018000
00000000
00000000
01FFFFE0
007FFFE0
003C01E0
003C00E0
003C0040
00380040
00380040
00780000
00780000
00700800
00F01000
00F01000
00E07000
00FFE000
01E0E000
01E06000
01C02000
03C04000
03C04000
03800000
03800100
07800100
07800200
07000600
0F000E00
0F003C00
1F83FC00
FFFFFC00
ENDCHAR
STARTCHAR 00CA
ENCODING 202
SWIDTH 600 0
DWIDTH 25 0
BBX 27 36 -1 0
BITMAP
00001E00
00003E00
00007E00
0000C600
00018200
00020100
00040000
00000000
01FFFFE0
007FFFE0
003C01E0
003C00E0
003C0040
00380040
00380040
00780000
00780000
00700800
00F01000
00F01000
00E07000
00FFE000
01E0E000
01E06000
01C02000
03C04000
03C04000
03800000
03800100
07800100
07800200
07000600
0F000E00
0F003C00
1F83FC00
FFFFFC00
ENDCHAR
STARTCHAR 00CB
ENCODING 203
SWIDTH 600 0
DWIDTH 25 0
BBX 27 35 -1 0
BITMAP
00038300
0007C780
0007C780
00038780
00010000
00000000
00000000
01FFFFE0
007FFFE0
003C01E0
003C00E0
003C0040
00380040
00380040
00780000
00780000
00700800
00F01000
00F01000
00E07000
00FFE000
01E0E000
01E06000
01C02000
03C04000
03C04000
03800000
03800100
07800100
07800200
07000600
0F000E00
0F003C00
1F83FC00
FFFFFC00
ENDCHAR
STARTCHAR 00CC
ENCODING 204
SWIDTH 336 0
DWIDTH 14 0
BBX 18 37 -1 0
BITMAP
003E00
001E00
000E00
000700
000300
000100
000100
000000
000000
01FFC0
003F00
003E00
003C00
003C00
003800
003800
007800
007800
007000
00F000
00F000
00E000
00E000
01E000
01E000
01C000
03C000
03C000
038000
038000
078000
078000
070000
0F0000
0F0000
1F0000
FFE000
ENDCHAR
STARTCHAR 00CD
ENCODING 205
SWIDTH 336 0
DWIDTH 14 0
BBX 18 37 -1 0
BITMAP
0007C0
000780
000700
000E00
000C00
000C00
000800
000000
000000
01FFC0
003F00
003E00
003C00
003C00
003800
003800
007800
007800
007000
00F000
00F000
00E000
00E000
01E000
01E000
01C000
03C000
03C000
038000
038000
078000
078000
070000
0F0000
0F0000
1F0000
FFE000
ENDCHAR
STARTCHAR 00CE
ENCODING 206
SWIDTH 336 0
DWIDTH 14 0
BBX 18 36 -1 0
BITMAP
000780
000780
000DC0
0018C0
0020C0
004040
008000
000000
01FFC0
003F00
003E00
003C00
003C00
003800
003800
007800
007800
007000
00F000
00F000
00E000
00E000
01E000
01E000
01C000
03C000
03C000
038000
038000
078000
078000
070000
0F0000
0F0000
1F0000
FFE000
ENDCHAR
STARTCHAR 00CF
ENCODING 207
SWIDTH 336 0
DWIDTH 14 0
BBX 20 35 -1 0
BITMAP
0060E0
00F1E0
00F1F0
00F0E0
000040
000000
000000
01FFC0
003F00
003E00
003C00
003C00
003800
003800
007800
007800
007000
00F000
00F000
00E000
00E000
01E000
01E000
01C000
03C000
03C000
038000
038000
078000
078000
070000
0F0000
0F0000
1F0000
FFE000
ENDCHAR
STARTCHAR 00D0
ENCODING 208
SWIDTH 720 0
DWIDTH 30 0
BBX 31 28 -1 0
BITMAP
01FFC000
007FFF00
003C07C0
003C01E0
003C00F0
00380078
00380078
0078003C
0078003C
0070003C
00F0003E
00F0003E
00E0003E
0FFFE03E
01E0003C
01E0003C
01C0003C
03C00078
03C00078
03800078
078000F0
078001E0
078001C0
07000380
0F000F00
0F003C00
1F83F000
FFFF8000
ENDCHAR
STARTCHAR 00D1
ENCODING 209
SWIDTH 672 0
DWIDTH 28 0
BBX 33 36 -1 -1
BITMAP
0000F82000
0001FC2000
00013F6000
00021FC000
0002078000
0000000000
0000000000
03F800FF80
00F8003C00
003C001800
003C001800
003E003000
003E003000
006E003000
006F002000
0047006000
0047806000
00C7804000
00C380C000
0083C0C000
0183C0C000
0181E08000
0101E18000
0100E18000
0300F10000
0300F30000
0200730000
06007B0000
06003A0000
04003E0000
04003E0000
0C001C0000
0C001C0000
1C000C0000
FF800C0000
0000080000
ENDCHAR
STARTCHAR 00D2
ENCODING 210
SWIDTH 720 0
DWIDTH 30 0
BBX 28 38 2 -1
BITMAP
0000F800
00007800
00003800
00001C00
00000C00
00000400
00000600
00000000
00000000
0003FE00
000E0F00
00380380
007003C0
01E001E0
03C001E0
078000F0
078000F0
0F0000F0
1E0000F0
1E0000F0
3E0000F0
3C0001F0
7C0001E0
7C0001E0
780003E0
780003C0
780003C0
78000780
F8000780
78000F00
78001F00
78001E00
78003C00
3C007800
1E00E000
0F03C000
07FF0000
00700000
ENDCHAR
STARTCHAR 00D3
ENCODING 211
SWIDTH 720 0
DWIDTH 30 0
BBX 28 38 2 -1
BITMAP
00000F00
00000E00
00001E00
00001C00
00001800
00003000
00002000
00000000
00000000
0003FE00
000E0F00
00380380
007003C0
01E001E0
03C001E0
078000F0
078000F0
0F0000F0
1E0000F0
1E0000F0
3E0000F0
3C0001F0
7C0001E0
7C0001E0
780003E0
780003C0
780003C0
78000780
F8000780
78000F00
78001F00
78001E00
78003C00
3C007800
1E00E000
0F03C000
07FF0000
00700000
ENDCHAR
STARTCHAR 00D4
ENCODING 212
SWIDTH 720 0
DWIDTH 30 0
BBX 28 37 2 -1
BITMAP
00001E00
00003E00
00007600
0000E700
00018300
00020100
00000000
00000000
0003FE00
000E0F00
00380380
007003C0
01E001E0
03C001E0
078000F0
078000F0
0F0000F0
1E0000F0
1E0000F0
3E0000F0
3C0001F0
7C0001E0
7C0001E0
780003E0
780003C0
780003C0
78000780
F8000780
78000F00
78001F00
78001E00
78003C00
3C007800
1E00E000
0F03C000
07FF0000
00700000
ENDCHAR
STARTCHAR 00D5
ENCODING 213
SWIDTH 720 0
DWIDTH 30 0
BBX 28 36 2 -1
BITMAP
0001E040
0003F840
0006FE80
00043F80
00040F00
00000000
00000000
0003FE00
000E0F00
00380380
007003C0
01E001E0
03C001E0
078000F0
078000F0
0F0000F0
1E0000F0
1E0000F0
3E0000F0
3C0001F0
7C0001E0
7C0001E0
780003E0
780003C0
780003C0
78000780
F8000780
78000F00
78001F00
78001E00
78003C00
3C007800
1E00E000
0F03C000
07FF0000
00700000
ENDCHAR
STARTCHAR 00D6
ENCODING 214
SWIDTH 720 0
DWIDTH 30 0
BBX 28 36 2 -1
BITMAP
0001C180
0003C3C0
0003E7C0
0001C3C0
00008100
00000000
00000000
0003FE00
000E0F00
00380380
007003C0
01E001E0
03C001E0
078000F0
078000F0
0F0000F0
1E0000F0
1E0000F0
3E0000F0
3C0001F0
7C0001E0
7C0001E0
780003E0
780003C0
780003C0
78000780
F8000780
78000F00
78001F00
78001E00
78003C00
3C007800
1E00E000
0F03C000
07FF0000
00700000
ENDCHAR
STARTCHAR 00D7
ENCODING 215
SWIDTH 672 0
DWIDTH 28 0
BBX 16 16 8 5
BITMAP
C001
E003
7006
380C
1C18
0E30
0760
03C0
01C0
03E0
0670
0C38
181C
300E
6007
C003
ENDCHAR
STARTCHAR 00D8
ENCODING 216
SWIDTH 720 0
DWIDTH 30 0
BBX 30 30 1 -1
BITMAP
00000008
0001FE1C
000707B8
001C01F0
003800E0
00F000F0
01E001F0
03C00378
03C00678
07800C78
0F001878
0F003078
1F006078
1E00C0F8
1E0180F0
3E0300F0
3C0601F0
3C0C01E0
3C1801E0
3C3003C0
3C6003C0
3CC00780
3D800F00
3F000F00
1E001E00
1E003C00
1F007000
3F81E000
73FF8000
E0780000
ENDCHAR
STARTCHAR 00D9
ENCODING 217
SWIDTH 720 0
DWIDTH 30 0
BBX 30 38 4 -1
BITMAP
0003E000
0001E000
0000E000
00007000
00003000
00001000
00001000
00000000
00000000
7FF807FC
0FC001E0
078000C0
078000C0
07000080
0F000080
0F000180
0E000180
1E000100
1E000300
1C000300
1C000200
3C000200
3C000600
38000600
78000400
78000C00
70000C00
70000800
70001800
F0001800
F0001000
70003000
78006000
7800C000
3C01C000
1F870000
07FE0000
00E00000
ENDCHAR
STARTCHAR 00DA
ENCODING 218
SWIDTH 720 0
DWIDTH 30 0
BBX 30 38 4 -1
BITMAP
0000F800
0000F000
0000E000
0000C000
0001C000
00018000
00010000
00000000
00000000
7FF807FC
0FC001E0
078000C0
078000C0
07000080
0F000080
0F000180
0E000180
1E000100
1E000300
1C000300
1C000200
3C000200
3C000600
38000600
78000400
78000C00
70000C00
70000800
70001800
F0001800
F0001000
70003000
78006000
7800C000
3C01C000
1F870000
07FE0000
00E00000
ENDCHAR
STARTCHAR 00DB
ENCODING 219
SWIDTH 720 0
DWIDTH 30 0
BBX 30 37 4 -1
BITMAP
00007000
0000F800
0001F800
00031800
00040800
00080800
00100000
00000000
7FF807FC
0FC001E0
078000C0
078000C0
07000080
0F000080
0F000180
0E000180
1E000100
1E000300
1C000300
1C000200
3C000200
3C000600
38000600
78000400
78000C00
70000C00
70000800
70001800
F0001800
F0001000
70003000
78006000
7800C000
3C01C000
1F870000
07FE0000
00E00000
ENDCHAR
STARTCHAR 00DC
ENCODING 220
SWIDTH 720 0
DWIDTH 30 0
BBX 30 36 4 -1
BITMAP
000C1C00
001E1E00
001F3E00
001E1C00
00000800
00000000
00000000
7FF807FC
0FC001E0
078000C0
078000C0
07000080
0F000080
0F000180
0E000180
1E000100
1E000300
1C000300
1C000200
3C000200
3C000600
38000600
78000400
78000C00
70000C00
70000800
70001800
F0001800
F0001000
70003000
78006000
7800C000
3C01C000
1F870000
07FE0000
00E00000
ENDCHAR
STARTCHAR 00DD
ENCODING 221
SWIDTH 552 0
DWIDTH 23 0
BBX 24 37 4 0
BITMAP
0003C0
000380
000780
000700
000600
000C00
000800
000000
000000
7FE1FF
3F807C
0F0030
0F0060
0F0060
0700C0
078180
078100
038300
038600
03C400
01CC00
01D800
01F000
01E000
01E000
01E000
01C000
03C000
03C000
038000
078000
078000
070000
0F0000
0F0000
1F0000
FFF000
ENDCHAR
STARTCHAR 00DE
ENCODING 222
SWIDTH 600 0
DWIDTH 25 0
BBX 26 28 -1 0
BITMAP
01FFC000
007F0000
003E0000
003C0000
003C0000
003C0000
00380000
007FFE00
00781F00
00700780
00F007C0
00F003C0
00E003C0
00E003C0
01E003C0
01E003C0
01C00780
03C00780
03C00F00
03803E00
03FFF800
07FF8000
07800000
07000000
0F000000
0F000000
1F000000
FFE00000
ENDCHAR
STARTCHAR 00DF
ENCODING 223
SWIDTH 504 0
DWIDTH 21 0
BBX 28 38 -7 -9
BITMAP
00001F00
000071C0
0000E0E0
0001C060
0001C070
00038070
00038070
000380E0
000700E0
000701C0
00070380
000E0700
000E3800
000E1C00
001E0700
001C0700
001C0380
001C0380
003803C0
003803C0
00380380
00700380
00700780
00700780
00738700
00E38E00
00E30E00
00E31C00
00C1B000
01C04000
01C00000
01800000
03800000
03000000
03000000
E6000000
EC000000
78000000
ENDCHAR
STARTCHAR 00E0
ENCODING 224
SWIDTH 504 0
DWIDTH 21 0
BBX 18 29 1 0
BITMAP
007C00
003C00
001C00
000E00
000600
000200
000100
000000
000000
000000
000000
00FDC0
0185C0
0703C0
0E0380
0C0380
1C0380
380380
380700
700700
700700
F00E00
E01E00
E01E00
E03E00
E05C40
F09C80
7F1F00
7E1E00
ENDCHAR
STARTCHAR 00E1
ENCODING 225
SWIDTH 504 0
DWIDTH 21 0
BBX 18 29 1 0
BITMAP
000780
000780
000F00
000E00
000C00
001800
001000
000000
000000
000000
000000
00FDC0
0185C0
0703C0
0E0380
0C0380
1C0380
380380
380700
700700
700700
F00E00
E01E00
E01E00
E03E00
E05C40
F09C80
7F1F00
7E1E00
ENDCHAR
STARTCHAR 00E2
ENCODING 226
SWIDTH 504 0
DWIDTH 21 0
BBX 18 28 1 0
BITMAP
000780
000F80
001DC0
0030C0
006040
008040
000000
000000
000000
000000
00FDC0
0185C0
0703C0
0E0380
0C0380
1C0380
380380
380700
700700
700700
F00E00
E01E00
E01E00
E03E00
E05C40
F09C80
7F1F00
7E1E00
ENDCHAR
STARTCHAR 00E3
ENCODING 227
SWIDTH 504 0
DWIDTH 21 0
BBX 19 28 1 0
BITMAP
007000
00FC20
01FE20
011FE0
0207C0
020100
000000
000000
000000
000000
00FDC0
0185C0
0703C0
0E0380
0C0380
1C0380
380380
380700
700700
700700
F00E00
E01E00
E01E00
E03E00
E05C40
F09C80
7F1F00
7E1E00
ENDCHAR
STARTCHAR 00E4
ENCODING 228
SWIDTH 504 0
DWIDTH 21 0
BBX 20 27 1 0
BITMAP
0070E0
00F1F0
00F1F0
0070E0
000000
000000
000000
000000
000000
00FDC0
0185C0
0703C0
0E0380
0C0380
1C0380
380380
380700
700700
700700
F00E00
E01E00
E01E00
E03E00
E05C40
F09C80
7F1F00
7E1E00
ENDCHAR
STARTCHAR 00E5
ENCODING 229
SWIDTH 504 0
DWIDTH 21 0
BBX 18 29 1 0
BITMAP
000F00
001980
0030C0
003040
003040
0010C0
001F80
000600
000000
000000
000000
00FDC0
0185C0
0703C0
0E0380
0C0380
1C0380
380380
380700
700700
700700
F00E00
E01E00
E01E00
E03E00
E05C40
F09C80
7F1F00
7E1E00
ENDCHAR
STARTCHAR 00E6
ENCODING 230
SWIDTH 672 0
DWIDTH 28 0
BBX 26 18 1 0
BITMAP
00F9DF80
0185A1C0
0707C0C0
0E0781C0
0C0781C0
1C070380
38070700
38070E00
700E3800
700FC000
F01E0000
E01E0000
E02E0000
E06E0080
E0CE0100
F18F0600
FF07FC00
7E03F000
ENDCHAR
STARTCHAR 00E7
ENCODING 231
SWIDTH 456 0
DWIDTH 19 0
BBX 17 26 1 -8
BITMAP
00FF00
018100
070380
0E0780
1C0700
380200
380000
700000
700000
700000
F00000
F00000
F00000
F00200
F00400
780800
7E7000
1FC000
030000
038000
078000
01C000
01C000
018000
270000
180000
ENDCHAR
STARTCHAR 00E8
ENCODING 232
SWIDTH 456 0
DWIDTH 19 0
BBX 17 29 1 0
BITMAP
00F800
007800
003800
001C00
000C00
000400
000600
000000
000000
000000
000000
007F00
018380
070380
0E0380
1C0700
1C0700
380E00
383C00
70F000
7F8000
700000
F00000
F00000
F00000
780600
7C0800
3FF000
1FC000
ENDCHAR
STARTCHAR 00E9
ENCODING 233
SWIDTH 456 0
DWIDTH 19 0
BBX 17 29 1 0
BITMAP
000F00
001E00
001E00
001C00
001800
003000
002000
000000
000000
000000
000000
007F00
018380
070380
0E0380
1C0700
1C0700
380E00
383C00
70F000
7F8000
700000
F00000
F00000
F00000
780600
7C0800
3FF000
1FC000
ENDCHAR
STARTCHAR 00EA
ENCODING 234
SWIDTH 456 0
DWIDTH 19 0
BBX 17 28 1 0
BITMAP
000F00
001F00
003B80
006180
00C080
010080
000000
000000
000000
000000
007F00
018380
070380
0E0380
1C0700
1C0700
380E00
383C00
70F000
7F8000
700000
F00000
F00000
F00000
780600
7C0800
3FF000
1FC000
ENDCHAR
STARTCHAR 00EB
ENCODING 235
SWIDTH 456 0
DWIDTH 19 0
BBX 19 27 1 0
BITMAP
01E1C0
01E3E0
01E3C0
00E1C0
000000
000000
000000
000000
000000
007F00
018380
070380
0E0380
1C0700
1C0700
380E00
383C00
70F000
7F8000
700000
F00000
F00000
F00000
780600
7C0800
3FF000
1FC000
ENDCHAR
STARTCHAR 00EC
ENCODING 236
SWIDTH 288 0
DWIDTH 12 0
BBX 9 29 2 0
BITMAP
1E00
0F00
0700
0700
0380
0180
0080
0000
0000
0000
0000
3E00
5E00
0E00
1C00
1C00
1C00
1C00
3800
3800
3800
7000
7000
7000
7000
E200
E400
F800
F000
ENDCHAR
STARTCHAR 00ED
ENCODING 237
SWIDTH 288 0
DWIDTH 12 0
BBX 12 29 2 0
BITMAP
01F0
01E0
01C0
0380
0300
0300
0200
0000
0000
0000
0000
3E00
5E00
0E00
1C00
1C00
1C00
1C00
3800
3800
3800
7000
7000
7000
7000
E200
E400
F800
F000
ENDCHAR
STARTCHAR 00EE
ENCODING 238
SWIDTH 288 0
DWIDTH 12 0
BBX 12 28 2 0
BITMAP
01E0
03E0
0760
0C30
1830
2010
0000
0000
0000
0000
3E00
5E00
0E00
1C00
1C00
1C00
1C00
3800
3800
3800
7000
7000
7000
7000
E200
E400
F800
F000
ENDCHAR
STARTCHAR 00EF
ENCODING 239
SWIDTH 288 0
DWIDTH 12 0
BBX 13 27 2 0
BITMAP
3C78
3C78
3C78
3838
0000
0000
0000
0000
0000
3E00
5E00
0E00
1C00
1C00
1C00
1C00
3800
3800
3800
7000
7000
7000
7000
E200
E400
F800
F000
ENDCHAR
STARTCHAR 00F0
ENCODING 240
SWIDTH 504 0
DWIDTH 21 0
BBX 19 29 1 0
BITMAP
001000
001860
000DC0
000F00
000E00
003700
00C300
000380
000380
000180
0001C0
00FDC0
0383C0
0703C0
0E01C0
1C01C0
3C01C0
3801C0
7803C0
7003C0
F003C0
F00380
F00780
F00700
F00F00
700E00
701C00
383000
1FE000
ENDCHAR
STARTCHAR 00F1
ENCODING 241
SWIDTH 504 0
DWIDTH 21 0
BBX 19 28 1 0
BITMAP
007000
00FC20
01FE20
011FE0
0207C0
020100
000000
000000
000000
000000
1F0780
7F1FC0
0E33C0
0E6380
0E4380
1C8380
1D0780
1E0700
1E0700
3C0700
3C0E00
380E00
780E00
701E40
701C40
701C80
E01F00
E01E00
ENDCHAR
STARTCHAR 00F2
ENCODING 242
SWIDTH 504 0
DWIDTH 21 0
BBX 18 29 1 0
BITMAP
003E00
001E00
000E00
000700
000300
000100
000180
000000
000000
000000
000000
00FF00
038380
070180
0E01C0
1C01C0
3C01C0
3801C0
7801C0
7003C0
7003C0
F00380
F00780
F00700
F00F00
700E00
701C00
383800
1FE000
ENDCHAR
STARTCHAR 00F3
ENCODING 243
SWIDTH 504 0
DWIDTH 21 0
BBX 18 29 1 0
BITMAP
000780
000780
000F00
000E00
000C00
001800
001000
000000
000000
000000
000000
00FF00
038380
070180
0E01C0
1C01C0
3C01C0
3801C0
7801C0
7003C0
7003C0
F00380
F00780
F00700
F00F00
700E00
701C00
383800
1FE000
ENDCHAR
STARTCHAR 00F4
ENCODING 244
SWIDTH 504 0
DWIDTH 21 0
BBX 18 28 1 0
BITMAP
000780
000F80
001DC0
0030C0
006040
008040
000000
000000
000000
000000
00FF00
038380
070180
0E01C0
1C01C0
3C01C0
3801C0
7801C0
7003C0
7003C0
F00380
F00780
F00700
F00F00
700E00
701C00
383800
1FE000
ENDCHAR
STARTCHAR 00F5
ENCODING 245
SWIDTH 504 0
DWIDTH 21 0
BBX 19 28 1 0
BITMAP
007000
00FC20
01FE20
011FE0
0207C0
020100
000000
000000
000000
000000
00FF00
038380
070180
0E01C0
1C01C0
3C01C0
3801C0
7801C0
7003C0
7003C0
F00380
F00780
F00700
F00F00
700E00
701C00
383800
1FE000
ENDCHAR
STARTCHAR 00F6
ENCODING 246
SWIDTH 504 0
DWIDTH 21 0
BBX 20 27 1 0
BITMAP
0070E0
00F1F0
00F1F0
0070E0
000000
000000
000000
000000
000000
00FF00
038380
070180
0E01C0
1C01C0
3C01C0
3801C0
7801C0
7003C0
7003C0
F00380
F00780
F00700
F00F00
700E00
701C00
383800
1FE000
ENDCHAR
STARTCHAR 00F7
ENCODING 247
SWIDTH 552 0
DWIDTH 23 0
BBX 22 16 1 6
BITMAP
003000
007800
007800
003000
000000
000000
000000
FFFFFC
FFFFFC
000000
000000
000000
000000
003800
007800
003800
ENDCHAR
STARTCHAR 00F8
ENCODING 248
SWIDTH 504 0
DWIDTH 21 0
BBX 20 21 0 -1
BITMAP
000010
000030
007F20
01C1C0
0380C0
0701E0
0E02E0
1E04E0
1C08E0
3C10E0
3831E0
3861E0
78C1C0
7983C0
7B0380
7E0780
3C0700
380E00
3C1C00
6FF000
C00000
ENDCHAR
STARTCHAR 00F9
ENCODING 249
SWIDTH 504 0
DWIDTH 21 0
BBX 18 29 1 0
BITMAP
00F000
00F000
007800
003800
001800
000C00
000400
000000
000000
000000
000000
1E01C0
3F01C0
4E01C0
CE01C0
0E0380
1E0380
1C0780
1C0700
1C0F00
3C0F00
381700
382E00
382E00
704E00
708C40
711C80
7E1F00
7C1E00
ENDCHAR
STARTCHAR 00FA
ENCODING 250
SWIDTH 504 0
DWIDTH 21 0
BBX 18 29 1 0
BITMAP
000780
000780
000F00
000E00
000C00
001800
001000
000000
000000
000000
000000
1E01C0
3F01C0
4E01C0
CE01C0
0E0380
1E0380
1C0780
1C0700
1C0F00
3C0F00
381700
382E00
382E00
704E00
708C40
711C80
7E1F00
7C1E00
ENDCHAR
STARTCHAR 00FB
ENCODING 251
SWIDTH 504 0
DWIDTH 21 0
BBX 18 28 1 0
BITMAP
000F00
001F00
003B00
006180
00C180
010080
000000
000000
000000
000000
1E01C0
3F01C0
4E01C0
CE01C0
0E0380
1E0380
1C0780
1C0700
1C0F00
3C0F00
381700
382E00
382E00
704E00
708C40
711C80
7E1F00
7C1E00
ENDCHAR
STARTCHAR 00FC
ENCODING 252
SWIDTH 504 0
DWIDTH 21 0
BBX 19 27 1 0
BITMAP
00E1E0
00F1E0
00F1E0
00E1C0
000000
000000
000000
000000
000000
1E01C0
3F01C0
4E01C0
CE01C0
0E0380
1E0380
1C0780
1C0700
1C0F00
3C0F00
381700
382E00
382E00
704E00
708C40
711C80
7E1F00
7C1E00
ENDCHAR
STARTCHAR 00FD
ENCODING 253
SWIDTH 456 0
DWIDTH 19 0
BBX 21 38 -3 -9
BITMAP
0000F8
0000F0
0001E0
0001C0
000180
000100
000200
000000
000000
000000
000000
03C038
0FE078
01E038
00E018
00E008
00E010
00E010
00E020
00E060
00E040
007080
007180
007100
007200
007400
007C00
007800
007000
006000
004000
008000
018000
030000
460000
EC0000
F80000
E00000
ENDCHAR
STARTCHAR 00FE
ENCODING 254
SWIDTH 504 0
DWIDTH 21 0
BBX 24 38 -4 -9
BITMAP
000700
007F00
000F00
000E00
000E00
000E00
001C00
001C00
001C00
003800
003800
0038FC
0039BE
00760E
00740F
00780F
00F00F
00F00F
00E00E
00E00E
01C01E
01C01C
01C01C
038038
038070
038070
0380E0
078180
07FF00
070000
0E0000
0E0000
0E0000
0E0000
1C0000
1C0000
3C0000
FF8000
ENDCHAR
STARTCHAR 00FF
ENCODING 255
SWIDTH 456 0
DWIDTH 19 0
BBX 22 36 -3 -9
BITMAP
001C38
003E7C
003C7C
001C38
000000
000000
000000
000000
000000
03C038
0FE078
01E038
00E018
00E008
00E010
00E010
00E020
00E060
00E040
007080
007180
007100
007200
007400
007C00
007800
007000
006000
004000
008000
018000
030000
460000
EC0000
F80000
E00000
ENDCHAR
STARTCHAR 0100
ENCODING 256
SWIDTH 600 0
DWIDTH 25 0
BBX 30 33 -2 0
BITMAP
00003FFC
00007FFC
00000000
00000000
00000000
00000200
00000600
00000600
00000E00
00001E00
00001E00
00003E00
00007E00
0000DE00
00009E00
00019C00
00031C00
00061C00
00041C00
000C1C00
00181C00
00303C00
003FFC00
007FFC00
00C03C00
00803C00
01003800
03003800
06003800
04003800
0C007800
3C007C00
FF03FF80
ENDCHAR
STARTCHAR 0101
ENCODING 257
SWIDTH 504 0
DWIDTH 21 0
BBX 20 26 1 0
BITMAP
00FFF0
01FFF0
01FFE0
000000
000000
000000
000000
000000
00FDC0
0185C0
0703C0
0E0380
0C0380
1C0380
380380
380700
700700
700700
F00E00
E01E00
E01E00
E03E00
E05C40
F09C80
7F1F00
7E1E00
ENDCHAR
STARTCHAR 0102
ENCODING 258
SWIDTH 600 0
DWIDTH 25 0
BBX 31 36 -2 0
BITMAP
00001002
0000100C
00001C18
00000FF8
00000FE0
000003C0
00000000
00000000
00000200
00000600
00000600
00000E00
00001E00
00001E00
00003E00
00007E00
0000DE00
00009E00
00019C00
00031C00
00061C00
00041C00
000C1C00
00181C00
00303C00
003FFC00
007FFC00
00C03C00
00803C00
01003800
03003800
06003800
04003800
0C007800
3C007C00
FF03FF80
ENDCHAR
STARTCHAR 0103
ENCODING 259
SWIDTH 504 0
DWIDTH 21 0
BBX 19 29 1 0
BITMAP
010020
008040
0080C0
00FF80
00FF00
007E00
000000
000000
000000
000000
000000
00FDC0
0185C0
0703C0
0E0380
0C0380
1C0380
380380
380700
700700
700700
F00E00
E01E00
E01E00
E03E00
E05C40
F09C80
7F1F00
7E1E00
ENDCHAR
STARTCHAR 0104
ENCODING 260
SWIDTH 600 0
DWIDTH 25 0
BBX 25 36 -2 -8
BITMAP
00000200
00000600
00000600
00000E00
00001E00
00001E00
00003E00
00007E00
0000DE00
00009E00
00019C00
00031C00
00061C00
00041C00
000C1C00
00181C00
00303C00
003FFC00
007FFC00
00C03C00
00803C00
01003800
03003800
06003800
04003800
0C007800
3C007C00
FF03FF80
00004000
0000C000
0000C000
0000C000
0000E000
0000F080
00007F00
00001C00
ENDCHAR
STARTCHAR 0105
ENCODING 261
SWIDTH 504 0
DWIDTH 21 0
BBX 19 26 1 -8
BITMAP
00FDC0
0185C0
0703C0
0E0380
0C0380
1C0380
380380
380700
700700
700700
F00E00
E01E00
E01E00
E03E00
E05C40
F09C80
7F1F00
7E1E00
001800
001000
003000
003800
003800
003E00
001FE0
000700
ENDCHAR
STARTCHAR 0106
ENCODING 262
SWIDTH 672 0
DWIDTH 28 0
BBX 26 38 3 -1
BITMAP
00003E00
00003C00
00007800
00007000
00006000
00004000
00008000
00000000
00000000
0007F840
003E0FC0
00F003C0
01E00180
03C00180
07800180
0F000180
1E000180
1E000000
3C000000
7C000000
78000000
78000000
F8000000
F0000000
F0000000
F0000000
F0000000
F0000000
F0000000
F0000000
F8000000
78000400
7C000800
3C001800
1F003000
0FC1C000
03FF8000
00300000
ENDCHAR
STARTCHAR 0107
ENCODING 263
SWIDTH 456 0
DWIDTH 19 0
BBX 17 29 1 0
BITMAP
000F80
000F00
000E00
001C00
001800
001800
003000
000000
000000
000000
000000
00FF00
018100
070380
0E0780
1C0700
380200
380000
700000
700000
700000
F00000
F00000
F00000
F00200
F00400
780800
7E7000
1FC000
ENDCHAR
STARTCHAR 0108
ENCODING 264
SWIDTH 672 0
DWIDTH 28 0
BBX 26 37 3 -1
BITMAP
00007800
00007800
0000DC00
00018C00
00020C00
00040400
00080000
00000000
0007F840
003E0FC0
00F003C0
01E00180
03C00180
07800180
0F000180
1E000180
1E000000
3C000000
7C000000
78000000
78000000
F8000000
F0000000
F0000000
F0000000
F0000000
F0000000
F0000000
F0000000
F8000000
78000400
7C000800
3C001800
1F003000
0FC1C000
03FF8000
00300000
ENDCHAR
STARTCHAR 0109
ENCODING 265
SWIDTH 456 0
DWIDTH 19 0
BBX 17 28 1 0
BITMAP
000F00
001F00
003B80
006180
00C080
010080
000000
000000
000000
000000
00FF00
018100
070380
0E0780
1C0700
380200
380000
700000
700000
700000
F00000
F00000
F00000
F00200
F00400
780800
7E7000
1FC000
ENDCHAR
STARTCHAR 010A
ENCODING 266
SWIDTH 672 0
DWIDTH 28 0
BBX 26 36 3 -1
BITMAP
00007000
0000F000
0000F000
0000F000
00000000
00000000
00000000
0007F840
003E0FC0
00F003C0
01E00180
03C00180
07800180
0F000180
1E000180
1E000000
3C000000
7C000000
78000000
78000000
F8000000
F0000000
F0000000
F0000000
F0000000
F0000000
F0000000
F0000000
F8000000
78000400
7C000800
3C001800
1F003000
0FC1C000
03FF8000
00300000
ENDCHAR
STARTCHAR 010B
ENCODING 267
SWIDTH 456 0
DWIDTH 19 0
BBX 17 25 1 0
BITMAP
001C00
003E00
001E00
001C00
000000
000000
000000
00FF00
018100
070380
0E0780
1C0700
380200
380000
700000
700000
700000
F00000
F00000
F00000
F00200
F00400
780800
7E7000
1FC000
ENDCHAR
STARTCHAR 010C
ENCODING 268
SWIDTH 672 0
DWIDTH 28 0
BBX 26 37 3 -1
BITMAP
00000080
00010300
00018600
0001DC00
0001F800
0000F000
00000000
00000000
0007F840
003E0FC0
00F003C0
01E00180
03C00180
07800180
0F000180
1E000180
1E000000
3C000000
7C000000
78000000
78000000
F8000000
F0000000
F0000000
F0000000
F0000000
F0000000
F0000000
F0000000
F8000000
78000400
7C000800
3C001800
1F003000
0FC1C000
03FF8000
00300000
ENDCHAR
STARTCHAR 010D
ENCODING 269
SWIDTH 456 0
DWIDTH 19 0
BBX 20 28 1 0
BITMAP
002010
002060
0030C0
003B80
001F00
001E00
000000
000000
000000
000000
00FF00
018100
070380
0E0780
1C0700
380200
380000
700000
700000
700000
F00000
F00000
F00000
F00200
F00400
780800
7E7000
1FC000
ENDCHAR
STARTCHAR 010E
ENCODING 270
SWIDTH 720 0
DWIDTH 30 0
BBX 30 36 -1 0
BITMAP
00010080
00010100
00018600
0000CC00
0000F800
0000F000
00000000
00000000
01FFC000
007FFF00
003C07C0
003C01E0
003C00F0
00380078
00780078
0078003C
0070003C
0070003C
00F0003C
00F0003C
00E0003C
01E0003C
01E0003C
01C0003C
03C0007C
03C00078
03C00078
038000F0
078000F0
078001E0
070003C0
0F000780
0F000F00
0F003C00
1F03F000
FFFF8000
ENDCHAR
STARTCHAR 010F
ENCODING 271
SWIDTH 600 0
DWIDTH 25 0
BBX 28 29 1 0
BITMAP
00001860
0001F8F0
000078F0
000078F0
00007070
00007060
00007040
0000E080
0000E300
0000E000
0001E000
00FDC000
0187C000
0703C000
0E038000
1C038000
1C038000
38030000
78070000
70070000
700F0000
F01E0000
E01E0000
E02E0000
E05C0000
E0DC4000
F19C8000
7F1F0000
7E1E0000
ENDCHAR
STARTCHAR 0110
ENCODING 272
SWIDTH 720 0
DWIDTH 30 0
BBX 31 28 -1 0
BITMAP
01FFC000
007FFF00
003C07C0
003C01E0
003C00F0
00380078
00380078
0078003C
0078003C
0070003C
00F0003E
00F0003E
00E0003E
0FFFE03E
01E0003C
01E0003C
01C0003C
03C00078
03C00078
03800078
078000F0
078001E0
078001C0
07000380
0F000F00
0F003C00
1F83F000
FFFF8000
ENDCHAR
STARTCHAR 0111
ENCODING 273
SWIDTH 504 0
DWIDTH 21 0
BBX 23 29 1 0
BITMAP
000018
0001F8
000078
000078
000070
007FFE
007FFE
0000E0
0000E0
0000E0
0001E0
00FDC0
0187C0
0703C0
0E0380
1C0380
1C0380
380300
780700
700700
700F00
F01E00
E01E00
E02E00
E05C00
E0DC40
F19C80
7F1F00
7E1E00
ENDCHAR
STARTCHAR 0112
ENCODING 274
SWIDTH 600 0
DWIDTH 25 0
BBX 27 33 -1 0
BITMAP
0003FFC0
0007FFC0
00000000
00000000
00000000
01FFFFE0
007FFFE0
003C01E0
003C00E0
003C0040
00380040
00380040
00780000
00780000
00700800
00F01000
00F01000
00E07000
00FFE000
01E0E000
01E06000
01C02000
03C04000
03C04000
03800000
03800100
07800100
07800200
07000600
0F000E00
0F003C00
1F83FC00
FFFFFC00
ENDCHAR
STARTCHAR 0113
ENCODING 275
SWIDTH 456 0
DWIDTH 19 0
BBX 19 26 1 0
BITMAP
03FFE0
03FFC0
03FFC0
000000
000000
000000
000000
000000
007F00
018380
070380
0E0380
1C0700
1C0700
380E00
383C00
70F000
7F8000
700000
F00000
F00000
F00000
780600
7C0800
3FF000
1FC000
ENDCHAR
STARTCHAR 0114
ENCODING 276
SWIDTH 600 0
DWIDTH 25 0
BBX 27 36 -1 0
BITMAP
00010040
00010080
0001C780
0000FF00
0000FC00
00001000
00000000
00000000
01FFFFE0
007FFFE0
003C01E0
003C00E0
003C0040
00380040
00380040
00780000
00780000
00700800
00F01000
00F01000
00E07000
00FFE000
01E0E000
01E06000
01C02000
03C04000
03C04000
03800000
03800100
07800100
07800200
07000600
0F000E00
0F003C00
1F83FC00
FFFFFC00
ENDCHAR
STARTCHAR 0115
ENCODING 277
SWIDTH 456 0
DWIDTH 19 0
BBX 19 29 1 0
BITMAP
008000
008020
00C0C0
00FFC0
007F80
003E00
000000
000000
000000
000000
000000
007F00
018380
070380
0E0380
1C0700
1C0700
380E00
383C00
70F000
7F8000
700000
F00000
F00000
F00000
780600
7C0800
3FF000
1FC000
ENDCHAR
STARTCHAR 0116
ENCODING 278
SWIDTH 600 0
DWIDTH 25 0
BBX 27 35 -1 0
BITMAP
00007000
00007800
00007800
00007800
00000000
00000000
00000000
01FFFFE0
007FFFE0
003C01E0
003C00E0
003C0040
00380040
00380040
00780000
00780000
00700800
00F01000
00F01000
00E07000
00FFE000
01E0E000
01E06000
01C02000
03C04000
03C04000
03800000
03800100
07800100
07800200
07000600
0F000E00
0F003C00
1F83FC00
FFFFFC00
ENDCHAR
STARTCHAR 0117
ENCODING 279
SWIDTH 456 0
DWIDTH 19 0
BBX 17 27 1 0
BITMAP
001C00
003E00
001E00
001C00
000000
000000
000000
000000
000000
007F00
018380
070380
0E0380
1C0700
1C0700
380E00
383C00
70F000
7F8000
700000
F00000
F00000
F00000
780600
7C0800
3FF000
1FC000
ENDCHAR
STARTCHAR 0118
ENCODING 280
SWIDTH 600 0
DWIDTH 25 0
BBX 27 36 -1 -8
BITMAP
01FFFFE0
007FFFE0
003C01E0
003C00E0
003C0040
00380040
00380040
00780000
00780000
00700800
00F01000
00F01000
00E07000
00FFE000
01E0E000
01E06000
01C02000
03C04000
03C04000
03800000
03800100
07800100
07800200
07000600
0F000E00
0F003C00
1F83FC00
FFFFFC00
00010000
00030000
00030000
00030000
00038000
0003C200
0001FC00
00007000
ENDCHAR
STARTCHAR 0119
ENCODING 281
SWIDTH 456 0
DWIDTH 19 0
BBX 17 26 1 -8
BITMAP
007F00
018380
070380
0E0380
1C0700
1C0700
380E00
383C00
70F000
7F8000
700000
F00000
F00000
F00000
780600
7C0800
3FF000
1FC000
030000
020000
060000
070000
070000
03C000
03FC00
00E000
ENDCHAR
STARTCHAR 011A
ENCODING 282
SWIDTH 600 0
DWIDTH 25 0
BBX 27 36 -1 0
BITMAP
00000080
00010100
00018600
0001DC00
0000F800
0000F000
00000000
00000000
01FFFFE0
007FFFE0
003C01E0
003C00E0
003C0040
00380040
00380040
00780000
00780000
00700800
00F01000
00F01000
00E07000
00FFE000
01E0E000
01E06000
01C02000
03C04000
03C04000
03800000
03800100
07800100
07800200
07000600
0F000E00
0F003C00
1F83FC00
FFFFFC00
ENDCHAR
STARTCHAR 011B
ENCODING 283
SWIDTH 456 0
DWIDTH 19 0
BBX 20 28 1 0
BITMAP
004030
002040
003180
003B00
003F00
001E00
000000
000000
000000
000000
007F00
018380
070380
0E0380
1C0700
1C0700
380E00
383C00
70F000
7F8000
700000
F00000
F00000
F00000
780600
7C0800
3FF000
1FC000
ENDCHAR
STARTCHAR 011C
ENCODING 284
SWIDTH 720 0
DWIDTH 30 0
BBX 27 37 3 -1
BITMAP
00003C00
00007C00
0000EC00
0001CE00
00030600
00060200
00000000
00000000
0007FC20
003E0FE0
00F003C0
01E001C0
03C000C0
078000C0
0F000080
1E000080
1E000000
3C000000
7C000000
78000000
78000000
F8000000
F000FFE0
F0001F00
F0001E00
F0001E00
F0001E00
F0001C00
F8001C00
78003C00
78003C00
3C003800
3C007800
1E007800
0F80F000
03FFC000
001C0000
ENDCHAR
STARTCHAR 011D
ENCODING 285
SWIDTH 504 0
DWIDTH 21 0
BBX 23 37 -1 -9
BITMAP
0001E0
0003E0
000760
000C60
001030
002010
000000
000000
000000
000000
00FF80
01C1FE
0781FC
0700E0
0F00E0
0E01E0
0E01E0
0E01E0
0E03C0
0F0380
070700
03FC00
008000
030000
060000
0F0000
0FF000
07FF00
18FF80
300FC0
6001C0
E000C0
E000C0
E000C0
700380
3E0E00
0FF800
ENDCHAR
STARTCHAR 011E
ENCODING 286
SWIDTH 720 0
DWIDTH 30 0
BBX 27 37 3 -1
BITMAP
00020040
00020080
00018300
0001FF00
0001FC00
00007800
00000000
00000000
0007FC20
003E0FE0
00F003C0
01E001C0
03C000C0
078000C0
0F000080
1E000080
1E000000
3C000000
7C000000
78000000
78000000
F8000000
F000FFE0
F0001F00
F0001E00
F0001E00
F0001E00
F0001C00
F8001C00
78003C00
78003C00
3C003800
3C007800
1E007800
0F80F000
03FFC000
001C0000
ENDCHAR
STARTCHAR 011F
ENCODING 287
SWIDTH 504 0
DWIDTH 21 0
BBX 23 38 -1 -9
BITMAP
004008
002018
002030
003FE0
003FC0
001F80
000000
000000
000000
000000
000000
00FF80
01C1FE
0781FC
0700E0
0F00E0
0E01E0
0E01E0
0E01E0
0E03C0
0F0380
070700
03FC00
008000
030000
060000
0F0000
0FF000
07FF00
18FF80
300FC0
6001C0
E000C0
E000C0
E000C0
700380
3E0E00
0FF800
ENDCHAR
STARTCHAR 0120
ENCODING 288
SWIDTH 720 0
DWIDTH 30 0
BBX 27 36 3 -1
BITMAP
00007000
0000F800
0000F800
00007000
00000000
00000000
00000000
0007FC20
003E0FE0
00F003C0
01E001C0
03C000C0
078000C0
0F000080
1E000080
1E000000
3C000000
7C000000
78000000
78000000
F8000000
F000FFE0
F0001F00
F0001E00
F0001E00
F0001E00
F0001C00
F8001C00
78003C00
78003C00
3C003800
3C007800
1E007800
0F80F000
03FFC000
001C0000
ENDCHAR
STARTCHAR 0121
ENCODING 289
SWIDTH 504 0
DWIDTH 21 0
BBX 23 36 -1 -9
BITMAP
000700
000F80
000F00
000700
000000
000000
000000
000000
000000
00FF80
01C1FE
0781FC
0700E0
0F00E0
0E01E0
0E01E0
0E01E0
0E03C0
0F0380
070700
03FC00
008000
030000
060000
0F0000
0FF000
07FF00
18FF80
300FC0
6001C0
E000C0
E000C0
E000C0
700380
3E0E00
0FF800
ENDCHAR
STARTCHAR 0122
ENCODING 290
SWIDTH 720 0
DWIDTH 30 0
BBX 27 36 3 -8
BITMAP
0007FC20
003E0FE0
00F003C0
01E001C0
03C000C0
078000C0
0F000080
1E000080
1E000000
3C000000
7C000000
78000000
78000000
F8000000
F000FFE0
F0001F00
F0001E00
F0001E00
F0001E00
F0001C00
F8001C00
78003C00
78003C00
3C003800
3C007800
1E007800
0F80F000
03FFC000
003C0000
00700000
00F80000
00380000
00380000
00380000
00700000
03800000
ENDCHAR
STARTCHAR 0123
ENCODING 291
SWIDTH 504 0
DWIDTH 21 0
BBX 23 39 -1 -9
BITMAP
000300
000400
000800
001800
003C00
003C00
001C00
000000
000000
000000
000000
000000
00FF80
01C1FE
0781FC
0700E0
0F00E0
0E01E0
0E01E0
0E01E0
0E03C0
0F0380
070700
03FC00
008000
030000
060000
0F0000
0FF000
07FF00
18FF80
300FC0
6001C0
E000C0
E000C0
E000C0
700380
3E0E00
0FF800
ENDCHAR
STARTCHAR 0124
ENCODING 292
SWIDTH 720 0
DWIDTH 30 0
BBX 35 36 -1 0
BITMAP
000003C000
000007C000
00000FC000
000018C000
0000306000
0000402000
0000000000
0000000000
01FFC0FFE0
003F003F00
003E001E00
003C001E00
003C003C00
0038003C00
0038003800
0078003800
0078007800
0070007800
00F0007000
00F000F000
00E000F000
01FFFFE000
01E000E000
01C001E000
01C001E000
03C001C000
03C003C000
038003C000
0780038000
0780038000
0700078000
0700078000
0F00070000
0F000F0000
1F001F8000
FFE07FE000
ENDCHAR
STARTCHAR 0125
ENCODING 293
SWIDTH 504 0
DWIDTH 21 0
BBX 21 36 1 0
BITMAP
0000E0
0001F0
0003F0
000630
000C10
001008
002000
006000
0FE000
01E000
01C000
01C000
01C000
038000
038000
038000
070000
070000
070780
071FC0
0E33C0
0E6380
0E4380
1C8380
1D0380
1F0700
1E0700
3C0700
3C0E00
380E00
780E00
700E40
701C40
701C80
E01F00
E01E00
ENDCHAR
STARTCHAR 0126
ENCODING 294
SWIDTH 720 0
DWIDTH 30 0
BBX 35 28 -1 0
BITMAP
01FFC0FFE0
007F003F00
003E001E00
003C001E00
01FFFFFFC0
03FFFFFF80
0078003800
0078003800
0078007800
0070007800
00F0007000
00F000F000
00E000F000
01FFFFE000
01E000E000
01C001E000
01C001E000
03C001C000
03C003C000
038003C000
0780038000
0780038000
0700078000
0700078000
0F00070000
0F000F0000
1F000F8000
FFE07FE000
ENDCHAR
STARTCHAR 0127
ENCODING 295
SWIDTH 504 0
DWIDTH 21 0
BBX 18 29 1 0
BITMAP
00E000
0FE000
01E000
01C000
01C000
1FFF00
1FFF00
038000
038000
070000
070000
070780
071FC0
0E33C0
0E6380
0E4380
1C8380
1D0380
1F0700
1E0700
3C0700
3C0E00
380E00
780E00
700E40
701C40
701C80
E01F00
E01E00
ENDCHAR
STARTCHAR 0128
ENCODING 296
SWIDTH 336 0
DWIDTH 14 0
BBX 20 36 -1 0
BITMAP
001000
007C10
00FF10
008FF0
0107E0
0001C0
000000
000000
01FFC0
003F00
003E00
003C00
003C00
003800
003800
007800
007800
007000
00F000
00F000
00E000
00E000
01E000
01E000
01C000
03C000
03C000
038000
038000
078000
078000
070000
0F0000
0F0000
1F0000
FFE000
ENDCHAR
STARTCHAR 0129
ENCODING 297
SWIDTH 288 0
DWIDTH 12 0
BBX 14 28 2 0
BITMAP
0C04
3F04
3FC4
47F8
41F8
4020
0000
0000
0000
0000
3E00
5E00
0E00
1C00
1C00
1C00
1C00
3800
3800
3800
7000
7000
7000
7000
E200
E400
F800
F000
ENDCHAR
STARTCHAR 012A
ENCODING 298
SWIDTH 336 0
DWIDTH 14 0
BBX 20 33 -1 0
BITMAP
00FFF0
00FFF0
000000
000000
000000
01FFC0
003F00
003E00
003C00
003C00
003800
003800
007800
007800
007000
00F000
00F000
00E000
00E000
01E000
01E000
01C000
03C000
03C000
038000
038000
078000
078000
070000
0F0000
0F0000
1F0000
FFE000
ENDCHAR
STARTCHAR 012B
ENCODING 299
SWIDTH 288 0
DWIDTH 12 0
BBX 13 26 2 0
BITMAP
7FF8
7FF8
7FF8
0000
0000
0000
0000
0000
3E00
5E00
0E00
1C00
1C00
1C00
1C00
3800
3800
3800
7000
7000
7000
7000
E200
E400
F800
F000
ENDCHAR
STARTCHAR 012C
ENCODING 300
SWIDTH 336 0
DWIDTH 14 0
BBX 21 36 -1 0
BITMAP
002008
002030
0038F0
003FE0
001F80
000600
000000
000000
01FFC0
003F00
003E00
003C00
003C00
003800
003800
007800
007800
007000
00F000
00F000
00E000
00E000
01E000
01E000
01C000
03C000
03C000
038000
038000
078000
078000
070000
0F0000
0F0000
1F0000
FFE000
ENDCHAR
STARTCHAR 012D
ENCODING 301
SWIDTH 288 0
DWIDTH 12 0
BBX 14 29 2 0
BITMAP
2004
100C
1018
1FF0
1FE0
0FC0
0000
0000
0000
0000
0000
3E00
5E00
0E00
1C00
1C00
1C00
1C00
3800
3800
3800
7000
7000
7000
7000
E200
E400
F800
F000
ENDCHAR
STARTCHAR 012E
ENCODING 302
SWIDTH 336 0
DWIDTH 14 0
BBX 18 36 -1 -8
BITMAP
01FFC0
003F00
003E00
003C00
003C00
003800
003800
007800
007800
007000
00F000
00F000
00E000
00E000
01E000
01E000
01C000
03C000
03C000
038000
038000
078000
078000
070000
0F0000
0F0000
1F0000
FFE000
040000
0C0000
0C0000
0C0000
0E0000
0F0800
07F000
018000
ENDCHAR
STARTCHAR 012F
ENCODING 303
SWIDTH 288 0
DWIDTH 12 0
BBX 10 34 1 -7
BITMAP
01C0
03C0
01C0
0080
0000
0000
0000
0000
1F00
2F00
0700
0E00
0E00
0E00
0E00
1C00
1C00
1C00
3800
3800
3800
3800
7100
7200
7C00
7800
6000
4000
C000
E000
E000
F800
7F80
1C00
ENDCHAR
STARTCHAR 0130
ENCODING 304
SWIDTH 336 0
DWIDTH 14 0
BBX 18 35 -1 0
BITMAP
000300
000780
000780
000780
000000
000000
000000
01FFC0
003F00
003E00
003C00
003C00
003800
003800
007800
007800
007000
00F000
00F000
00E000
00E000
01E000
01E000
01C000
03C000
03C000
038000
038000
078000
078000
070000
0F0000
0F0000
1F0000
FFE000
ENDCHAR
STARTCHAR 0131
ENCODING 305
SWIDTH 288 0
DWIDTH 12 0
BBX 7 18 2 0
BITMAP
3E
5E
0E
1C
1C
1C
1C
38
38
38
70
70
70
70
E2
E4
F8
F0
ENDCHAR
STARTCHAR 0132
ENCODING 306
SWIDTH 744 0
DWIDTH 31 0
BBX 35 29 -1 -1
BITMAP
01FFC07FE0
003F003F80
003E001F00
003C000E00
003C001E00
0038001E00
0038001C00
0078003C00
0078003C00
0070003800
00F0003800
00F0007800
00E0007800
00E0007000
01E000F000
01E000F000
01C000E000
03C000E000
03C001E000
038001E000
038001C000
078003C000
0786038000
070F078000
0F1F070000
0F1E0E0000
1F0E1C0000
FFEFF80000
0001800000
ENDCHAR
STARTCHAR 0133
ENCODING 307
SWIDTH 504 0
DWIDTH 21 0
BBX 19 35 2 -8
BITMAP
0781E0
0781E0
0781E0
000080
000000
000000
000000
000000
3E0F80
5E3F80
1C0700
1C0700
1C0700
1C0E00
380E00
380E00
381C00
781C00
701C00
703C00
703800
E03800
E23800
E47000
F87000
F07000
00F000
00E000
00E000
00C000
01C000
418000
E30000
E60000
780000
ENDCHAR
STARTCHAR 0134
ENCODING 308
SWIDTH 456 0
DWIDTH 19 0
BBX 24 37 -1 -1
BITMAP
00000E
00001E
000037
000063
000081
000101
000200
000000
0007FF
0001F8
0000F0
0000F0
0000E0
0001E0
0001E0
0001C0
0003C0
0003C0
0003C0
000380
000780
000780
000700
000F00
000F00
000E00
000E00
001E00
001E00
001C00
703C00
F03800
F07800
E0F000
E1E000
7F8000
180000
ENDCHAR
STARTCHAR 0135
ENCODING 309
SWIDTH 288 0
DWIDTH 12 0
BBX 21 37 -7 -9
BITMAP
0000F0
0001F0
000370
000630
000810
001008
002000
000000
000000
000000
000F80
003F00
000700
000700
000E00
000E00
000E00
001E00
001C00
001C00
001C00
003800
003800
003800
007800
007000
007000
007000
00E000
00E000
00E000
01C000
01C000
418000
E30000
C60000
780000
ENDCHAR
STARTCHAR 0136
ENCODING 310
SWIDTH 672 0
DWIDTH 28 0
BBX 31 36 -1 -8
BITMAP
01FFC3FE
007F01FC
003C00E0
003C01C0
003C0380
00380600
00780C00
00783800
00706000
0070C000
00F38000
00F60000
00EC0000
01FE0000
01EF0000
01CF0000
01C78000
03C3C000
03C3C000
0381E000
0780F000
0780F000
07007800
07003C00
0F003C00
0F003E00
1F003F00
FFE1FFE0
00000000
003C0000
003E0000
000E0000
000E0000
000C0000
01380000
00C00000
ENDCHAR
STARTCHAR 0137
ENCODING 311
SWIDTH 456 0
DWIDTH 19 0
BBX 19 37 1 -8
BITMAP
00E000
0FE000
01C000
01C000
01C000
038000
038000
038000
070000
070000
070000
0F3FE0
0E0700
0E0C00
0E1800
1C3000
1C6000
1CC000
3DC000
3BE000
3CE000
38E000
70E000
70F000
707000
F07080
E07900
E03E00
E03C00
000000
0E0000
1F0000
070000
070000
070000
0E0000
700000
ENDCHAR
STARTCHAR 0138
ENCODING 312
SWIDTH 456 0
DWIDTH 19 0
BBX 19 18 1 0
BITMAP
3F3FE0
5E0700
0E0C00
0E1800
1C3000
1C6000
1CC000
3DC000
3BE000
3CE000
38E000
70E000
70F000
707000
F07080
E07900
E03E00
E03C00
ENDCHAR
STARTCHAR 0139
ENCODING 313
SWIDTH 552 0
DWIDTH 23 0
BBX 23 37 -1 0
BITMAP
0000F8
0000F0
0000E0
0000C0
000180
000180
000100
000000
000000
01FFC0
007F00
003C00
003C00
003C00
003800
007800
007800
007000
007000
00F000
00F000
00E000
01E000
01E000
01C000
03C000
03C000
03C000
038000
078002
078004
070004
0F000C
0F0018
0F0038
1FC7F8
FFFFF0
ENDCHAR
STARTCHAR 013A
ENCODING 314
SWIDTH 288 0
DWIDTH 12 0
BBX 13 37 2 0
BITMAP
0078
00F0
00E0
00E0
01C0
0180
0100
0000
00C0
1FC0
03C0
0380
0380
0380
0380
0700
0700
0700
0E00
0E00
0E00
1E00
1C00
1C00
1C00
3800
3800
3800
7800
7000
7000
7000
E200
E200
E400
F800
F000
ENDCHAR
STARTCHAR 013B
ENCODING 315
SWIDTH 552 0
DWIDTH 23 0
BBX 23 36 -1 -8
BITMAP
01FFC0
007F00
003C00
003C00
003C00
003800
007800
007800
007000
007000
00F000
00F000
00E000
01E000
01E000
01C000
03C000
03C000
03C000
038000
078002
078004
070004
0F000C
0F0018
0F0038
1FC7F8
FFFFF0
000000
00E000
00F000
007800
003000
007000
04E000
030000
ENDCHAR
STARTCHAR 013C
ENCODING 316
SWIDTH 288 0
DWIDTH 12 0
BBX 14 37 -2 -8
BITMAP
000C
01FC
003C
0038
0038
0038
0038
0070
0070
0070
00E0
00E0
00E0
01E0
01C0
01C0
01C0
0380
0380
0380
0780
0700
0700
0700
0E20
0E20
0E40
0F80
0F00
0000
1C00
3E00
0E00
0E00
0E00
9C00
6000
ENDCHAR
STARTCHAR 013D
ENCODING 317
SWIDTH 552 0
DWIDTH 23 0
BBX 26 28 -1 0
BITMAP
01FFC380
007F03C0
003C03C0
003C01C0
003C0180
00380180
00780300
00780600
00700800
00700000
00F00000
00F00000
00E00000
01E00000
01E00000
01C00000
03C00000
03C00000
03C00000
03800000
07800200
07800400
07000400
0F000C00
0F001800
0F003800
1FC7F800
FFFFF000
ENDCHAR
STARTCHAR 013E
ENCODING 318
SWIDTH 360 0
DWIDTH 15 0
BBX 17 29 2 0
BITMAP
00C300
1FC780
03C780
038780
038300
038300
078600
070C00
071000
070000
0E0000
0E0000
0E0000
1E0000
1C0000
1C0000
1C0000
380000
380000
380000
700000
700000
700000
700000
E20000
E20000
E40000
F80000
F00000
ENDCHAR
STARTCHAR 013F
ENCODING 319
SWIDTH 552 0
DWIDTH 23 0
BBX 23 28 -1 0
BITMAP
01FFC0
007F00
003C00
003C00
003C00
003800
007800
007800
007000
007000
00F000
00F000
00E0F0
01E0F0
01E0F0
01C060
03C000
03C000
03C000
038000
078002
078004
070004
0F000C
0F0018
0F0038
1FC7F8
FFFFF0
ENDCHAR
STARTCHAR 0140
ENCODING 320
SWIDTH 312 0
DWIDTH 13 0
BBX 14 29 2 0
BITMAP
00C0
1FC0
03C0
0380
0380
0380
0380
0700
0700
0700
0E00
0E00
0E00
1E38
1C3C
1C3C
1C38
3800
3800
3800
7800
7000
7000
7000
E200
E200
E400
F800
F000
ENDCHAR
STARTCHAR 0141
ENCODING 321
SWIDTH 552 0
DWIDTH 23 0
BBX 23 28 -1 0
BITMAP
01FFC0
007F00
003C00
003C00
003C00
003800
007800
007800
007080
007380
00F700
00FC00
00F800
01E000
01E000
03C000
07C000
1FC000
33C000
238000
478002
078004
070004
0F000C
0F0018
0F0038
1FFFF8
FFFFF0
ENDCHAR
STARTCHAR 0142
ENCODING 322
SWIDTH 288 0
DWIDTH 12 0
BBX 11 29 1 0
BITMAP
0060
0FE0
01E0
01C0
01C0
01C0
03C0
0380
0380
0380
0700
0720
07C0
0F80
0E00
0E00
3E00
5C00
9C00
1C00
3C00
3800
3800
3800
7000
7100
7200
7C00
7800
ENDCHAR
STARTCHAR 0143
ENCODING 323
SWIDTH 672 0
DWIDTH 28 0
BBX 33 38 -1 -1
BITMAP
0000078000
0000070000
00000F0000
00000E0000
00000C0000
0000180000
0000100000
0000000000
0000000000
03F800FF80
00F8003C00
003C001800
003C001800
003E003000
003E003000
006E003000
006F002000
0047006000
0047806000
00C7804000
00C380C000
0083C0C000
0183C0C000
0181E08000
0101E18000
0100E18000
0300F10000
0300F30000
0200730000
06007B0000
06003A0000
04003E0000
04003E0000
0C001C0000
0C001C0000
1C000C0000
FF800C0000
0000080000
ENDCHAR
STARTCHAR 0144
ENCODING 324
SWIDTH 504 0
DWIDTH 21 0
BBX 18 29 1 0
BITMAP
000780
000F00
000F00
000E00
000C00
001800
001000
000000
000000
000000
000000
1F0780
7F1FC0
0E33C0
0E6380
0E4380
1C8380
1D0780
1E0700
1E0700
3C0700
3C0E00
380E00
780E00
701E40
701C40
701C80
E01F00
E01E00
ENDCHAR
STARTCHAR 0145
ENCODING 325
SWIDTH 672 0
DWIDTH 28 0
BBX 33 36 -1 -8
BITMAP
03F800FF80
00F8003C00
003C001800
003C001800
003E003000
003E003000
006E003000
006F002000
0047006000
0047806000
00C7804000
00C380C000
0083C0C000
0183C0C000
0181E08000
0101E18000
0100E18000
0300F10000
0300F30000
0200730000
06007B0000
06003A0000
04003E0000
04003E0000
0C001C0000
0C001C0000
1C000C0000
FF800C0000
0000080000
003C000000
003E000000
000E000000
000E000000
000C000000
0138000000
00C0000000
ENDCHAR
STARTCHAR 0146
ENCODING 326
SWIDTH 504 0
DWIDTH 21 0
BBX 18 26 1 -8
BITMAP
1F0780
7F1FC0
0E33C0
0E6380
0E4380
1C8380
1D0780
1E0700
1E0700
3C0700
3C0E00
380E00
780E00
701E40
701C40
701C80
E01F00
E01E00
000000
070000
0F8000
038000
038000
038000
270000
180000
ENDCHAR
STARTCHAR 0147
ENCODING 327
SWIDTH 672 0
DWIDTH 28 0
BBX 33 37 -1 -1
BITMAP
0000002000
000040C000
0000618000
0000770000
00007E0000
00003C0000
0000000000
0000000000
03F800FF80
00F8003C00
003C001800
003C001800
003E003000
003E003000
006E003000
006F002000
0047006000
0047806000
00C7804000
00C380C000
0083C0C000
0183C0C000
0181E08000
0101E18000
0100E18000
0300F10000
0300F30000
0200730000
06007B0000
06003A0000
04003E0000
04003E0000
0C001C0000
0C001C0000
1C000C0000
FF800C0000
0000080000
ENDCHAR
STARTCHAR 0148
ENCODING 328
SWIDTH 504 0
DWIDTH 21 0
BBX 18 28 1 0
BITMAP
0100C0
008100
00C600
00EC00
00F800
007000
000000
000000
000000
000000
1F0780
7F1FC0
0E33C0
0E6380
0E4380
1C8380
1D0780
1E0700
1E0700
3C0700
3C0E00
380E00
780E00
701E40
701C40
701C80
E01F00
E01E00
ENDCHAR
STARTCHAR 0149
ENCODING 329
SWIDTH 576 0
DWIDTH 24 0
BBX 19 28 3 0
BITMAP
380000
3C0000
3C0000
3C0000
180000
180000
300000
600000
800000
000000
0F83C0
1F8FE0
0789E0
0710E0
0721C0
0741C0
0E81C0
0E83C0
0F0380
0E0380
1E0380
1C0700
1C0700
3C0700
380F20
380E40
780F80
700F00
ENDCHAR
STARTCHAR 014A
ENCODING 330
SWIDTH 696 0
DWIDTH 29 0
BBX 30 29 -1 -1
BITMAP
01FE0FC0
007E3FE0
003C60F0
003C8078
003D0078
003B0078
003A003C
007C003C
007C003C
0078003C
00F0007C
00F0007C
00F00078
00E00078
01E00078
01E00078
01C000F0
03C000F0
03C000E0
0383C0E0
0383C1E0
0787C1C0
0787C380
07070380
0F060700
0F060600
1F060C00
FFE3F800
0000C000
ENDCHAR
STARTCHAR 014B
ENCODING 331
SWIDTH 480 0
DWIDTH 20 0
BBX 18 27 1 -9
BITMAP
1F0780
7F1FC0
0E33C0
0E6380
0E4380
1C8380
1D0780
1E0700
1E0700
3C0700
3C0E00
380E00
780E00
701E00
701C00
701C00
E01C00
E03800
003800
003800
007000
007000
006000
10E000
38C000
318000
3E0000
ENDCHAR
STARTCHAR 014C
ENCODING 332
SWIDTH 720 0
DWIDTH 30 0
BBX 28 34 2 -1
BITMAP
0003FFC0
0007FFC0
00000000
00000000
00000000
0003FE00
000E0F00
00380380
007003C0
01E001E0
03C001E0
078000F0
078000F0
0F0000F0
1E0000F0
1E0000F0
3E0000F0
3C0001F0
7C0001E0
7C0001E0
780003E0
780003C0
780003C0
78000780
F8000780
78000F00
78001F00
78001E00
78003C00
3C007800
1E00E000
0F03C000
07FF0000
00700000
ENDCHAR
STARTCHAR 014D
ENCODING 333
SWIDTH 504 0
DWIDTH 21 0
BBX 20 26 1 0
BITMAP
00FFF0
01FFE0
01FFE0
000000
000000
000000
000000
000000
00FF00
038380
070180
0E01C0
1C01C0
3C01C0
3801C0
7801C0
7003C0
7003C0
F00380
F00780
F00700
F00F00
700E00
701C00
383800
1FE000
ENDCHAR
STARTCHAR 014E
ENCODING 334
SWIDTH 720 0
DWIDTH 30 0
BBX 28 37 2 -1
BITMAP
00010040
00010080
0001C780
0000FF00
0000FE00
00001000
00000000
00000000
0003FE00
000E0F00
00380380
007003C0
01E001E0
03C001E0
078000F0
078000F0
0F0000F0
1E0000F0
1E0000F0
3E0000F0
3C0001F0
7C0001E0
7C0001E0
780003E0
780003C0
780003C0
78000780
F8000780
78000F00
78001F00
78001E00
78003C00
3C007800
1E00E000
0F03C000
07FF0000
00700000
ENDCHAR
STARTCHAR 014F
ENCODING 335
SWIDTH 504 0
DWIDTH 21 0
BBX 20 28 1 1
BITMAP
004010
004060
007FC0
003F80
001F00
000000
000000
000000
000000
000000
00FF00
038380
070180
0E01C0
1C01C0
3C01C0
3801C0
7801C0
7003C0
7003C0
F00380
F00780
F00700
F00F00
700E00
701C00
383800
1FE000
ENDCHAR
STARTCHAR 0150
ENCODING 336
SWIDTH 720 0
DWIDTH 30 0
BBX 28 38 2 -1
BITMAP
00007DF0
000079E0
000071C0
00006380
0000E300
0000C300
00008200
00000000
00000000
0003FE00
000E0F00
00380380
007003C0
01E001E0
03C001E0
078000F0
078000F0
0F0000F0
1E0000F0
1E0000F0
3E0000F0
3C0001F0
7C0001E0
7C0001E0
780003E0
780003C0
780003C0
78000780
F8000780
78000F00
78001F00
78001E00
78003C00
3C007800
1E00E000
0F03C000
07FF0000
00700000
ENDCHAR
STARTCHAR 0151
ENCODING 337
SWIDTH 504 0
DWIDTH 21 0
BBX 22 29 1 0
BITMAP
001F7C
001E78
001CF0
0038E0
0030C0
002180
006100
000000
000000
000000
000000
00FF00
038380
070180
0E01C0
1C01C0
3C01C0
3801C0
7801C0
7003C0
7003C0
F00380
F00780
F00700
F00F00
700E00
701C00
383800
1FE000
ENDCHAR
STARTCHAR 0152
ENCODING 338
SWIDTH 936 0
DWIDTH 39 0
BBX 39 28 1 0
BITMAP
0001FFFFFE
000FFFFFFE
003C07E01E
007003C00E
01E003C004
03C003C004
0780038004
0F00038000
0F00078000
1E00070080
3E00070100
3C000F0300
7C000F0700
78000FFE00
78001E0E00
F8001E0600
F8001C0600
F0001C0400
F0003C0400
F0003C0000
F000380010
F000780020
7800780020
7800700060
3C00F000C0
3E01F003C0
0F87F83FC0
07FFFFFF80
ENDCHAR
STARTCHAR 0153
ENCODING 339
SWIDTH 672 0
DWIDTH 28 0
BBX 26 18 1 -1
BITMAP
00FC1F80
038631C0
070761C0
0E03C1C0
1C0381C0
3C078380
38070700
78070E00
70073800
F00FE000
F00E0000
F00E0000
E01E0000
E01E0000
E03F0300
60770600
70E7FC00
3F83F000
ENDCHAR
STARTCHAR 0154
ENCODING 340
SWIDTH 600 0
DWIDTH 25 0
BBX 25 37 -1 0
BITMAP
00003C00
00007800
00007800
00007000
00006000
0000C000
00008000
00000000
00000000
01FF8000
007FFC00
003C1E00
003C0F00
003C0780
00380780
00380780
00780780
00700780
00700F00
00F00F00
00F01E00
00E07C00
00FFF000
01EF8000
01C3C000
01C1C000
03C1C000
03C1E000
0381E000
0780E000
0780F000
0700F000
07007000
0F007800
0F007800
1F003C00
FFE03F80
ENDCHAR
STARTCHAR 0155
ENCODING 341
SWIDTH 384 0
DWIDTH 16 0
BBX 16 29 1 0
BITMAP
001E
003C
003C
0038
0030
0060
0040
0000
0000
0000
0000
3F0F
0F1F
0E3F
0E66
0E44
0C80
1D00
1E00
1E00
3C00
3C00
3800
7800
7000
7000
7000
E000
E000
ENDCHAR
STARTCHAR 0156
ENCODING 342
SWIDTH 600 0
DWIDTH 25 0
BBX 25 36 -1 -8
BITMAP
01FF8000
007FFC00
003C1E00
003C0F00
003C0780
00380780
00380780
00780780
00700780
00700F00
00F00F00
00F01E00
00E07C00
00FFF000
01EF8000
01C3C000
01C1C000
03C1C000
03C1E000
0381E000
0780E000
0780F000
0700F000
07007000
0F007800
0F007800
1F003C00
FFE03F80
00000000
00780000
00780000
003C0000
001C0000
00180000
02700000
01800000
ENDCHAR
STARTCHAR 0157
ENCODING 343
SWIDTH 384 0
DWIDTH 16 0
BBX 17 26 0 -8
BITMAP
1F8780
078F80
071F80
073300
072200
064000
0E8000
0F0000
0F0000
1E0000
1E0000
1C0000
3C0000
380000
380000
380000
700000
700000
000000
1C0000
1E0000
0E0000
060000
0E0000
9C0000
600000
ENDCHAR
STARTCHAR 0158
ENCODING 344
SWIDTH 600 0
DWIDTH 25 0
BBX 25 36 -1 0
BITMAP
00040000
00060600
00031800
00033000
0003E000
0003E000
00000000
00000000
01FF8000
007FFC00
003C1E00
003C0F00
003C0780
00380780
00380780
00780780
00700780
00700F00
00F00F00
00F01E00
00E07C00
00FFF000
01EF8000
01C3C000
01C1C000
03C1C000
03C1E000
0381E000
0780E000
0780F000
0700F000
07007000
0F007800
0F007800
1F003C00
FFE03F80
ENDCHAR
STARTCHAR 0159
ENCODING 345
SWIDTH 384 0
DWIDTH 16 0
BBX 16 28 1 0
BITMAP
0201
0302
018C
01F8
01F0
01E0
0000
0000
0000
0000
3F0F
0F1F
0E3F
0E66
0E44
0C80
1D00
1E00
1E00
3C00
3C00
3800
7800
7000
7000
7000
E000
E000
ENDCHAR
STARTCHAR 015A
ENCODING 346
SWIDTH 504 0
DWIDTH 21 0
BBX 22 38 0 -1
BITMAP
0001F0
0001E0
0001C0
000380
000300
000200
000600
000000
000000
003F84
00F9FC
01E03C
01C01C
038018
038008
038008
03C008
03C008
03E000
01F000
00F800
00FC00
007E00
003F00
001F80
000FC0
0007C0
0003E0
2003E0
2001E0
2001E0
2001C0
7001C0
7003C0
780380
7E0F00
47FE00
80E000
ENDCHAR
STARTCHAR 015B
ENCODING 347
SWIDTH 384 0
DWIDTH 16 0
BBX 16 29 0 0
BITMAP
001F
001E
001C
0038
0030
0020
0060
0000
0000
0000
0000
03FE
060E
0E0E
0E04
0E04
0F04
0F80
07C0
03C0
01E0
01F0
00F0
4070
4070
C070
C070
E060
FFC0
ENDCHAR
STARTCHAR 015C
ENCODING 348
SWIDTH 504 0
DWIDTH 21 0
BBX 22 37 0 -1
BITMAP
0000F0
0001F0
0003B0
000738
000C18
001008
000000
000000
003F84
00F9FC
01E03C
01C01C
038018
038008
038008
03C008
03C008
03E000
01F000
00F800
00FC00
007E00
003F00
001F80
000FC0
0007C0
0003E0
2003E0
2001E0
2001E0
2001C0
7001C0
7003C0
780380
7E0F00
47FE00
80E000
ENDCHAR
STARTCHAR 015D
ENCODING 349
SWIDTH 384 0
DWIDTH 16 0
BBX 17 28 0 0
BITMAP
001E00
003F00
007700
00E300
018100
020080
000000
000000
000000
000000
03FE00
060E00
0E0E00
0E0400
0E0400
0F0400
0F8000
07C000
03C000
01E000
01F000
00F000
407000
407000
C07000
C07000
E06000
FFC000
ENDCHAR
STARTCHAR 015E
ENCODING 350
SWIDTH 504 0
DWIDTH 21 0
BBX 22 36 0 -8
BITMAP
003F84
00F9FC
01E03C
01C01C
038018
038008
038008
03C008
03C008
03E000
01F000
00F800
00FC00
007E00
003F00
001F80
000FC0
0007C0
0003E0
2003E0
2001E0
2001E0
2001C0
7001C0
7003C0
780380
7E0F00
47FE00
80E000
00E000
01F000
007000
007000
007000
00E000
070000
ENDCHAR
STARTCHAR 015F
ENCODING 351
SWIDTH 384 0
DWIDTH 16 0
BBX 15 26 0 -8
BITMAP
03FE
060E
0E0E
0E04
0E04
0F04
0F80
07C0
03C0
01E0
01F0
00F0
4070
4070
C070
C070
E060
FFC0
0400
0E00
1F00
0700
0700
0700
0E00
7000
ENDCHAR
STARTCHAR 0160
ENCODING 352
SWIDTH 504 0
DWIDTH 21 0
BBX 22 37 0 -1
BITMAP
000804
000C08
000C30
000660
0007C0
000780
000000
000000
003F84
00F9FC
01E03C
01C01C
038018
038008
038008
03C008
03C008
03E000
01F000
00F800
00FC00
007E00
003F00
001F80
000FC0
0007C0
0003E0
2003E0
2001E0
2001E0
2001C0
7001C0
7003C0
780380
7E0F00
47FE00
80E000
ENDCHAR
STARTCHAR 0161
ENCODING 353
SWIDTH 384 0
DWIDTH 16 0
BBX 17 28 0 0
BITMAP
020180
010200
018C00
01D800
01F800
00F000
000000
000000
000000
000000
03FE00
060E00
0E0E00
0E0400
0E0400
0F0400
0F8000
07C000
03C000
01E000
01F000
00F000
407000
407000
C07000
C07000
E06000
FFC000
ENDCHAR
STARTCHAR 0162
ENCODING 354
SWIDTH 552 0
DWIDTH 23 0
BBX 24 37 3 -9
BITMAP
1FFFFF
1FFFFF
1C1E0E
301C06
201C06
203C06
403804
403804
007800
007800
007000
00F000
00F000
00E000
00E000
01E000
01E000
01C000
03C000
03C000
038000
038000
078000
078000
070000
0F0000
1F8000
FFF000
000000
000000
1E0000
1E0000
1E0000
0C0000
0C0000
180000
600000
ENDCHAR
STARTCHAR 0163
ENCODING 355
SWIDTH 288 0
DWIDTH 12 0
BBX 13 32 -1 -9
BITMAP
0030
0020
0060
00E0
01C0
0FF8
01C0
03C0
0380
0380
0380
0700
0700
0700
0F00
0E00
0E00
0E00
1C00
1C40
1C80
1D80
1E00
0000
0000
3C00
3C00
1C00
1C00
1800
3000
C000
ENDCHAR
STARTCHAR 0164
ENCODING 356
SWIDTH 552 0
DWIDTH 23 0
BBX 24 36 3 0
BITMAP
001008
001810
001860
000CC0
000F80
000F00
000000
000000
1FFFFF
1FFFFF
1C1E0E
301C06
201C06
203C06
403804
403804
007800
007800
007000
00F000
00F000
00E000
00E000
01E000
01E000
01C000
03C000
03C000
038000
038000
078000
078000
070000
0F0000
1F8000
FFF000
ENDCHAR
STARTCHAR 0165
ENCODING 357
SWIDTH 360 0
DWIDTH 15 0
BBX 17 29 2 0
BITMAP
000300
000780
000780
000780
000300
000300
018600
010C00
031000
070000
0E0000
7FC000
0E0000
1E0000
1C0000
1C0000
1C0000
380000
380000
380000
780000
700000
700000
700000
E00000
E20000
E40000
EC0000
F00000
ENDCHAR
STARTCHAR 0166
ENCODING 358
SWIDTH 552 0
DWIDTH 23 0
BBX 24 28 3 0
BITMAP
1FFFFF
1FFFFF
1C1E0F
301C06
201C06
203C06
403C04
403804
007800
007800
007000
007000
00F000
7FFFC0
00E000
01E000
01E000
01C000
03C000
03C000
03C000
038000
078000
078000
078000
0F0000
1F8000
FFF000
ENDCHAR
STARTCHAR 0167
ENCODING 359
SWIDTH 288 0
DWIDTH 12 0
BBX 11 23 1 0
BITMAP
00C0
0080
0180
0380
0700
3FE0
0700
0F00
0E00
0E00
0E00
FFC0
1C00
1C00
3C00
3800
3800
3800
7000
7100
7200
7400
7800
ENDCHAR
STARTCHAR 0168
ENCODING 360
SWIDTH 720 0
DWIDTH 30 0
BBX 30 36 4 0
BITMAP
0007C100
000FF100
0009FF00
00107E00
00101C00
00000000
00000000
7FF807FC
0FC001E0
078000C0
078000C0
07000080
0F000080
0F000180
0E000180
1E000100
1E000300
1C000300
1C000200
3C000200
3C000600
38000600
78000400
78000C00
70000C00
70000800
70001800
F0001800
F0001000
70003000
78006000
7800C000
3C01C000
1F870000
07FE0000
00E00000
ENDCHAR
STARTCHAR 0169
ENCODING 361
SWIDTH 504 0
DWIDTH 21 0
BBX 19 28 1 0
BITMAP
007000
00FC20
01FE20
011FE0
0207C0
020100
000000
000000
000000
000000
1E01C0
3F01C0
4E01C0
CE01C0
0E0380
1E0380
1C0780
1C0700
1C0F00
3C0F00
381700
382E00
382E00
704E00
708C40
711C80
7E1F00
7C1E00
ENDCHAR
STARTCHAR 016A
ENCODING 362
SWIDTH 720 0
DWIDTH 30 0
BBX 30 34 4 -1
BITMAP
000FFF00
001FFF00
00000000
00000000
00000000
7FF807FC
0FC001E0
078000C0
078000C0
07000080
0F000080
0F000180
0E000180
1E000100
1E000300
1C000300
1C000200
3C000200
3C000600
38000600
78000400
78000C00
70000C00
70000800
70001800
F0001800
F0001000
70003000
78006000
7800C000
3C01C000
1F870000
07FE0000
00E00000
ENDCHAR
STARTCHAR 016B
ENCODING 363
SWIDTH 504 0
DWIDTH 21 0
BBX 19 26 1 0
BITMAP
01FFE0
01FFE0
01FFE0
000000
000000
000000
000000
000000
1E01C0
3F01C0
4E01C0
CE01C0
0E0380
1E0380
1C0780
1C0700
1C0F00
3C0F00
381700
382E00
382E00
704E00
708C40
711C80
7E1F00
7C1E00
ENDCHAR
STARTCHAR 016C
ENCODING 364
SWIDTH 720 0
DWIDTH 30 0
BBX 30 37 4 -1
BITMAP
00040100
00060300
00031E00
0003FC00
0001F800
00004000
00000000
00000000
7FF807FC
0FC001E0
078000C0
078000C0
07000080
0F000080
0F000180
0E000180
1E000100
1E000300
1C000300
1C000200
3C000200
3C000600
38000600
78000400
78000C00
70000C00
70000800
70001800
F0001800
F0001000
70003000
78006000
7800C000
3C01C000
1F870000
07FE0000
00E00000
ENDCHAR
STARTCHAR 016D
ENCODING 365
SWIDTH 504 0
DWIDTH 21 0
BBX 20 29 1 0
BITMAP
008010
008020
00C0E0
007FC0
007F80
003E00
000000
000000
000000
000000
000000
1E01C0
3F01C0
4E01C0
CE01C0
0E0380
1E0380
1C0780
1C0700
1C0F00
3C0F00
381700
382E00
382E00
704E00
708C40
711C80
7E1F00
7C1E00
ENDCHAR
STARTCHAR 016E
ENCODING 366
SWIDTH 720 0
DWIDTH 30 0
BBX 30 38 4 -1
BITMAP
0000E000
0001B000
00030800
00020800
00020800
00030800
0001B000
0000E000
00000000
7FF807FC
0FC001E0
078000C0
078000C0
07000080
0F000080
0F000180
0E000180
1E000100
1E000300
1C000300
1C000200
3C000200
3C000600
38000600
78000400
78000C00
70000C00
70000800
70001800
F0001800
F0001000
70003000
78006000
7800C000
3C01C000
1F870000
07FE0000
00E00000
ENDCHAR
STARTCHAR 016F
ENCODING 367
SWIDTH 504 0
DWIDTH 21 0
BBX 18 29 1 0
BITMAP
001C00
003700
004100
004100
004100
006100
003E00
001C00
000000
000000
000000
1E01C0
3F01C0
4E01C0
CE01C0
0E0380
1E0380
1C0780
1C0700
1C0F00
3C0F00
381700
382E00
382E00
704E00
708C40
711C80
7E1F00
7C1E00
ENDCHAR
STARTCHAR 0170
ENCODING 368
SWIDTH 720 0
DWIDTH 30 0
BBX 30 38 4 -1
BITMAP
0001EF80
0003CF00
00038E00
00030C00
00071800
00061800
00041000
00000000
00000000
7FF807FC
0FC001E0
078000C0
078000C0
07000080
0F000080
0F000180
0E000180
1E000100
1E000300
1C000300
1C000200
3C000200
3C000600
38000600
78000400
78000C00
70000C00
70000800
70001800
F0001800
F0001000
70003000
78006000
7800C000
3C01C000
1F870000
07FE0000
00E00000
ENDCHAR
STARTCHAR 0171
ENCODING 369
SWIDTH 504 0
DWIDTH 21 0
BBX 21 29 1 0
BITMAP
003EF8
003CF0
0038E0
0071C0
006180
006100
00C300
000000
000000
000000
000000
1E01C0
3F01C0
4E01C0
CE01C0
0E0380
1E0380
1C0780
1C0700
1C0F00
3C0F00
381700
382E00
382E00
704E00
708C40
711C80
7E1F00
7C1E00
ENDCHAR
STARTCHAR 0172
ENCODING 370
SWIDTH 720 0
DWIDTH 30 0
BBX 30 36 4 -8
BITMAP
7FF807FC
0FC001E0
078000C0
078000C0
07000080
0F000080
0F000180
0E000180
1E000100
1E000300
1C000300
1C000200
3C000200
3C000600
38000600
78000400
78000C00
70000C00
70000800
70001800
F0001800
F0001000
70003000
78006000
7800C000
3C01C000
1F870000
07FE0000
00E00000
00C00000
00C00000
01C00000
01E00000
00F00000
007F0000
00180000
ENDCHAR
STARTCHAR 0173
ENCODING 371
SWIDTH 504 0
DWIDTH 21 0
BBX 21 26 1 -8
BITMAP
1E01C0
3F01C0
4E01C0
CE01C0
0E0380
1E0380
1C0780
1C0700
1C0F00
3C0F00
381700
382E00
382E00
704E00
708C40
711C80
7E1F00
7C1E00
000400
000C00
000C00
000C00
000E00
000F08
0007F0
0001C0
ENDCHAR
STARTCHAR 0174
ENCODING 372
SWIDTH 840 0
DWIDTH 35 0
BBX 34 37 5 -1
BITMAP
00003C0000
00007C0000
0000EE0000
0001C60000
0003060000
0006020000
0000000000
0000000000
FFEFFE3FC0
3F03F01F80
1E01E00E00
1E01E00C00
1E01E00800
1E01E01800
1C03E01000
1C07E02000
1C05E06000
1C0DE04000
1C19C08000
3C11C18000
3C31C10000
3C21C30000
3C43C60000
38C3C40000
3883CC0000
3983D80000
3B03D00000
3A03B00000
7E03E00000
7C03C00000
7803C00000
7807800000
7007000000
6007000000
6006000000
4004000000
0004000000
ENDCHAR
STARTCHAR 0175
ENCODING 373
SWIDTH 672 0
DWIDTH 28 0
BBX 27 28 1 0
BITMAP
00007800
0000F800
0001D800
00031800
00040C00
00080400
00000000
00000000
00000000
00000000
3C0181C0
FC0181E0
1C0380E0
0E078040
0E078040
0E0B80C0
0E0B8080
0E138100
0E338100
0E238200
0E418400
0EC1C400
0E81C800
0781D000
0701E000
0601E000
0601C000
04018000
ENDCHAR
STARTCHAR 0176
ENCODING 374
SWIDTH 552 0
DWIDTH 23 0
BBX 24 36 4 0
BITMAP
0003C0
0007C0
000FC0
0018C0
003040
004020
000000
000000
7FE1FF
3F807C
0F0030
0F0060
0F0060
0700C0
078180
078100
038300
038600
03C400
01CC00
01D800
01F000
01E000
01E000
01E000
01C000
03C000
03C000
038000
078000
078000
070000
0F0000
0F0000
1F0000
FFF000
ENDCHAR
STARTCHAR 0177
ENCODING 375
SWIDTH 456 0
DWIDTH 19 0
BBX 21 37 -3 -9
BITMAP
0000F0
0001F0
000370
000630
000810
001008
002000
000000
000000
000000
03C038
0FE078
01E038
00E018
00E008
00E010
00E010
00E020
00E060
00E040
007080
007180
007100
007200
007400
007C00
007800
007000
006000
004000
008000
018000
030000
460000
EC0000
F80000
E00000
ENDCHAR
STARTCHAR 0178
ENCODING 376
SWIDTH 552 0
DWIDTH 23 0
BBX 24 35 4 0
BITMAP
0060C0
00F1E0
00F1E0
00F1E0
000000
000000
000000
7FE1FF
3F807C
0F0030
0F0060
0F0060
0700C0
078180
078100
038300
038600
03C400
01CC00
01D800
01F000
01E000
01E000
01E000
01C000
03C000
03C000
038000
078000
078000
070000
0F0000
0F0000
1F0000
FFF000
ENDCHAR
STARTCHAR 0179
ENCODING 377
SWIDTH 552 0
DWIDTH 23 0
BBX 25 37 0 0
BITMAP
0000F800
0000F000
0000E000
0001C000
00018000
00018000
00010000
00000000
00000000
03FFFF80
03FFFF80
03800F00
06001F00
04003E00
08003C00
08007800
0000F000
0001F000
0003E000
0007C000
00078000
000F0000
001F0000
003E0000
007C0000
00780000
00F00000
01F00000
03E00000
07C00000
07800400
0F000400
1F000800
3E001800
7C007800
7807F000
FFFFF000
ENDCHAR
STARTCHAR 017A
ENCODING 378
SWIDTH 384 0
DWIDTH 16 0
BBX 17 29 -1 0
BITMAP
000F80
000F00
000E00
001C00
001800
001800
003000
000000
000000
000000
000000
0FFF80
0FFF80
0FFF00
180600
100C00
001800
003000
006000
00C000
018000
030000
020000
040200
080200
100400
3FFC00
7FFC00
FFF800
ENDCHAR
STARTCHAR 017B
ENCODING 379
SWIDTH 552 0
DWIDTH 23 0
BBX 25 35 0 0
BITMAP
0000C000
0001E000
0003E000
0001C000
00008000
00000000
00000000
03FFFF80
03FFFF80
03800F00
06001F00
04003E00
08003C00
08007800
0000F000
0001F000
0003E000
0007C000
00078000
000F0000
001F0000
003E0000
007C0000
00780000
00F00000
01F00000
03E00000
07C00000
07800400
0F000400
1F000800
3E001800
7C007800
7807F000
FFFFF000
ENDCHAR
STARTCHAR 017C
ENCODING 380
SWIDTH 384 0
DWIDTH 16 0
BBX 17 27 -1 0
BITMAP
003C00
003C00
003C00
003800
000000
000000
000000
000000
000000
0FFF80
0FFF80
0FFF00
180600
100C00
001800
003000
006000
00C000
018000
030000
020000
040200
080200
100400
3FFC00
7FFC00
FFF800
ENDCHAR
STARTCHAR 017D
ENCODING 381
SWIDTH 552 0
DWIDTH 23 0
BBX 25 36 0 0
BITMAP
00080000
000C0C00
00063800
00067000
0007E000
0007C000
00000000
00000000
03FFFF80
03FFFF80
03800F00
06001F00
04003E00
08003C00
08007800
0000F000
0001F000
0003E000
0007C000
00078000
000F0000
001F0000
003E0000
007C0000
00780000
00F00000
01F00000
03E00000
07C00000
07800400
0F000400
1F000800
3E001800
7C007800
7807F000
FFFFF000
ENDCHAR
STARTCHAR 017E
ENCODING 382
SWIDTH 384 0
DWIDTH 16 0
BBX 18 28 -1 0
BITMAP
0100C0
008100
00C600
00EC00
00FC00
007800
000000
000000
000000
000000
0FFF80
0FFF80
0FFF00
180600
100C00
001800
003000
006000
00C000
018000
030000
020000
040200
080200
100400
3FFC00
7FFC00
FFF800
ENDCHAR
STARTCHAR 017F
ENCODING 383
SWIDTH 288 0
DWIDTH 12 0
BBX 27 38 -7 -9
BITMAP
00000780
000018C0
000030E0
000060C0
0000E000
0000C000
0001C000
00018000
00038000
00038000
00078000
00070000
00070000
00070000
000F0000
000E0000
000E0000
000E0000
001E0000
001C0000
001C0000
001C0000
003C0000
00380000
00380000
00380000
00700000
00700000
00700000
00600000
00E00000
00C00000
00C00000
01800000
41000000
E3000000
C4000000
78000000
ENDCHAR
STARTCHAR 018F
ENCODING 399
SWIDTH 696 0
DWIDTH 29 0
BBX 27 29 2 -1
BITMAP
010FF000
03F07C00
03C01F00
03800F00
03000780
060003C0
040003C0
040003C0
000003E0
000003E0
000001E0
000001E0
000003E0
7FFFFFE0
7FFFFFE0
780003C0
780003C0
780003C0
F8000780
F8000780
78000F00
78000F00
78001E00
38003C00
3C007800
1E00F000
0F03E000
07FF8000
00780000
ENDCHAR
STARTCHAR 0192
ENCODING 402
SWIDTH 504 0
DWIDTH 21 0
BBX 20 37 0 -9
BITMAP
0001F0
000330
000630
000600
000E00
000E00
000E00
001C00
001C00
003C00
01FFC0
01FF80
003C00
003800
003800
007800
007800
007000
007000
00F000
00F000
00E000
00E000
00E000
01E000
01C000
01C000
01C000
018000
038000
038000
030000
030000
E60000
E60000
FC0000
700000
ENDCHAR
STARTCHAR 01A0
ENCODING 416
SWIDTH 720 0
DWIDTH 30 0
BBX 32 30 2 -1
BITMAP
00000006
0003FC0F
000E0F0F
00380387
007003E6
01E001F8
03C001E0
078000F0
078000F0
0F0000F0
1E0000F0
1E0000F0
3E0000F0
3C0001F0
7C0001E0
7C0001E0
780003E0
780003C0
780003C0
78000780
F8000780
78000F00
78001F00
78001E00
38003C00
3C007800
1E00E000
0F03C000
07FF0000
00700000
ENDCHAR
STARTCHAR 01A1
ENCODING 417
SWIDTH 528 0
DWIDTH 22 0
BBX 23 19 1 1
BITMAP
00001E
00FE1E
03838E
0703CC
0E01F8
1C01C0
3C01C0
3801C0
7801C0
7003C0
7003C0
F00380
F00780
F00700
F00F00
700E00
701C00
383800
1FE000
ENDCHAR
STARTCHAR 01AF
ENCODING 431
SWIDTH 744 0
DWIDTH 31 0
BBX 34 33 4 -1
BITMAP
0000000380
00000003C0
00000003C0
0000000180
7FF807FF00
0FC001E000
078000C000
078000C000
0700008000
0F00008000
0F00018000
0E00018000
1E00010000
1E00030000
1C00030000
1C00020000
3C00020000
3C00060000
3800060000
7800040000
78000C0000
70000C0000
7000080000
7000180000
F000180000
F000300000
7000300000
7800600000
7800C00000
3C01C00000
1F87000000
07FE000000
00E0000000
ENDCHAR
STARTCHAR 01B0
ENCODING 432
SWIDTH 552 0
DWIDTH 23 0
BBX 23 18 1 0
BITMAP
1E01CE
3F01DE
4E01CE
CE01C6
0E03FC
1E0380
1C0780
1C0700
1C0F00
3C0F00
381700
382E00
382E00
704E00
708C40
711C80
7E1F00
7C1E00
ENDCHAR
STARTCHAR 01CD
ENCODING 461
SWIDTH 600 0
DWIDTH 25 0
BBX 31 37 -2 0
BITMAP
00000802
00000804
00000418
00000630
000007E0
000007C0
00000780
00000000
00000000
00000200
00000600
00000600
00000E00
00001E00
00001E00
00003E00
00007E00
0000DE00
00009E00
00019C00
00031C00
00061C00
00041C00
000C1C00
00181C00
00303C00
003FFC00
007FFC00
00C03C00
00803C00
01003800
03003800
06003800
04003800
0C007800
3C007C00
FF03FF80
ENDCHAR
STARTCHAR 01CE
ENCODING 462
SWIDTH 504 0
DWIDTH 21 0
BBX 20 28 1 0
BITMAP
002010
002060
0030C0
003B80
001F00
001E00
000000
000000
000000
000000
00FDC0
0185C0
0703C0
0E0380
0C0380
1C0380
380380
380700
700700
700700
F00E00
E01E00
E01E00
E03E00
E05C40
F09C80
7F1F00
7E1E00
ENDCHAR
STARTCHAR 01CF
ENCODING 463
SWIDTH 336 0
DWIDTH 14 0
BBX 21 37 -1 0
BITMAP
002000
001018
001060
0018C0
001F80
001F00
000E00
000000
000000
01FFC0
003F00
003E00
003C00
003C00
003800
003800
007800
007800
007000
00F000
00F000
00E000
00E000
01E000
01E000
01C000
03C000
03C000
038000
038000
078000
078000
070000
0F0000
0F0000
1F0000
FFE000
ENDCHAR
STARTCHAR 01D0
ENCODING 464
SWIDTH 288 0
DWIDTH 12 0
BBX 14 28 2 0
BITMAP
1004
0818
0C30
0EE0
07C0
0780
0000
0000
0000
0000
3E00
5E00
0E00
1C00
1C00
1C00
1C00
3800
3800
3800
7000
7000
7000
7000
E200
E400
F800
F000
ENDCHAR
STARTCHAR 01D1
ENCODING 465
SWIDTH 720 0
DWIDTH 30 0
BBX 28 38 2 -1
BITMAP
00008020
00008040
00004180
00006300
00007E00
00007C00
00007800
00000000
00000000
0003FE00
000E0F00
00380380
007003C0
01E001E0
03C001E0
078000F0
078000F0
0F0000F0
1E0000F0
1E0000F0
3E0000F0
3C0001F0
7C0001E0
7C0001E0
780003E0
780003C0
780003C0
78000780
F8000780
78000F00
78001F00
78001E00
78003C00
3C007800
1E00E000
0F03C000
07FF0000
00700000
ENDCHAR
STARTCHAR 01D2
ENCODING 466
SWIDTH 504 0
DWIDTH 21 0
BBX 20 28 1 0
BITMAP
002010
003060
0030C0
001B80
001F00
001E00
000000
000000
000000
000000
00FF00
038380
070180
0E01C0
1C01C0
3C01C0
3801C0
7801C0
7003C0
7003C0
F00380
F00780
F00700
F00F00
700E00
701C00
383800
1FE000
ENDCHAR
STARTCHAR 01D3
ENCODING 467
SWIDTH 720 0
DWIDTH 30 0
BBX 30 38 4 -1
BITMAP
00040100
00040200
00020C00
00031800
0003F000
0003E000
0003C000
00000000
00000000
7FF807FC
0FC001E0
078000C0
078000C0
07000080
0F000080
0F000180
0E000180
1E000100
1E000300
1C000300
1C000200
3C000200
3C000600
38000600
78000400
78000C00
70000C00
70000800
70001800
F0001800
F0001000
70003000
78006000
7800C000
3C01C000
1F870000
07FE0000
00E00000
ENDCHAR
STARTCHAR 01D4
ENCODING 468
SWIDTH 504 0
DWIDTH 21 0
BBX 19 28 1 0
BITMAP
004020
0060C0
006180
003700
003E00
003C00
000000
000000
000000
000000
1E01C0
3F01C0
4E01C0
CE01C0
0E0380
1E0380
1C0780
1C0700
1C0F00
3C0F00
381700
382E00
382E00
704E00
708C40
711C80
7E1F00
7C1E00
ENDCHAR
STARTCHAR 01D5
ENCODING 469
SWIDTH 720 0
DWIDTH 30 0
BBX 30 38 4 -1
BITMAP
0003FF00
0007FF00
00000000
00000000
00061800
000F1C00
000E1C00
00040800
00000000
7FF807FC
0FC001E0
078000C0
078000C0
07000080
0F000080
0F000180
0E000180
1E000100
1E000300
1C000300
1C000200
3C000200
3C000600
38000600
78000400
78000C00
70000C00
70000800
70001800
F0001800
F0001000
70003000
78006000
7800C000
3C01C000
1F870000
07FE0000
00E00000
ENDCHAR
STARTCHAR 01D6
ENCODING 470
SWIDTH 504 0
DWIDTH 21 0
BBX 20 31 1 0
BITMAP
00FFF0
00FFF0
000000
000000
000000
00C180
01E3C0
01E3C0
01E3C0
000080
000000
000000
000000
1E01C0
3F01C0
4E01C0
CE01C0
0E0380
1E0380
1C0780
1C0700
1C0F00
3C0F00
381700
382E00
382E00
704E00
708C40
711C80
7E1F00
7C1E00
ENDCHAR
STARTCHAR 01D7
ENCODING 471
SWIDTH 720 0
DWIDTH 30 0
BBX 30 38 4 -1
BITMAP
00007800
00006000
00004000
00000000
00061800
000F1C00
000E1C00
00040800
00000000
7FF807FC
0FC001E0
078000C0
078000C0
07000080
0F000080
0F000180
0E000180
1E000100
1E000300
1C000300
1C000200
3C000200
3C000600
38000600
78000400
78000C00
70000C00
70000800
70001800
F0001800
F0001000
70003000
78006000
7800C000
3C01C000
1F870000
07FE0000
00E00000
ENDCHAR
STARTCHAR 01D8
ENCODING 472
SWIDTH 504 0
DWIDTH 21 0
BBX 18 34 1 0
BITMAP
0003C0
000380
000780
000700
000600
000400
000800
000000
00C180
01E3C0
01E3C0
01E3C0
000080
000000
000000
000000
1E01C0
3F01C0
4E01C0
CE01C0
0E0380
1E0380
1C0780
1C0700
1C0F00
3C0F00
381700
382E00
382E00
704E00
708C40
711C80
7E1F00
7C1E00
ENDCHAR
STARTCHAR 01D9
ENCODING 473
SWIDTH 720 0
DWIDTH 30 0
BBX 30 38 4 -1
BITMAP
00010600
0001D800
0000F000
00000000
00061800
000F1C00
000E1C00
00040800
00000000
7FF807FC
0FC001E0
078000C0
078000C0
07000080
0F000080
0F000180
0E000180
1E000100
1E000300
1C000300
1C000200
3C000200
3C000600
38000600
78000400
78000C00
70000C00
70000800
70001800
F0001800
F0001000
70003000
78006000
7800C000
3C01C000
1F870000
07FE0000
00E00000
ENDCHAR
STARTCHAR 01DA
ENCODING 474
SWIDTH 504 0
DWIDTH 21 0
BBX 21 34 1 0
BITMAP
002008
002030
003060
0019C0
001F80
001F00
001E00
000000
00C180
01E3C0
01E3C0
01E3C0
000080
000000
000000
000000
1E01C0
3F01C0
4E01C0
CE01C0
0E0380
1E0380
1C0780
1C0700
1C0F00
3C0F00
381700
382E00
382E00
704E00
708C40
711C80
7E1F00
7C1E00
ENDCHAR
STARTCHAR 01DB
ENCODING 475
SWIDTH 720 0
DWIDTH 30 0
BBX 30 38 4 -1
BITMAP
0001E000
0000E000
00002000
00000000
00061800
000F1C00
000E1C00
00040800
00000000
7FF807FC
0FC001E0
078000C0
078000C0
07000080
0F000080
0F000180
0E000180
1E000100
1E000300
1C000300
1C000200
3C000200
3C000600
38000600
78000400
78000C00
70000C00
70000800
70001800
F0001800
F0001000
70003000
78006000
7800C000
3C01C000
1F870000
07FE0000
00E00000
ENDCHAR
STARTCHAR 01DC
ENCODING 476
SWIDTH 504 0
DWIDTH 21 0
BBX 18 34 1 0
BITMAP
007800
003800
001C00
000C00
000C00
000600
000200
000000
00C180
01E3C0
01E3C0
01E3C0
000080
000000
000000
000000
1E01C0
3F01C0
4E01C0
CE01C0
0E0380
1E0380
1C0780
1C0700
1C0F00
3C0F00
381700
382E00
382E00
704E00
708C40
711C80
7E1F00
7C1E00
ENDCHAR
STARTCHAR 01FA
ENCODING 506
SWIDTH 600 0
DWIDTH 25 0
BBX 30 43 -2 0
BITMAP
0000003C
00000078
00000078
00000070
00000060
000000C0
00000080
00000000
00000780
00000CE0
00000820
00000820
00000820
00000C60
000007C0
00000300
00000600
00000600
00000E00
00001E00
00001E00
00003E00
00007E00
0000DE00
00009E00
00019C00
00031C00
00061C00
00041C00
000C1C00
00181C00
00303C00
003FFC00
007FFC00
00C03C00
00803C00
01003800
03003800
06003800
04003800
0C007800
3C007C00
FF03FF80
ENDCHAR
STARTCHAR 01FB
ENCODING 507
SWIDTH 504 0
DWIDTH 21 0
BBX 20 37 1 0
BITMAP
0000F0
0001E0
0001C0
000180
000300
000300
000200
000000
000F00
001980
0030C0
003040
003040
0010C0
001F80
000600
000000
000000
000000
00FDC0
0185C0
0703C0
0E0380
0C0380
1C0380
380380
380700
700700
700700
F00E00
E01E00
E01E00
E03E00
E05C40
F09C80
7F1F00
7E1E00
ENDCHAR
STARTCHAR 01FC
ENCODING 508
SWIDTH 888 0
DWIDTH 37 0
BBX 40 36 -2 0
BITMAP
0000000780
0000000700
0000000E00
0000000C00
0000000C00
0000001800
0000001000
0000000000
00000FFFFF
000007FFFF
000003F00E
000006E006
00000CE006
000009E002
000019E004
000031C000
000063C000
0000C3C040
0000838080
0001038180
0003078780
000607FF00
000C070700
00080F0300
00100F0200
003FFE0200
00600E0200
00C01E0000
00801E0000
01001C0010
03003C0030
06003C0060
0C003800E0
1C007801E0
3C00FE3FC0
FF03FFFFC0
ENDCHAR
STARTCHAR 01FD
ENCODING 509
SWIDTH 672 0
DWIDTH 28 0
BBX 26 29 1 0
BITMAP
00007C00
00007800
0000F000
0000E000
0000C000
00018000
00010000
00000000
00000000
00000000
00000000
00F9DF80
0185A1C0
0707C0C0
0E0781C0
0C0781C0
1C070380
38070700
38070E00
700E3800
700FC000
F01E0000
E01E0000
E02E0000
E06E0080
E0CE0100
F18F0600
FF07FC00
7E03F000
ENDCHAR
STARTCHAR 01FE
ENCODING 510
SWIDTH 720 0
DWIDTH 30 0
BBX 30 37 1 -1
BITMAP
00000F00
00001E00
00001C00
00001800
00001000
00003000
00002000
00000008
0001FE1C
000707B8
001C01F0
003800E0
00F000F0
01E001F0
03C00378
03C00678
07800C78
0F001878
0F003078
1F006078
1E00C0F8
1E0180F0
3E0300F0
3C0601F0
3C0C01E0
3C1801E0
3C3003C0
3C6003C0
3CC00780
3D800F00
3F000F00
1E001E00
1E003C00
1F007000
3F81E000
73FF8000
E0780000
ENDCHAR
STARTCHAR 01FF
ENCODING 511
SWIDTH 504 0
DWIDTH 21 0
BBX 20 30 0 -1
BITMAP
0003C0
0003C0
000780
000700
000600
000C00
000800
000000
000000
000010
000030
007F20
01C1C0
0380C0
0701E0
0E02E0
1E04E0
1C08E0
3C10E0
3831E0
3861E0
78C1C0
7983C0
7B0380
7E0780
3C0700
380E00
3C1C00
6FF000
C00000
ENDCHAR
STARTCHAR 0218
ENCODING 536
SWIDTH 504 0
DWIDTH 21 0
BBX 22 37 0 -9
BITMAP
003F84
00F9FC
01E03C
01C01C
038018
038008
038008
03C008
03C008
03E000
01F000
00F800
00FC00
007E00
003F00
001F80
000FC0
0007C0
0003E0
2003E0
2001E0
2001E0
2001C0
7001C0
7003C0
780380
7E0F00
47FE00
80E000
000000
01E000
01E000
00E000
00E000
00C000
018000
060000
ENDCHAR
STARTCHAR 0219
ENCODING 537
SWIDTH 384 0
DWIDTH 16 0
BBX 15 27 0 -9
BITMAP
03FE
060E
0E0E
0E04
0E04
0F04
0F80
07C0
03C0
01E0
01F0
00F0
4070
4070
C070
C070
E060
FFC0
0000
0000
0E00
1F00
0E00
0600
0400
1800
2000
ENDCHAR
STARTCHAR 021A
ENCODING 538
SWIDTH 552 0
DWIDTH 23 0
BBX 24 37 3 -9
BITMAP
1FFFFF
1FFFFF
1C1E0E
301C06
201C06
203C06
403804
403804
007800
007800
007000
00F000
00F000
00E000
00E000
01E000
01E000
01C000
03C000
03C000
038000
038000
078000
078000
070000
0F0000
1F8000
FFF000
000000
000000
1E0000
1E0000
1E0000
0C0000
0C0000
180000
600000
ENDCHAR
STARTCHAR 021B
ENCODING 539
SWIDTH 288 0
DWIDTH 12 0
BBX 13 32 -1 -9
BITMAP
0030
0020
0060
00E0
01C0
0FF8
01C0
03C0
0380
0380
0380
0700
0700
0700
0F00
0E00
0E00
0E00
1C00
1C40
1C80
1D00
1E00
0000
0000
3C00
3C00
3C00
1C00
1800
3000
C000
ENDCHAR
STARTCHAR 0259
ENCODING 601
SWIDTH 456 0
DWIDTH 19 0
BBX 16 18 1 0
BITMAP
03FC
07FE
181E
200F
400F
0007
0007
0007
00FF
078E
1C0E
381C
701C
E038
E030
C060
E0C0
FF00
ENDCHAR
STARTCHAR 02C6
ENCODING 710
SWIDTH 336 0
DWIDTH 14 0
BBX 10 6 6 22
BITMAP
0780
0F80
1D80
3180
40C0
8040
ENDCHAR
STARTCHAR 02C7
ENCODING 711
SWIDTH 336 0
DWIDTH 14 0
BBX 10 6 7 22
BITMAP
8040
C080
6300
6E00
7C00
7800
ENDCHAR
STARTCHAR 02C9
ENCODING 713
SWIDTH 336 0
DWIDTH 14 0
BBX 13 2 5 25
BITMAP
FFF8
FFF0
ENDCHAR
STARTCHAR 02D8
ENCODING 728
SWIDTH 336 0
DWIDTH 14 0
BBX 12 6 6 23
BITMAP
8010
8020
C0C0
FFC0
7F80
3E00
ENDCHAR
STARTCHAR 02D9
ENCODING 729
SWIDTH 336 0
DWIDTH 14 0
BBX 4 4 9 23
BITMAP
70
F0
F0
70
ENDCHAR
STARTCHAR 02DA
ENCODING 730
SWIDTH 336 0
DWIDTH 14 0
BBX 7 8 8 21
BITMAP
38
6E
C2
82
82
C2
7C
38
ENDCHAR
STARTCHAR 02DB
ENCODING 731
SWIDTH 336 0
DWIDTH 14 0
BBX 9 8 2 -8
BITMAP
4000
C000
C000
C000
E000
F080
7F00
1800
ENDCHAR
STARTCHAR 02DC
ENCODING 732
SWIDTH 336 0
DWIDTH 14 0
BBX 13 6 4 22
BITMAP
1808
7E08
7F88
8FF0
83F0
8040
ENDCHAR
STARTCHAR 02DD
ENCODING 733
SWIDTH 336 0
DWIDTH 14 0
BBX 13 7 6 22
BITMAP
3EF8
3CF0
38E0
71C0
6180
6100
C200
ENDCHAR
STARTCHAR 0300
ENCODING 768
SWIDTH 0 0
DWIDTH 0 0
BBX 6 7 -4 30
BITMAP
F0
70
38
38
18
0C
04
ENDCHAR
STARTCHAR 0301
ENCODING 769
SWIDTH 0 0
DWIDTH 0 0
BBX 6 7 -2 30
BITMAP
3C
38
70
70
60
C0
80
ENDCHAR
STARTCHAR 0303
ENCODING 771
SWIDTH 0 0
DWIDTH 0 0
BBX 13 6 -11 30
BITMAP
0800
3E08
7F88
4FF8
83F0
80E0
ENDCHAR
STARTCHAR 0309
ENCODING 777
SWIDTH 0 0
DWIDTH 0 0
BBX 5 6 -2 30
BITMAP
78
88
98
10
20
40
ENDCHAR
STARTCHAR 0323
ENCODING 803
SWIDTH 0 0
DWIDTH 0 0
BBX 4 3 -19 -6
BITMAP
F0
F0
F0
ENDCHAR
STARTCHAR 037E
ENCODING 894
SWIDTH 336 0
DWIDTH 14 0
BBX 10 23 1 -5
BITMAP
03C0
03C0
03C0
0180
0000
0000
0000
0000
0000
0000
0000
0000
0000
0000
1000
3800
3C00
3C00
1800
1800
3000
6000
8000
ENDCHAR
STARTCHAR 0384
ENCODING 900
SWIDTH 336 0
DWIDTH 14 0
BBX 6 7 9 22
BITMAP
7C
78
70
60
E0
C0
80
ENDCHAR
STARTCHAR 0385
ENCODING 901
SWIDTH 336 0
DWIDTH 14 0
BBX 14 7 4 22
BITMAP
01E0
01E0
03C0
6398
F33C
F63C
F43C
ENDCHAR
STARTCHAR 0386
ENCODING 902
SWIDTH 600 0
DWIDTH 25 0
BBX 25 29 -2 0
BITMAP
00078000
000F0200
000E0600
000E0600
001C0E00
00181E00
00101E00
00003E00
00007E00
0000DE00
00009E00
00019C00
00031C00
00061C00
00041C00
000C1C00
00181C00
00303C00
003FFC00
007FFC00
00C03C00
00803C00
01003800
03003800
06003800
04003800
0C007800
1C007C00
FF03FF80
ENDCHAR
STARTCHAR 0387
ENCODING 903
SWIDTH 336 0
DWIDTH 14 0
BBX 4 4 7 14
BITMAP
F0
F0
F0
60
ENDCHAR
STARTCHAR 0388
ENCODING 904
SWIDTH 672 0
DWIDTH 28 0
BBX 27 29 2 0
BITMAP
3E000000
3DFFFFE0
787FFFE0
703C01E0
603C00C0
C03C0040
80380040
00780040
00780000
00700000
00701000
00F01000
00F03000
00E0F000
01FFE000
01E0E000
01C06000
01C04000
03C04000
03C04000
03800000
07800100
07800200
07000200
07000600
0F000C00
0F003C00
1F83FC00
FFFFF800
ENDCHAR
STARTCHAR 0389
ENCODING 905
SWIDTH 792 0
DWIDTH 33 0
BBX 35 29 2 0
BITMAP
3E00000000
3DFFC0FFE0
787F003F00
703E001E00
603C001C00
C03C003C00
8038003C00
0078003800
0078007800
0070007800
0070007800
00F0007000
00F000F000
00E000F000
01FFFFE000
01E000E000
01C001E000
03C001C000
03C001C000
03C003C000
038003C000
0780038000
0780078000
0700078000
0F00070000
0F00070000
0F000F0000
1F001F0000
FFE0FFE000
ENDCHAR
STARTCHAR 038A
ENCODING 906
SWIDTH 408 0
DWIDTH 17 0
BBX 18 29 2 0
BITMAP
3E0000
3DFFC0
787F00
703C00
603C00
C03C00
803800
007800
007800
007000
007000
00F000
00F000
00E000
01E000
01E000
01C000
01C000
03C000
03C000
038000
078000
078000
070000
070000
0F0000
0F0000
1F0000
FFE000
ENDCHAR
STARTCHAR 038C
ENCODING 908
SWIDTH 720 0
DWIDTH 30 0
BBX 28 30 2 -1
BITMAP
1F000000
1E03FE00
3C0E0F00
38380380
307003C0
21E001E0
43C001E0
038000F0
078000F0
0F0000F0
1E0000F0
1E0000F0
3E0000F0
3C0001F0
7C0001E0
780001E0
780003E0
780003C0
780003C0
F8000780
F8000780
78000F00
78000F00
78001E00
38003C00
3C007800
1E00E000
0F03C000
07FF0000
00F00000
ENDCHAR
STARTCHAR 038E
ENCODING 910
SWIDTH 672 0
DWIDTH 28 0
BBX 30 29 2 0
BITMAP
3E000000
3DFF87FC
787E00F0
703C00E0
603C00C0
C01C0180
801E0100
001E0300
000E0600
000E0C00
000F0800
00071800
00073000
0007E000
0007C000
0003C000
00038000
00078000
00078000
00070000
000F0000
000F0000
000E0000
001E0000
001E0000
001E0000
003C0000
003E0000
03FFC000
ENDCHAR
STARTCHAR 038F
ENCODING 911
SWIDTH 720 0
DWIDTH 30 0
BBX 29 29 1 0
BITMAP
1F000000
1E03FF00
3C1F07C0
383C01E0
30F000F0
61E000F0
43C00078
03C00078
07800078
0F800078
0F000078
0F000078
1F000078
1E0000F8
1E0000F0
1E0000F0
1E0001F0
1E0001E0
0E0003C0
0F000780
07800F00
03C01E00
40F1F840
40218040
40210080
70230380
FFE3FF80
FFC3FF00
FFC7FF00
ENDCHAR
STARTCHAR 0390
ENCODING 912
SWIDTH 288 0
DWIDTH 12 0
BBX 14 29 2 0
BITMAP
01E0
01E0
03C0
6398
F33C
F63C
F43C
0000
0000
0000
0000
3E00
DE00
0E00
1C00
1C00
1C00
3C00
3800
3800
3800
7000
7000
7000
F000
E200
E400
F800
F000
ENDCHAR
STARTCHAR 0391
ENCODING 913
SWIDTH 600 0
DWIDTH 25 0
BBX 25 28 -2 0
BITMAP
00000200
00000600
00000600
00000E00
00001E00
00001E00
00003E00
00007E00
0000DE00
00009E00
00019C00
00031C00
00061C00
00041C00
000C1C00
00181C00
00303C00
003FFC00
007FFC00
00C03C00
00803C00
01003800
03003800
06003800
04003800
0C007800
3C007C00
FF03FF80
ENDCHAR
STARTCHAR 0392
ENCODING 914
SWIDTH 600 0
DWIDTH 25 0
BBX 26 28 -1 0
BITMAP
01FFC000
007FFC00
003C0F00
003C0780
003C0780
003803C0
003803C0
007807C0
00780780
00700780
00F00F00
00F01E00
00E1F800
00FFE000
01E1F000
01C07C00
01C03C00
03C01E00
03C01E00
03801E00
03801E00
07801E00
07003C00
07007C00
0F00F800
0E01F000
1FFFE000
FFFF0000
ENDCHAR
STARTCHAR 0393
ENCODING 915
SWIDTH 576 0
DWIDTH 24 0
BBX 29 28 -1 0
BITMAP
01FFFFF8
007FFFF0
003C0070
003C0030
003C0020
00380020
00380020
00780020
00780000
00700000
00F00000
00F00000
00E00000
00E00000
01E00000
01E00000
01C00000
03C00000
03C00000
03800000
07800000
07800000
07000000
07000000
0F000000
0F000000
1F000000
FFE00000
ENDCHAR
STARTCHAR 0394
ENCODING 916
SWIDTH 576 0
DWIDTH 24 0
BBX 22 28 -1 0
BITMAP
000004
00000C
00001C
00001C
00003C
00007C
0000FC
0001BC
00013C
00033C
000638
000C38
001838
001838
003038
006038
00C038
008038
018078
030078
060078
0C0078
080078
180078
300070
600070
C00070
FFFFF0
ENDCHAR
STARTCHAR 0395
ENCODING 917
SWIDTH 600 0
DWIDTH 25 0
BBX 27 28 -1 0
BITMAP
01FFFFE0
007FFFE0
003C01E0
003C00E0
003C0040
00380040
00380040
00780000
00780000
00700800
00F01000
00F01000
00E07000
00FFE000
01E0E000
01E06000
01C02000
03C04000
03C04000
03800000
03800100
07800100
07800200
07000600
0F000E00
0F003C00
1F83FC00
FFFFFC00
ENDCHAR
STARTCHAR 0396
ENCODING 918
SWIDTH 552 0
DWIDTH 23 0
BBX 25 28 0 0
BITMAP
03FFFF80
03FFFF80
03800F00
06001F00
04003E00
08003C00
08007800
0000F000
0001F000
0003E000
0007C000
00078000
000F0000
001F0000
003E0000
007C0000
00780000
00F00000
01F00000
03E00000
07C00000
07800400
0F000400
1F000800
3E001800
7C007800
7807F000
FFFFF000
ENDCHAR
STARTCHAR 0397
ENCODING 919
SWIDTH 720 0
DWIDTH 30 0
BBX 35 28 -1 0
BITMAP
01FFC0FFE0
003F003F00
003E001E00
003C001E00
003C003C00
0038003C00
0038003800
0078003800
0078007800
0070007800
00F0007000
00F000F000
00E000F000
01FFFFE000
01E000E000
01C001E000
01C001E000
03C001C000
03C003C000
038003C000
0780038000
0780038000
0700078000
0700078000
0F00070000
0F000F0000
1F001F8000
FFE07FE000
ENDCHAR
STARTCHAR 0398
ENCODING 920
SWIDTH 720 0
DWIDTH 30 0
BBX 27 29 3 -1
BITMAP
0007FC00
001C1E00
00700700
00E00380
03C003C0
078003C0
070001E0
0F0001E0
1E0001E0
3E0001E0
3C4021E0
7C4021E0
7870E3E0
78FFE3C0
F8FFC3C0
F0FFC3C0
F180C780
F1008780
F1008F00
F0000F00
F0001E00
F0001E00
F0003C00
70007800
7800F000
3C01C000
1E078000
0FFE0000
01E00000
ENDCHAR
STARTCHAR 0399
ENCODING 921
SWIDTH 336 0
DWIDTH 14 0
BBX 18 28 -1 0
BITMAP
01FFC0
003F00
003E00
003C00
003C00
003800
003800
007800
007800
007000
00F000
00F000
00E000
00E000
01E000
01E000
01C000
03C000
03C000
038000
038000
078000
078000
070000
0F0000
0F0000
1F0000
FFE000
ENDCHAR
STARTCHAR 039A
ENCODING 922
SWIDTH 672 0
DWIDTH 28 0
BBX 31 28 -1 0
BITMAP
01FFC3FE
007F01FC
003C00E0
003C01C0
003C0380
00380600
00780C00
00783800
00706000
0070C000
00F38000
00F60000
00EC0000
01FE0000
01EF0000
01CF0000
01C78000
03C3C000
03C3C000
0381E000
0780F000
0780F000
07007800
07003C00
0F003C00
0F003E00
1F003F00
FFE1FFE0
ENDCHAR
STARTCHAR 039B
ENCODING 923
SWIDTH 600 0
DWIDTH 25 0
BBX 25 28 -2 0
BITMAP
00000200
00000200
00000600
00000E00
00001E00
00001E00
00003E00
00007E00
0000DE00
00009E00
00019C00
00031C00
00061C00
00041C00
000C1C00
00183C00
00303C00
00203C00
00603C00
00C03C00
00803800
01003800
03003800
06003800
0E003800
1C007800
3C007C00
FF03FF80
ENDCHAR
STARTCHAR 039C
ENCODING 924
SWIDTH 840 0
DWIDTH 35 0
BBX 40 28 -1 0
BITMAP
01FC00007F
007C0000F8
001C0001F0
003E0001E0
003E0003E0
003E0007C0
003E000DC0
006E000BC0
004E001BC0
004E003380
00CE002780
00CE006780
008F00C700
018F018700
018F010F00
010F030F00
0107060E00
03070C1E00
03070C1E00
0207181C00
0607B01C00
0607A03C00
0407E03C00
0407C03800
0C07807800
0C03007800
1C0300F800
FF8207FF00
ENDCHAR
STARTCHAR 039D
ENCODING 925
SWIDTH 672 0
DWIDTH 28 0
BBX 33 29 -1 -1
BITMAP
03F800FF80
00F8003C00
003C001800
003C001800
003E003000
003E003000
006E003000
006F002000
0047006000
0047806000
00C7804000
00C380C000
0083C0C000
0183C0C000
0181E08000
0101E18000
0100E18000
0300F10000
0300F30000
0200730000
06007B0000
06003A0000
04003E0000
04003E0000
0C001C0000
0C001C0000
1C000C0000
FF800C0000
0000080000
ENDCHAR
STARTCHAR 039E
ENCODING 926
SWIDTH 648 0
DWIDTH 27 0
BBX 29 28 0 0
BITMAP
00FFFFF8
00FFFFF0
00FFFFF0
01FFFFF0
01000020
01000020
02000020
02000020
00000000
00000000
00400400
00400800
00701800
007FF800
00FFF800
00FFF000
00801000
01001000
01000000
00000000
20000100
40000200
40000200
40000600
78003C00
FFFFFC00
FFFFFC00
FFFFFC00
ENDCHAR
STARTCHAR 039F
ENCODING 927
SWIDTH 720 0
DWIDTH 30 0
BBX 28 29 2 -1
BITMAP
0003FE00
000E0F00
00380380
007003C0
01E001E0
03C001E0
078000F0
078000F0
0F0000F0
1E0000F0
1E0000F0
3E0000F0
3C0001F0
7C0001E0
7C0001E0
780003E0
780003C0
780003C0
78000780
F8000780
78000F00
78001F00
78001E00
78003C00
3C007800
1E00E000
0F03C000
07FF0000
00700000
ENDCHAR
STARTCHAR 03A0
ENCODING 928
SWIDTH 720 0
DWIDTH 30 0
BBX 35 28 -1 0
BITMAP
01FFFFFFE0
007FFFFF00
003C001E00
003C001E00
003C001C00
003C003C00
0038003C00
0078003800
0078007800
0070007800
00F0007000
00F000F000
00E000F000
00E000E000
01E000E000
01E001E000
01C001E000
03C001C000
03C003C000
038003C000
0780038000
0780078000
0780078000
0700078000
0F00070000
0F000F0000
1F801F8000
FFE0FFE000
ENDCHAR
STARTCHAR 03A1
ENCODING 929
SWIDTH 600 0
DWIDTH 25 0
BBX 27 28 -1 0
BITMAP
01FFE000
007FFF00
003C0780
003C03C0
003C01C0
003C01E0
003801E0
007801E0
007801E0
007003C0
007003C0
00F00780
00F00F00
00F03E00
01FFF000
01E00000
01C00000
03C00000
03C00000
03C00000
03800000
07800000
07800000
07000000
0F000000
0F000000
1F000000
FFE00000
ENDCHAR
STARTCHAR 03A3
ENCODING 931
SWIDTH 600 0
DWIDTH 25 0
BBX 28 28 -1 0
BITMAP
01FFFFF0
00FFFFF0
00F00070
00780030
00780010
003C0020
003C0000
001E0000
001E0000
000F0000
000F0000
00078000
00078000
00030000
00060000
000C0000
00180000
00300000
00600000
00C00000
01800200
03000200
06000600
0C000C00
3001FC00
7FFFFC00
FFFFF800
FFFFF800
ENDCHAR
STARTCHAR 03A4
ENCODING 932
SWIDTH 552 0
DWIDTH 23 0
BBX 24 28 3 0
BITMAP
1FFFFF
1FFFFF
1C1E0E
301C06
201C06
203C06
403804
403804
007800
007800
007000
00F000
00F000
00E000
00E000
01E000
01E000
01C000
03C000
03C000
038000
038000
078000
078000
070000
0F0000
1F8000
FFF000
ENDCHAR
STARTCHAR 03A5
ENCODING 933
SWIDTH 552 0
DWIDTH 23 0
BBX 24 28 4 0
BITMAP
7FE1FF
3F807C
0F0030
0F0060
0F0060
0700C0
078180
078100
038300
038600
03C400
01CC00
01D800
01F000
01E000
01E000
01E000
01C000
03C000
03C000
038000
078000
078000
070000
0F0000
0F0000
1F0000
FFF000
ENDCHAR
STARTCHAR 03A6
ENCODING 934
SWIDTH 768 0
DWIDTH 32 0
BBX 28 28 3 0
BITMAP
000FFF80
0003FC00
0001F000
0001E000
0001E000
001FF800
01FBCF00
0783C3C0
0F03C1E0
1E03C0E0
3C0780F0
780780F0
780780F0
F00F00F0
F00F00F0
F00F00F0
F01F01E0
F01E01E0
701E03C0
781E0780
3C3C0F00
1E3C3C00
07FFE000
007C0000
00780000
00780000
00FC0000
0FFF8000
ENDCHAR
STARTCHAR 03A7
ENCODING 935
SWIDTH 600 0
DWIDTH 25 0
BBX 34 28 -3 0
BITMAP
007FE0FFC0
001F803F00
000F001C00
0007003800
0007803000
0007806000
000780C000
0003818000
0003C30000
0003C60000
0001CC0000
0001D80000
0001F00000
0001E00000
0000E00000
0001F00000
0003F00000
0006700000
000C700000
0018780000
0030780000
0060380000
00C03C0000
01803C0000
03001C0000
06001E0000
1E003F0000
FFC0FFC000
ENDCHAR
STARTCHAR 03A8
ENCODING 936
SWIDTH 696 0
DWIDTH 29 0
BBX 28 28 6 0
BITMAP
C0FFE0F0
703F81C0
701E0380
781E0700
781C0F00
703C0F00
703C0F00
F0381E00
F0381E00
E0781E00
E0703C00
E0703C00
E0F07800
60F07000
70E0E000
38E7C000
0FFE0000
01C00000
01C00000
03C00000
03C00000
03800000
07800000
07800000
07000000
0F000000
1F800000
FFF00000
ENDCHAR
STARTCHAR 03A9
ENCODING 937
SWIDTH 720 0
DWIDTH 30 0
BBX 29 28 1 0
BITMAP
0003FE00
001F0780
003C01E0
00F000F0
01E000F0
03C00078
07C00078
07800078
0F800078
0F000078
1F000078
1E000078
1E0000F8
1E0000F0
1E0000F0
1E0001E0
1E0001E0
0E0003C0
0F000780
07800F00
03C03E00
41F1F840
40218080
40210080
60620380
FFC3FF00
FFC3FF00
FFC7FF00
ENDCHAR
STARTCHAR 03AA
ENCODING 938
SWIDTH 336 0
DWIDTH 14 0
BBX 20 35 -1 0
BITMAP
0060E0
00F1E0
00F1F0
00F0E0
000040
000000
000000
01FFC0
003F00
003E00
003C00
003C00
003800
003800
007800
007800
007000
00F000
00F000
00E000
00E000
01E000
01E000
01C000
03C000
03C000
038000
038000
078000
078000
070000
0F0000
0F0000
1F0000
FFE000
ENDCHAR
STARTCHAR 03AB
ENCODING 939
SWIDTH 552 0
DWIDTH 23 0
BBX 24 35 4 0
BITMAP
0060C0
00F1E0
00F1E0
00F1E0
000000
000000
000000
7FE1FF
3F807C
0F0030
0F0060
0F0060
0700C0
078180
078100
038300
038600
03C400
01CC00
01D800
01F000
01E000
01E000
01E000
01C000
03C000
03C000
038000
078000
078000
070000
0F0000
0F0000
1F0000
FFF000
ENDCHAR
STARTCHAR 03AC
ENCODING 940
SWIDTH 528 0
DWIDTH 22 0
BBX 20 29 1 0
BITMAP
0007C0
000780
000700
000E00
000C00
000800
001800
000000
000000
000000
000000
01F870
078CE0
0F04E0
1E07C0
1C03C0
3C0380
380380
780780
700700
F00F00
F00E00
F00F00
E01D00
E01D00
703910
7071B0
3061E0
1FC0E0
ENDCHAR
STARTCHAR 03AD
ENCODING 941
SWIDTH 384 0
DWIDTH 16 0
BBX 16 29 0 0
BITMAP
003E
003C
0038
0070
0060
0060
0040
0000
0000
0000
0000
03FC
0707
0E07
1C07
1C03
1C00
0C00
0600
07E0
1C00
3800
7000
7000
F01C
701C
703C
7838
1FE0
ENDCHAR
STARTCHAR 03AE
ENCODING 942
SWIDTH 504 0
DWIDTH 21 0
BBX 18 38 1 -9
BITMAP
0007C0
000780
000F00
000E00
000C00
001800
001000
000000
000000
000000
000000
0F07C0
1F0FC0
2711C0
4E21C0
0E43C0
0E8380
0E8380
1D0380
1E0700
1E0700
3C0700
3C0700
380E00
780E00
700E00
701E00
701C00
E01C00
001C00
003800
003800
003800
003800
003800
007800
007000
007800
ENDCHAR
STARTCHAR 03AF
ENCODING 943
SWIDTH 288 0
DWIDTH 12 0
BBX 12 29 2 0
BITMAP
01F0
01E0
01C0
0380
0300
0300
0200
0000
0000
0000
0000
3E00
5E00
0E00
1C00
1C00
1C00
1C00
3800
3800
3800
7000
7000
7000
7000
E200
E400
F800
F000
ENDCHAR
STARTCHAR 03B0
ENCODING 944
SWIDTH 456 0
DWIDTH 19 0
BBX 19 29 1 0
BITMAP
001F00
001E00
001C00
0718C0
0FB9E0
0FB1E0
0721E0
000000
000000
000000
000000
1E1C00
3F0600
4E0300
8E0300
0E0300
1E0380
1C0380
1C0380
1C0380
380300
380300
380700
780600
700E00
700C00
301800
383000
1FE000
ENDCHAR
STARTCHAR 03B1
ENCODING 945
SWIDTH 528 0
DWIDTH 22 0
BBX 20 18 1 0
BITMAP
01F870
078CE0
0F04E0
1E07C0
1C03C0
3C0380
380380
780780
700700
F00F00
F00E00
F00F00
E01D00
E01D00
703910
7071B0
3061E0
1FC0E0
ENDCHAR
STARTCHAR 03B2
ENCODING 946
SWIDTH 504 0
DWIDTH 21 0
BBX 24 38 -3 -9
BITMAP
0000F8
00038E
000606
000E07
001C07
001C07
003807
003807
00380E
00700E
00701C
007038
00F760
00E3E0
00E070
00E038
01C038
01C03C
01C03C
03803C
03803C
038038
078078
070078
070070
0700E0
0F01E0
0F83C0
0EFF00
1C0000
1C0000
1C0000
1C0000
380000
380000
700000
700000
F00000
ENDCHAR
STARTCHAR 03B3
ENCODING 947
SWIDTH 384 0
DWIDTH 16 0
BBX 15 27 1 -9
BITMAP
3C0E
7C1E
4C1E
860E
860E
060C
060C
020C
0218
0210
0230
0220
0240
02C0
0280
0300
0200
0600
0E00
0C00
1C00
1C00
3800
3800
7800
7000
6000
ENDCHAR
STARTCHAR 03B4
ENCODING 948
SWIDTH 456 0
DWIDTH 19 0
BBX 18 29 1 0
BITMAP
003F00
004780
00C3C0
0081C0
00C080
00C000
006000
007000
003800
001C00
001E00
000F00
007700
018780
070380
0E0380
1C0380
380380
780780
700780
F00700
F00700
E00F00
E00E00
E01C00
E01C00
603800
706000
3FC000
ENDCHAR
STARTCHAR 03B5
ENCODING 949
SWIDTH 384 0
DWIDTH 16 0
BBX 16 18 0 0
BITMAP
03FC
0707
0E07
1C07
1C03
1C00
0C00
0600
07E0
1C00
3800
7000
7000
F01C
701C
703C
7838
1FE0
ENDCHAR
STARTCHAR 03B6
ENCODING 950
SWIDTH 408 0
DWIDTH 17 0
BBX 21 36 1 -7
BITMAP
006000
018038
0181F8
0183F0
00FFC0
001000
002000
004000
018000
010000
020000
040000
0C0000
080000
100000
300000
200000
600000
600000
400000
C00000
C00000
C00000
C00000
E00000
F00000
7FE000
7FF000
3FF800
07F800
000800
000800
001000
07F000
07E000
030000
ENDCHAR
STARTCHAR 03B7
ENCODING 951
SWIDTH 504 0
DWIDTH 21 0
BBX 18 27 1 -9
BITMAP
0F07C0
1F0FC0
2711C0
4E21C0
0E43C0
0E8380
0E8380
1D0380
1E0700
1E0700
3C0700
3C0700
380E00
780E00
700E00
701E00
701C00
E01C00
001C00
003800
003800
003800
003800
003800
007800
007000
007800
ENDCHAR
STARTCHAR 03B8
ENCODING 952
SWIDTH 480 0
DWIDTH 20 0
BBX 19 29 2 0
BITMAP
001F00
007180
00C0C0
01C0E0
0380E0
0700E0
0700E0
0E00E0
0E00E0
1C00E0
1C00E0
3C01E0
3801E0
3801C0
7FFFC0
7003C0
7003C0
F00380
F00780
E00700
E00700
E00E00
E00E00
E01C00
E01C00
E03800
607000
306000
1F8000
ENDCHAR
STARTCHAR 03B9
ENCODING 953
SWIDTH 288 0
DWIDTH 12 0
BBX 7 18 2 0
BITMAP
3E
5E
0E
1C
1C
1C
1C
38
38
38
70
70
70
70
E2
E4
F8
F0
ENDCHAR
STARTCHAR 03BA
ENCODING 954
SWIDTH 480 0
DWIDTH 20 0
BBX 20 18 1 0
BITMAP
3F00E0
0F03F0
0E07E0
0E0C00
0E1800
1E3000
1CC000
1DC000
1FE000
3EE000
3CE000
38F000
707000
707040
7078C0
E03980
E03F00
E01E00
ENDCHAR
STARTCHAR 03BB
ENCODING 955
SWIDTH 432 0
DWIDTH 18 0
BBX 18 29 -1 0
BITMAP
003000
00F800
00D800
008800
010800
010800
000800
000800
000800
000800
000800
000800
001800
003800
003800
007800
00F800
00E800
01E800
03C800
038800
070800
0F0800
0E0800
1C0840
3C0840
780CC0
700F80
F00780
ENDCHAR
STARTCHAR 03BC
ENCODING 956
SWIDTH 504 0
DWIDTH 21 0
BBX 22 27 -2 -9
BITMAP
00E038
01C038
01C038
01C070
01C070
038070
038070
0380E0
0700E0
0700E0
0701C0
0F01C0
0E03C0
0E03C0
0E0584
1E0988
1F31F8
17E1F0
300040
300000
300000
700000
600000
E00000
E00000
E00000
E00000
ENDCHAR
STARTCHAR 03BD
ENCODING 957
SWIDTH 456 0
DWIDTH 19 0
BBX 17 18 1 0
BITMAP
7C0380
BE0380
1E0380
0E0180
0E0180
0E0100
0F0100
0F0200
070600
070400
070800
071000
073000
076000
07C000
078000
070000
060000
ENDCHAR
STARTCHAR 03BE
ENCODING 958
SWIDTH 432 0
DWIDTH 18 0
BBX 19 36 1 -7
BITMAP
004000
0080E0
0181E0
0187C0
007F00
001000
002000
004000
004000
008000
004FC0
007F80
019E00
020000
040000
180000
100000
200000
600000
400000
C00000
C00000
C00000
C00000
C00000
F00000
FFE000
7FF800
3FF800
00FC00
000C00
000400
000800
07F800
07F000
018000
ENDCHAR
STARTCHAR 03BF
ENCODING 959
SWIDTH 504 0
DWIDTH 21 0
BBX 18 18 1 0
BITMAP
00FF00
038380
070180
0E01C0
1C01C0
3C01C0
3801C0
7801C0
7003C0
7003C0
F00380
F00780
F00700
F00F00
700E00
701C00
383800
1FE000
ENDCHAR
STARTCHAR 03C0
ENCODING 960
SWIDTH 504 0
DWIDTH 21 0
BBX 21 18 1 0
BITMAP
0FFFF8
1FFFF8
3FFFF0
618600
810E00
030E00
030C00
021C00
061C00
061C00
0E3800
0C3800
1C3800
3C3840
783040
783880
F03F80
F03F00
ENDCHAR
STARTCHAR 03C1
ENCODING 961
SWIDTH 480 0
DWIDTH 20 0
BBX 21 27 -3 -9
BITMAP
000FE0
003870
007030
00E038
00E038
01C038
01C038
03C038
038038
038078
038070
070070
0700F0
0700E0
0E01E0
0E03C0
0F0700
0FFE00
1C0000
1C0000
1C0000
380000
380000
380000
700000
700000
E00000
ENDCHAR
STARTCHAR 03C2
ENCODING 962
SWIDTH 408 0
DWIDTH 17 0
BBX 17 25 1 -7
BITMAP
01FE00
073F00
0C0780
180380
100000
200000
600000
400000
400000
400000
C00000
C00000
C00000
E00000
7C0000
7FC000
3FF000
1FF000
00F000
001000
001000
001000
0FE000
0FC000
060000
ENDCHAR
STARTCHAR 03C3
ENCODING 963
SWIDTH 504 0
DWIDTH 21 0
BBX 21 18 1 0
BITMAP
003FF8
03FFF8
07FFF0
0F8400
1E0600
3C0700
380700
780700
700700
700700
F00700
E00F00
E00E00
E01E00
E01C00
603800
707000
3FE000
ENDCHAR
STARTCHAR 03C4
ENCODING 964
SWIDTH 360 0
DWIDTH 15 0
BBX 15 18 1 0
BITMAP
0FFE
3FFE
7FFE
4180
8380
0380
0300
0700
0700
0600
0E00
0E00
0C00
1C00
1C20
1E60
1FC0
0F80
ENDCHAR
STARTCHAR 03C5
ENCODING 965
SWIDTH 456 0
DWIDTH 19 0
BBX 17 18 1 0
BITMAP
1E1C00
3F0600
4E0300
8E0300
0E0300
1E0380
1C0380
1C0380
1C0380
380300
380300
380700
780600
700E00
700C00
301800
383000
1FE000
ENDCHAR
STARTCHAR 03C6
ENCODING 966
SWIDTH 552 0
DWIDTH 23 0
BBX 19 27 2 -9
BITMAP
0387C0
0E0FC0
1C18E0
3830E0
383060
703060
706060
F060E0
E060E0
E0C0E0
E0C0E0
E0C1C0
E1C1C0
E18380
E18300
E18600
731C00
3FF000
030000
060000
060000
060000
060000
0C0000
0C0000
0C0000
180000
ENDCHAR
STARTCHAR 03C7
ENCODING 967
SWIDTH 432 0
DWIDTH 18 0
BBX 23 27 -4 -9
BITMAP
00E01E
01E01C
02303C
023078
001070
0010E0
0011E0
0013C0
001380
001700
001F00
001E00
001C00
003800
007800
007800
00E800
01E800
03C800
038800
078C00
0F0400
0E0420
1C0420
3C0660
7803C0
F00380
ENDCHAR
STARTCHAR 03C8
ENCODING 968
SWIDTH 624 0
DWIDTH 26 0
BBX 24 27 3 -9
BITMAP
F0180F
70181C
38183C
383038
783078
783078
786070
7060F0
F060F0
F060E0
E0C1E0
E0C1C0
E0C1C0
E18380
E18380
618700
330E00
1F7800
038000
070000
060000
060000
060000
0C0000
0C0000
0C0000
180000
ENDCHAR
STARTCHAR 03C9
ENCODING 969
SWIDTH 696 0
DWIDTH 29 0
BBX 27 18 1 0
BITMAP
01F00E00
03800300
0F000180
0E0381C0
1C0781C0
3C0701C0
380F01E0
780F01E0
780E01C0
700E01C0
700C03C0
F00C03C0
F0080380
70080780
70180700
70240E00
38461C00
1F83F800
ENDCHAR
STARTCHAR 03CA
ENCODING 970
SWIDTH 288 0
DWIDTH 12 0
BBX 13 27 2 0
BITMAP
3C78
3C78
3C78
3838
0000
0000
0000
0000
0000
3E00
5E00
0E00
1C00
1C00
1C00
1C00
3800
3800
3800
7000
7000
7000
7000
E200
E400
F800
F000
ENDCHAR
STARTCHAR 03CB
ENCODING 971
SWIDTH 456 0
DWIDTH 19 0
BBX 17 27 1 0
BITMAP
070F00
078F00
078F00
070E00
000000
000000
000000
000000
000000
1E1C00
3F0600
4E0300
8E0300
0E0300
1E0380
1C0380
1C0380
1C0380
380300
380300
380700
780600
700E00
700C00
301800
383000
1FE000
ENDCHAR
STARTCHAR 03CC
ENCODING 972
SWIDTH 504 0
DWIDTH 21 0
BBX 18 29 1 0
BITMAP
000780
000780
000F00
000E00
000C00
001800
001000
000000
000000
000000
000000
00FF00
038380
070180
0E01C0
1C01C0
3C01C0
3801C0
7801C0
7003C0
7003C0
F00380
F00780
F00700
F00F00
700E00
701C00
383800
1FE000
ENDCHAR
STARTCHAR 03CD
ENCODING 973
SWIDTH 456 0
DWIDTH 19 0
BBX 17 29 1 0
BITMAP
003E00
003C00
003800
003000
007000
006000
004000
000000
000000
000000
000000
1E1C00
3F0600
4E0300
8E0300
0E0300
1E0380
1C0380
1C0380
1C0380
380300
380300
380700
780600
700E00
700C00
301800
383000
1FE000
ENDCHAR
STARTCHAR 03CE
ENCODING 974
SWIDTH 696 0
DWIDTH 29 0
BBX 27 29 1 0
BITMAP
00007C00
00007800
00007000
0000E000
0000C000
0000C000
00008000
00000000
00000000
00000000
00000000
01F00E00
03800300
0F000180
0E0381C0
1C0781C0
3C0701C0
380F01E0
780F01E0
780E01C0
700E01C0
700C03C0
F00C03C0
F0080380
70080780
70180700
70240E00
38461C00
1F83F800
ENDCHAR
STARTCHAR 0401
ENCODING 1025
SWIDTH 600 0
DWIDTH 25 0
BBX 27 35 -1 0
BITMAP
0001E3C0
0001E3C0
0001E3C0
0000C180
00000000
00000000
00000000
01FFFFE0
007FFFE0
003C01E0
003C00E0
003C0040
00380040
00380040
00780000
00780000
00700800
00F01000
00F01000
00E07000
00FFE000
01E0E000
01E06000
01C02000
03C04000
03C04000
03800000
03800100
07800100
07800200
07000600
0F000E00
0F003C00
1F83FC00
FFFFFC00
ENDCHAR
STARTCHAR 0402
ENCODING 1026
SWIDTH 792 0
DWIDTH 33 0
BBX 28 28 4 0
BITMAP
3FFFFF80
3FFFFF80
381E0F00
601C0700
403C0300
403C0200
80380200
00780000
00780000
00780000
0070FF00
00F3FFC0
00F603E0
00FC01E0
01F001F0
01E001F0
01C001F0
01C001F0
03C001F0
03C001E0
038001E0
078003C0
078003C0
07000780
0F000F00
0F000E00
1F801C00
FFF3F000
ENDCHAR
STARTCHAR 0403
ENCODING 1027
SWIDTH 576 0
DWIDTH 24 0
BBX 29 36 -1 0
BITMAP
00003E00
00003C00
00003800
00007000
00006000
00004000
00008000
00000000
01FFFFF8
007FFFF0
003C0070
003C0030
003C0020
00380020
00380020
00780020
00780000
00700000
00F00000
00F00000
00E00000
00E00000
01E00000
01E00000
01C00000
03C00000
03C00000
03800000
07800000
07800000
07000000
07000000
0F000000
0F000000
1F000000
FFE00000
ENDCHAR
STARTCHAR 0404
ENCODING 1028
SWIDTH 672 0
DWIDTH 28 0
BBX 26 29 3 -1
BITMAP
0007F840
003E0FC0
007003C0
01E001C0
03C00180
07800180
0F000180
1E000080
1E000000
3C000000
3C000000
78000000
78000000
FFFE0000
FFFC0000
F0000000
F0000000
F0000000
F0000000
F0000000
F8000000
F8000000
78000400
7C000800
3E001800
1F003000
0FC0C000
03FF8000
00700000
ENDCHAR
STARTCHAR 0405
ENCODING 1029
SWIDTH 504 0
DWIDTH 21 0
BBX 22 29 0 -1
BITMAP
003F84
00F9FC
01E03C
01C01C
038018
038008
038008
03C008
03C008
03E000
01F000
00F800
00FC00
007E00
003F00
001F80
000FC0
0007C0
0003E0
2003E0
2001E0
2001E0
2001C0
7001C0
7003C0
780380
7E0F00
47FE00
80E000
ENDCHAR
STARTCHAR 0406
ENCODING 1030
SWIDTH 336 0
DWIDTH 14 0
BBX 18 28 -1 0
BITMAP
01FFC0
003F00
003E00
003C00
003C00
003800
003800
007800
007800
007000
00F000
00F000
00E000
00E000
01E000
01E000
01C000
03C000
03C000
038000
038000
078000
078000
070000
0F0000
0F0000
1F0000
FFE000
ENDCHAR
STARTCHAR 0407
ENCODING 1031
SWIDTH 336 0
DWIDTH 14 0
BBX 20 35 -1 0
BITMAP
0060E0
00F1E0
00F1F0
00F0E0
000040
000000
000000
01FFC0
003F00
003E00
003C00
003C00
003800
003800
007800
007800
007000
00F000
00F000
00E000
00E000
01E000
01E000
01C000
03C000
03C000
038000
038000
078000
078000
070000
0F0000
0F0000
1F0000
FFE000
ENDCHAR
STARTCHAR 0408
ENCODING 1032
SWIDTH 456 0
DWIDTH 19 0
BBX 24 29 -1 -1
BITMAP
0007FF
0001F8
0000F0
0000F0
0000E0
0001E0
0001E0
0001C0
0003C0
0003C0
0003C0
000380
000780
000780
000700
000F00
000F00
000E00
000E00
001E00
001E00
001C00
703C00
F03800
F07800
E0F000
E1E000
7F8000
180000
ENDCHAR
STARTCHAR 0409
ENCODING 1033
SWIDTH 936 0
DWIDTH 39 0
BBX 38 28 -1 0
BITMAP
001FFFFF00
000FFFFC00
0003007800
0002007000
000600F000
000600F000
000400E000
000401E000
000C01E000
000C01C000
000803C000
001803C000
001803C000
001003FFC0
00300787E0
00300781F0
00200700F8
00600F0078
00600F007C
00400E007C
00C00E007C
00C01E0078
00801E0078
E1801C00F0
F1003C01F0
F3003C03E0
FE007FFF80
7C03FFFE00
ENDCHAR
STARTCHAR 040A
ENCODING 1034
SWIDTH 912 0
DWIDTH 38 0
BBX 37 28 -1 0
BITMAP
01FFC3FF00
007F01FC00
003E00F800
003C00F000
003C00F000
003800E000
003801E000
007801E000
007801C000
007001C000
00F003C000
00F003C000
00E0038000
00FFFFFF80
01E00787E0
01E00701F0
01C00F00F8
03C00F0078
03C00F0078
03800E0078
07801E0078
07801E0078
07001C00F8
07003C00F0
0F003C01F0
0F003803E0
1F007FFF80
FFE3FFFE00
ENDCHAR
STARTCHAR 040B
ENCODING 1035
SWIDTH 792 0
DWIDTH 33 0
BBX 26 28 4 0
BITMAP
3FFFFF80
3FFFFF80
381E0F00
601C0300
603C0300
403C0200
80380200
00380000
00780000
00780000
0070FF00
00F3FF80
00F603C0
00EC03C0
00F001C0
01E001C0
01E003C0
01C003C0
03C00380
03C00780
03800780
07800700
07800700
07800F00
07000F00
0F000F00
1F801F00
FFF0FFC0
ENDCHAR
STARTCHAR 040C
ENCODING 1036
SWIDTH 672 0
DWIDTH 28 0
BBX 31 37 -1 0
BITMAP
00000F80
00000F00
00000E00
00000C00
00001C00
00001800
00001000
00000000
00000000
01FFE03C
007F007E
003E00FE
003C019E
003C010C
00380300
00780200
00780600
00780400
00700C00
00F01800
00F03000
00E0E000
00FFC000
01E7C000
01E3C000
01C1E000
03C1E000
03C0F000
0380F000
03807800
07807800
07803800
07003C00
0F001C00
0F001E00
1F001F00
FFE00FE0
ENDCHAR
STARTCHAR 040D
ENCODING 1037
SWIDTH 720 0
DWIDTH 30 0
BBX 35 37 -1 0
BITMAP
0000F80000
0000780000
0000380000
00001C0000
00000C0000
0000040000
0000020000
0000000000
0000000000
01FFC0FFE0
007F003F80
003E001E00
003C001E00
003C003C00
003C007C00
003800FC00
007801B800
0078037800
0070067800
00F00C7000
00F018F000
00E030F000
00E060F000
01E0C0E000
01E181E000
01C301E000
03C601C000
03CC03C000
039803C000
07B0038000
07E0038000
07C0078000
0780078000
0F00070000
0F000F0000
1F001F8000
FFE0FFE000
ENDCHAR
STARTCHAR 040E
ENCODING 1038
SWIDTH 672 0
DWIDTH 28 0
BBX 27 36 5 -1
BITMAP
00701C00
00703C00
00783800
00387000
001FE000
00000000
00000000
FFC01FE0
7F000780
1E000300
1E000600
1E000400
0E000C00
0F000800
0F001800
0F003000
07002000
07806000
07804000
0380C000
03818000
03C10000
03C30000
01C60000
01C60000
01EC0000
01E80000
00F80000
00F00000
00E00000
E0E00000
E0400000
F0800000
F1800000
7F000000
18000000
ENDCHAR
STARTCHAR 040F
ENCODING 1039
SWIDTH 720 0
DWIDTH 30 0
BBX 35 36 -1 -8
BITMAP
01FFC0FFE0
007F003F80
003E001E00
003C001E00
003C003C00
003C003C00
0038003C00
0078003800
0078007800
0070007800
00F0007000
00F000F000
00E000F000
00E000E000
01E000E000
01E001E000
01C001E000
03C001C000
03C003C000
038003C000
0780038000
0780078000
0700078000
0700078000
0F000F0000
0F000F0000
1FE07F8000
FFFFFFE000
007F800000
001E000000
001C000000
0018000000
0018000000
0010000000
0010000000
0010000000
ENDCHAR
STARTCHAR 0410
ENCODING 1040
SWIDTH 600 0
DWIDTH 25 0
BBX 25 28 -2 0
BITMAP
00000200
00000600
00000600
00000E00
00001E00
00001E00
00003E00
00007E00
0000DE00
00009E00
00019C00
00031C00
00061C00
00041C00
000C1C00
00181C00
00303C00
003FFC00
007FFC00
00C03C00
00803C00
01003800
03003800
06003800
04003800
0C007800
3C007C00
FF03FF80
ENDCHAR
STARTCHAR 0411
ENCODING 1041
SWIDTH 600 0
DWIDTH 25 0
BBX 27 28 -1 0
BITMAP
00FFFFE0
007FFFE0
003C01E0
003C00C0
003C0040
00380040
00380080
00780080
00780000
00700000
00F00000
00F00000
00E00000
00FFF000
01E1F800
01E07C00
01C03E00
03C01E00
03C01E00
03801F00
07801E00
07801E00
07801E00
07003C00
0F007C00
0F00F800
1FFFE000
FFFF8000
ENDCHAR
STARTCHAR 0412
ENCODING 1042
SWIDTH 600 0
DWIDTH 25 0
BBX 26 28 -1 0
BITMAP
01FFC000
007FFC00
003C0F00
003C0780
003C0780
003803C0
003803C0
007807C0
00780780
00700780
00F00F00
00F01E00
00E1F800
00FFE000
01E1F000
01C07C00
01C03C00
03C01E00
03C01E00
03801E00
03801E00
07801E00
07003C00
07007C00
0F00F800
0E01F000
1FFFE000
FFFF0000
ENDCHAR
STARTCHAR 0413
ENCODING 1043
SWIDTH 576 0
DWIDTH 24 0
BBX 29 28 -1 0
BITMAP
01FFFFF8
007FFFF0
003C0070
003C0030
003C0020
00380020
00380020
00780020
00780000
00700000
00F00000
00F00000
00E00000
00E00000
01E00000
01E00000
01C00000
03C00000
03C00000
03800000
07800000
07800000
07000000
07000000
0F000000
0F000000
1F000000
FFE00000
ENDCHAR
STARTCHAR 0414
ENCODING 1044
SWIDTH 648 0
DWIDTH 27 0
BBX 34 36 -4 -8
BITMAP
000FFFFFC0
0003FFFF00
0001801E00
0001803C00
0001803C00
0001003800
0001007800
0003007800
0002007000
0002007000
000600F000
000600F000
000400E000
000C01E000
000C01E000
000801C000
001801C000
001003C000
003003C000
0030038000
0060078000
0060078000
00C0070000
00C00F0000
01800F0000
03000F0000
06007F0000
3FFFFFE000
3E0003E000
380001C000
600000C000
600000C000
400000C000
8000008000
8000008000
8000008000
ENDCHAR
STARTCHAR 0415
ENCODING 1045
SWIDTH 600 0
DWIDTH 25 0
BBX 27 28 -1 0
BITMAP
01FFFFE0
007FFFE0
003C01E0
003C00E0
003C0040
00380040
00380040
00780000
00780000
00700800
00F01000
00F01000
00E07000
00FFE000
01E0E000
01E06000
01C02000
03C04000
03C04000
03800000
03800100
07800100
07800200
07000600
0F000E00
0F003C00
1F83FC00
FFFFFC00
ENDCHAR
STARTCHAR 0416
ENCODING 1046
SWIDTH 912 0
DWIDTH 38 0
BBX 43 28 -2 0
BITMAP
007807FE0380
00FC03F807C0
00FE01F00FE0
00F601E01BC0
006201E010C0
000201E03000
000201C02000
000203C06000
000603C06000
000603C0C000
000603808000
000207818000
000387870000
0001FFFC0000
0007EF7C0000
000F8F3C0000
001F0E1E0000
003E0E0E0000
007C1E0F0000
00F81E0F0000
00F01C078000
01E03C078000
03E03C03C000
07C03C03C000
0F807801E000
1F007801E000
3E00FC00F000
FC07FF00FC00
ENDCHAR
STARTCHAR 0417
ENCODING 1047
SWIDTH 504 0
DWIDTH 21 0
BBX 21 29 0 -1
BITMAP
013FC0
01E3E0
0380F0
0300F0
0200F0
0400F8
0400F0
0000F0
0000F0
0001E0
0003C0
000780
001F00
00FC00
001F00
000780
0003C0
0003C0
0003C0
0003C0
0003C0
0003C0
0007C0
000780
000F00
801F00
603C00
1FF800
038000
ENDCHAR
STARTCHAR 0418
ENCODING 1048
SWIDTH 720 0
DWIDTH 30 0
BBX 35 28 -1 0
BITMAP
01FFC0FFE0
007F003F80
003E001E00
003C001E00
003C003C00
003C007C00
003800FC00
007801B800
0078037800
0070067800
00F00C7000
00F018F000
00E030F000
00E060F000
01E0C0E000
01E181E000
01C301E000
03C601C000
03CC03C000
039803C000
07B0038000
07E0038000
07C0078000
0780078000
0F00070000
0F000F0000
1F001F8000
FFE0FFE000
ENDCHAR
STARTCHAR 0419
ENCODING 1049
SWIDTH 720 0
DWIDTH 30 0
BBX 35 35 -1 0
BITMAP
0000601C00
0000F03C00
0000703800
0000387000
00001FC000
0000000000
0000000000
01FFC0FFE0
007F003F80
003E001E00
003C001E00
003C003C00
003C007C00
003800FC00
007801B800
0078037800
0070067800
00F00C7000
00F018F000
00E030F000
00E060F000
01E0C0E000
01E181E000
01C301E000
03C601C000
03CC03C000
039803C000
07B0038000
07E0038000
07C0078000
0780078000
0F00070000
0F000F0000
1F001F8000
FFE0FFE000
ENDCHAR
STARTCHAR 041A
ENCODING 1050
SWIDTH 672 0
DWIDTH 28 0
BBX 31 28 -1 0
BITMAP
01FFE03C
007F007E
003E00FE
003C019E
003C010C
00380300
00780200
00780600
00780400
00700C00
00F01800
00F03000
00E0E000
00FFC000
01E7C000
01E3C000
01C1E000
03C1E000
03C0F000
0380F000
03807800
07807800
07803800
07003C00
0F001C00
0F001E00
1F001F00
FFE00FE0
ENDCHAR
STARTCHAR 041B
ENCODING 1051
SWIDTH 672 0
DWIDTH 28 0
BBX 33 28 -1 0
BITMAP
001FFFFF80
0007FFFC00
0002007800
0002007800
0006007000
000600F000
000600F000
000400E000
000C01E000
000C01E000
000801C000
000801C000
001803C000
001803C000
0010038000
0030078000
0030078000
0020070000
0060070000
00600F0000
00400F0000
00C00E0000
00C01E0000
E0801E0000
F1801C0000
F3003C0000
FE003E0000
7C01FF8000
ENDCHAR
STARTCHAR 041C
ENCODING 1052
SWIDTH 840 0
DWIDTH 35 0
BBX 40 28 -1 0
BITMAP
01FC00007F
007C0000F8
001C0001F0
003E0001E0
003E0003E0
003E0007C0
003E000DC0
006E000BC0
004E001BC0
004E003380
00CE002780
00CE006780
008F00C700
018F018700
018F010F00
010F030F00
0107060E00
03070C1E00
03070C1E00
0207181C00
0607B01C00
0607A03C00
0407E03C00
0407C03800
0C07807800
0C03007800
1C0300F800
FF8207FF00
ENDCHAR
STARTCHAR 041D
ENCODING 1053
SWIDTH 720 0
DWIDTH 30 0
BBX 35 28 -1 0
BITMAP
01FFC0FFE0
003F003F00
003E001E00
003C001E00
003C003C00
0038003C00
0038003800
0078003800
0078007800
0070007800
00F0007000
00F000F000
00E000F000
01FFFFE000
01E000E000
01C001E000
01C001E000
03C001C000
03C003C000
038003C000
0780038000
0780038000
0700078000
0700078000
0F00070000
0F000F0000
1F001F8000
FFE07FE000
ENDCHAR
STARTCHAR 041E
ENCODING 1054
SWIDTH 720 0
DWIDTH 30 0
BBX 28 29 2 -1
BITMAP
0003FE00
000E0F00
00380380
007003C0
01E001E0
03C001E0
078000F0
078000F0
0F0000F0
1E0000F0
1E0000F0
3E0000F0
3C0001F0
7C0001E0
7C0001E0
780003E0
780003C0
780003C0
78000780
F8000780
78000F00
78001F00
78001E00
78003C00
3C007800
1E00E000
0F03C000
07FF0000
00700000
ENDCHAR
STARTCHAR 041F
ENCODING 1055
SWIDTH 720 0
DWIDTH 30 0
BBX 35 28 -1 0
BITMAP
01FFFFFFE0
007FFFFF00
003C001E00
003C001E00
003C001C00
003C003C00
0038003C00
0078003800
0078007800
0070007800
00F0007000
00F000F000
00E000F000
00E000E000
01E000E000
01E001E000
01C001E000
03C001C000
03C003C000
038003C000
0780038000
0780078000
0780078000
0700078000
0F00070000
0F000F0000
1F801F8000
FFE0FFE000
ENDCHAR
STARTCHAR 0420
ENCODING 1056
SWIDTH 600 0
DWIDTH 25 0
BBX 27 28 -1 0
BITMAP
01FFE000
007FFF00
003C0780
003C03C0
003C01C0
003C01E0
003801E0
007801E0
007801E0
007003C0
007003C0
00F00780
00F00F00
00F03E00
01FFF000
01E00000
01C00000
03C00000
03C00000
03C00000
03800000
07800000
07800000
07000000
0F000000
0F000000
1F000000
FFE00000
ENDCHAR
STARTCHAR 0421
ENCODING 1057
SWIDTH 672 0
DWIDTH 28 0
BBX 26 29 3 -1
BITMAP
0007F840
003E0FC0
00F003C0
01E00180
03C00180
07800180
0F000180
1E000180
1E000000
3C000000
7C000000
78000000
78000000
F8000000
F0000000
F0000000
F0000000
F0000000
F0000000
F0000000
F0000000
F8000000
78000400
7C000800
3C001800
1F003000
0FC1C000
03FF8000
00300000
ENDCHAR
STARTCHAR 0422
ENCODING 1058
SWIDTH 552 0
DWIDTH 23 0
BBX 24 28 3 0
BITMAP
1FFFFF
1FFFFF
1C1E0E
301C06
201C06
203C06
403804
403804
007800
007800
007000
00F000
00F000
00E000
00E000
01E000
01E000
01C000
03C000
03C000
038000
038000
078000
078000
070000
0F0000
1F8000
FFF000
ENDCHAR
STARTCHAR 0423
ENCODING 1059
SWIDTH 672 0
DWIDTH 28 0
BBX 27 29 5 -1
BITMAP
FFC01FE0
7F000780
1E000300
1E000600
1E000400
0E000C00
0F000800
0F001800
0F003000
07002000
07806000
07804000
0380C000
03818000
03C10000
03C30000
01C60000
01C60000
01EC0000
01E80000
00F80000
00F00000
00E00000
E0E00000
E0400000
F0800000
F1800000
7F000000
18000000
ENDCHAR
STARTCHAR 0424
ENCODING 1060
SWIDTH 816 0
DWIDTH 34 0
BBX 30 28 3 0
BITMAP
0007FF00
0001FC00
0000F800
0000F000
0000F000
007FFF80
01E1E1E0
0781E070
0F01E038
1E01C038
3C03C03C
7803C03C
7803803C
F007803C
F007803C
F0070078
F00F0078
F00F00F8
F00F00F0
700E01E0
781E03C0
3C1E0F00
0F1C3C00
03FFE000
003C0000
003C0000
007C0000
03FF8000
ENDCHAR
STARTCHAR 0425
ENCODING 1061
SWIDTH 600 0
DWIDTH 25 0
BBX 34 28 -3 0
BITMAP
007FE0FFC0
001F803F00
000F001C00
0007003800
0007803000
0007806000
000780C000
0003818000
0003C30000
0003C60000
0001CC0000
0001D80000
0001F00000
0001E00000
0000E00000
0001F00000
0003F00000
0006700000
000C700000
0018780000
0030780000
0060380000
00C03C0000
01803C0000
03001C0000
06001E0000
1E003F0000
FFC0FFC000
ENDCHAR
STARTCHAR 0426
ENCODING 1062
SWIDTH 720 0
DWIDTH 30 0
BBX 35 36 -1 -8
BITMAP
00FFC0FFE0
007F003F80
003E001E00
003C001E00
003C003C00
003C003C00
0038003C00
0078003800
0078007800
0070007800
00F0007000
00F000F000
00E000F000
00E000E000
01E000E000
01E001E000
01C001E000
03C001C000
03C003C000
038003C000
0780038000
0780038000
0780078000
0700078000
0F000F0000
0F000F0000
1FE07F8000
FFFFFFF000
000003E000
000000E000
000000E000
0000004000
0000004000
0000004000
0000004000
0000008000
ENDCHAR
STARTCHAR 0427
ENCODING 1063
SWIDTH 696 0
DWIDTH 29 0
BBX 27 28 5 0
BITMAP
FFE0FFE0
3F003F80
1E001F00
1E001E00
1C001E00
3C001C00
3C003C00
3C003C00
38003C00
78003800
78007800
78007800
78007000
7800F000
3C03F000
3FFEF000
0FF0E000
0001E000
0001E000
0001C000
0003C000
0003C000
0003C000
00038000
00078000
00078000
000F8000
007FF000
ENDCHAR
STARTCHAR 0428
ENCODING 1064
SWIDTH 1032 0
DWIDTH 43 0
BBX 47 28 0 0
BITMAP
01FF83FF07FE
00FE01FC03F8
007C00F801F0
007800F001E0
007800F001E0
007800E001C0
007001E003C0
00F001E003C0
00F001E00380
00E003C00780
01E003C00780
01E003C00700
01C003800700
01C007800F00
03C007800F00
03C007000E00
03800F001E00
07800F001E00
07800F001C00
07000E003C00
0F001E003C00
0F001E003C00
0E001C003800
0E003C007800
1E003C007800
1E007C00F800
3F83FF03F800
FFFFFFFFFF00
ENDCHAR
STARTCHAR 0429
ENCODING 1065
SWIDTH 1032 0
DWIDTH 43 0
BBX 47 36 0 -8
BITMAP
01FF83FF07FE
00FE01FC03F8
007C00F801F0
007800F001E0
007800F001E0
007800E001C0
007001E003C0
00F001E003C0
00F001E00380
00E003C00780
01E003C00780
01E003C00700
01C003800700
01C007800F00
03C007800F00
03C007000E00
03800F001E00
07800F001E00
07800F001C00
07000E003C00
0F001E003C00
0F001E003C00
0E001C003800
0E003C007800
1E003C007800
1E007C00F800
3F81FF03F800
FFFFFFFFFF00
000000001F00
000000000E00
000000000600
000000000600
000000000400
000000000400
000000000400
000000000400
ENDCHAR
STARTCHAR 042A
ENCODING 1066
SWIDTH 672 0
DWIDTH 28 0
BBX 23 28 3 0
BITMAP
1FFFC0
1FFF00
1C3C00
303C00
203800
207800
407800
407800
007000
00F000
00F000
00E000
01E000
01FFE0
01C1F8
01C07C
03C03C
03C03E
03801E
07801E
07801E
07001E
0F003E
0F003C
0F0078
1E01F0
1FFFE0
FFFF00
ENDCHAR
STARTCHAR 042B
ENCODING 1067
SWIDTH 864 0
DWIDTH 36 0
BBX 41 28 -1 0
BITMAP
00FFE003FF80
007F0000FE00
003E00007800
003C00007800
003C00007800
003C00007000
00380000F000
00780000F000
00780000E000
00700000E000
00F00001E000
00F00001E000
00E00001C000
00FFF003C000
01E1F803C000
01E07C038000
01C03E038000
03C01E078000
03C01E078000
03801F070000
07801E0F0000
07801E0F0000
07801E0E0000
07003C1E0000
0F007C1E0000
0F00F81E0000
1FFFE03E0000
FFFF81FFC000
ENDCHAR
STARTCHAR 042C
ENCODING 1068
SWIDTH 600 0
DWIDTH 25 0
BBX 24 28 -1 0
BITMAP
00FFE0
007F00
003E00
003C00
003C00
003C00
003800
007800
007800
007000
00F000
00F000
00E000
00FFF0
01E1F8
01E07C
01C03E
03C01E
03C01E
03801F
07801E
07801E
07801E
07003C
0F007C
0F00F8
1FFFE0
FFFF80
ENDCHAR
STARTCHAR 042D
ENCODING 1069
SWIDTH 648 0
DWIDTH 27 0
BBX 26 29 1 -1
BITMAP
021FE000
07E0F800
07803C00
07001E00
06000F00
0C000F80
08000780
08000780
000007C0
000007C0
000007C0
000007C0
000007C0
000FFFC0
001FFF80
00000780
00000780
00000780
00000F00
00000F00
00001E00
00001E00
80003C00
40007800
3000F000
3801E000
0E07C000
07FF0000
00700000
ENDCHAR
STARTCHAR 042E
ENCODING 1070
SWIDTH 1032 0
DWIDTH 43 0
BBX 44 29 -1 -1
BITMAP
01FFC003FC00
007F000E0F00
003E00380380
003C007003C0
003C01E001E0
003803C001E0
0038078000F0
0078078000F0
00780F0000F0
00701E0000F0
00F01E0000F0
00F03C0000F0
00E03C0001F0
00E07C0001E0
01FFF80001E0
01E0780003E0
01C0780003C0
03C0780003C0
03C0F8000780
0380F8000780
038078000F00
078078001E00
078078001E00
070038003C00
0F003C007800
0F001E00E000
1F000F03C000
FFE007FF0000
000000F00000
ENDCHAR
STARTCHAR 042F
ENCODING 1071
SWIDTH 648 0
DWIDTH 27 0
BBX 33 28 -2 0
BITMAP
00001FFF80
0001FFFE00
0007807800
000F007800
001E007000
003C00F000
003C00F000
003C00E000
007C00E000
003C01E000
003C01E000
001E01C000
000F03C000
0007FFC000
0003F38000
000F838000
001F078000
003E078000
003C070000
00780F0000
00F00F0000
01E00E0000
03E00E0000
07C01E0000
0F801E0000
1F001E0000
3E003E0000
FC01FFC000
ENDCHAR
STARTCHAR 0430
ENCODING 1072
SWIDTH 504 0
DWIDTH 21 0
BBX 18 18 1 0
BITMAP
00FDC0
0185C0
0703C0
0E0380
0C0380
1C0380
380380
380700
700700
700700
F00E00
E01E00
E01E00
E03E00
E05C40
F09C80
7F1F00
7E1E00
ENDCHAR
STARTCHAR 0431
ENCODING 1073
SWIDTH 504 0
DWIDTH 21 0
BBX 21 29 1 0
BITMAP
000008
0000F0
001FF0
007FE0
00FF00
01C000
030000
060000
040000
0C0000
080000
18FF00
138380
3701C0
2E01C0
3C01C0
3C01C0
7801C0
7801C0
7001C0
7003C0
7003C0
F00380
700780
700700
700E00
701C00
383800
1FE000
ENDCHAR
STARTCHAR 0432
ENCODING 1074
SWIDTH 432 0
DWIDTH 18 0
BBX 17 18 1 0
BITMAP
00FE00
038700
070380
0E0300
1C0700
3C0E00
381800
786000
7BC000
7C7800
F03C00
F01C00
F01E00
E01E00
601C00
703C00
303800
1FE000
ENDCHAR
STARTCHAR 0433
ENCODING 1075
SWIDTH 384 0
DWIDTH 16 0
BBX 16 18 0 0
BITMAP
01FC
061F
1807
0007
0007
000E
001C
0030
00C0
0700
1C00
3800
7000
F000
E000
F008
7830
7FC0
ENDCHAR
STARTCHAR 0434
ENCODING 1076
SWIDTH 504 0
DWIDTH 21 0
BBX 19 29 1 0
BITMAP
00C000
007000
001800
000C00
000600
000300
000300
000380
000180
0001C0
0001C0
00FFC0
0383E0
0701E0
0E01E0
1C01E0
3C01E0
3801E0
7801C0
7003C0
7003C0
F00380
F00780
F00700
F00F00
700E00
701C00
383800
1FE000
ENDCHAR
STARTCHAR 0435
ENCODING 1077
SWIDTH 456 0
DWIDTH 19 0
BBX 17 18 1 0
BITMAP
007F00
018380
070380
0E0380
1C0700
1C0700
380E00
383C00
70F000
7F8000
700000
F00000
F00000
F00000
780600
7C0800
3FF000
1FC000
ENDCHAR
STARTCHAR 0436
ENCODING 1078
SWIDTH 936 0
DWIDTH 39 0
BBX 39 18 0 0
BITMAP
03F80E01F8
067C0E070C
181E0E0E0E
101E1C1C1E
200E1C381C
000E1C7800
000E3C7000
000E38F000
000E38E000
001FFFE000
001C70E000
001C71E000
003871E000
F038F0E000
F070E0E010
E0E0E0F020
E1C0E078C0
7F01C03F80
ENDCHAR
STARTCHAR 0437
ENCODING 1079
SWIDTH 384 0
DWIDTH 16 0
BBX 16 18 -1 0
BITMAP
07FE
060F
0C07
0807
0807
000F
001E
03F8
01E0
0038
001C
001C
001C
001C
803C
C078
60F0
1FE0
ENDCHAR
STARTCHAR 0438
ENCODING 1080
SWIDTH 504 0
DWIDTH 21 0
BBX 18 18 1 0
BITMAP
1E01C0
3F01C0
4E01C0
CE01C0
0E0380
1E0380
1C0780
1C0700
1C0F00
3C0F00
381700
382E00
382E00
704E00
708C40
711C80
7E1F00
7C1E00
ENDCHAR
STARTCHAR 0439
ENCODING 1081
SWIDTH 504 0
DWIDTH 21 0
BBX 19 28 1 0
BITMAP
00E020
00F040
00F0C0
00FF80
003E00
000000
000000
000000
000000
000000
1E01C0
3F01C0
4E01C0
CE01C0
0E0380
1E0380
1C0780
1C0700
1C0F00
3C0F00
381700
382E00
382E00
704E00
708C40
711C80
7E1F00
7C1E00
ENDCHAR
STARTCHAR 043A
ENCODING 1082
SWIDTH 480 0
DWIDTH 20 0
BBX 18 18 1 0
BITMAP
1F03C0
7F07C0
0E0DC0
0E08C0
0E0800
1C1000
1C3000
1C6000
1FC000
3BC000
38E000
38F000
707000
707800
703800
F03C00
E01E00
E01F80
ENDCHAR
STARTCHAR 043B
ENCODING 1083
SWIDTH 432 0
DWIDTH 18 0
BBX 19 18 -2 0
BITMAP
01FFE0
0061C0
0041C0
0041C0
0043C0
008380
008380
008380
010700
010700
010700
020F00
020E00
020E00
040E40
441C80
F81F80
F01F00
ENDCHAR
STARTCHAR 043C
ENCODING 1084
SWIDTH 648 0
DWIDTH 27 0
BBX 27 18 -2 0
BITMAP
00FC00E0
017C01E0
005C03E0
005C03C0
005C05C0
005C09C0
009C0B80
009C1380
009C2380
011C2780
011C4700
011C8700
021C8700
020D0E00
040E0E20
440E0E40
F80C0F80
F0080F00
ENDCHAR
STARTCHAR 043D
ENCODING 1085
SWIDTH 504 0
DWIDTH 21 0
BBX 18 18 1 0
BITMAP
1F01C0
3F01C0
0E03C0
0E0380
0E0380
1E0380
1C0700
1C0700
1FFF00
380F00
380E00
380E00
780E00
701C00
701CC0
701D80
E01F00
E01E00
ENDCHAR
STARTCHAR 043E
ENCODING 1086
SWIDTH 504 0
DWIDTH 21 0
BBX 18 18 1 0
BITMAP
00FF00
038380
070180
0E01C0
1C01C0
3C01C0
3801C0
7801C0
7003C0
7003C0
F00380
F00780
F00700
F00F00
700E00
701C00
383800
1FE000
ENDCHAR
STARTCHAR 043F
ENCODING 1087
SWIDTH 504 0
DWIDTH 21 0
BBX 18 18 1 0
BITMAP
1F0780
7F1FC0
0E33C0
0E6380
0E4380
1C8380
1D0780
1E0700
1E0700
3C0700
3C0E00
380E00
780E00
701E40
701C40
701C80
E01F00
E01E00
ENDCHAR
STARTCHAR 0440
ENCODING 1088
SWIDTH 504 0
DWIDTH 21 0
BBX 25 27 -5 -9
BITMAP
00FC7E00
003CDF00
003B0700
003A0780
003C0780
00780780
00780780
00700700
00700700
00E00F00
00E00E00
00E00E00
01C01C00
01C03800
01C03800
01C07000
03C0C000
03FF8000
03800000
07000000
07000000
07000000
07000000
0E000000
0E000000
1E000000
FFC00000
ENDCHAR
STARTCHAR 0441
ENCODING 1089
SWIDTH 456 0
DWIDTH 19 0
BBX 17 18 1 0
BITMAP
00FF00
018100
070380
0E0780
1C0700
380200
380000
700000
700000
700000
F00000
F00000
F00000
F00200
F00400
780800
7E7000
1FC000
ENDCHAR
STARTCHAR 0442
ENCODING 1090
SWIDTH 720 0
DWIDTH 30 0
BBX 27 18 1 0
BITMAP
1F0F03C0
7E1F87E0
0E2789E0
0E4791C0
0E8721C0
1D0741C0
1D0741C0
1E0E8380
3C0F0380
3C0F0380
380E0780
381E0700
781C0700
701C0700
703C0E20
F0380E40
E0380F80
E0380F00
ENDCHAR
STARTCHAR 0443
ENCODING 1091
SWIDTH 456 0
DWIDTH 19 0
BBX 21 27 -3 -9
BITMAP
03C038
0FE078
01E038
00E018
00E008
00E010
00E010
00E020
00E060
00E040
007080
007180
007100
007200
007400
007C00
007800
007000
006000
004000
008000
018000
030000
460000
EC0000
F80000
E00000
ENDCHAR
STARTCHAR 0444
ENCODING 1092
SWIDTH 720 0
DWIDTH 30 0
BBX 27 38 1 -9
BITMAP
00003800
0003F800
00007000
00007000
00007000
0000E000
0000E000
0000E000
0001C000
0001C000
0001C000
01F9DF80
0387A1C0
0707C0C0
0E0780E0
1C0780E0
3C0700E0
380700E0
780701E0
700E01E0
700E01E0
F00E01C0
F01C03C0
F01C0380
E01C0780
603C0700
707C0E00
70FE1C00
3FBBF000
00700000
00700000
00700000
00F00000
00E00000
00E00000
01E00000
01E00000
0FFC0000
ENDCHAR
STARTCHAR 0445
ENCODING 1093
SWIDTH 456 0
DWIDTH 19 0
BBX 19 18 -1 0
BITMAP
1F81E0
07C3E0
01C6E0
01CC00
00E800
00F000
00F000
00E000
007000
00F000
00F000
017000
017800
023840
043880
CC3980
F83F00
F01E00
ENDCHAR
STARTCHAR 0446
ENCODING 1094
SWIDTH 504 0
DWIDTH 21 0
BBX 18 26 1 -8
BITMAP
1E01C0
3F01C0
4E01C0
CE01C0
0E0380
1E0380
1C0780
1C0700
1C0F00
3C0F00
381700
382E00
382E00
704E00
708C40
711C80
7E1F80
7C1F00
000200
000400
000C00
000E00
000C00
000C00
001800
003000
ENDCHAR
STARTCHAR 0447
ENCODING 1095
SWIDTH 480 0
DWIDTH 20 0
BBX 16 18 2 0
BITMAP
7C07
FC07
3C07
380F
380E
380E
780E
701C
701C
787C
3FB8
0438
0038
0038
0071
0072
007C
0078
ENDCHAR
STARTCHAR 0448
ENCODING 1096
SWIDTH 744 0
DWIDTH 31 0
BBX 28 18 2 0
BITMAP
3E01C070
7E038070
5E0380F0
9C0380E0
1C0700E0
1C0701E0
3C0701C0
380F03C0
380E03C0
781E0580
702E0780
703C0B80
705C1380
F09C3700
E11C6710
E21CC720
FC1F87C0
F81F0780
ENDCHAR
STARTCHAR 0449
ENCODING 1097
SWIDTH 744 0
DWIDTH 31 0
BBX 28 26 2 -8
BITMAP
3E01C070
7E038070
5E0380F0
9C0380E0
1C0700E0
1C0701E0
3C0701C0
380F03C0
380E03C0
781E0580
702E0780
703C0B80
705C1380
F09C3700
E11C6710
E21CC720
FC1F87C0
F81F07C0
00000080
00000100
00000300
00000700
00000300
00000700
00000600
00001800
ENDCHAR
STARTCHAR 044A
ENCODING 1098
SWIDTH 528 0
DWIDTH 22 0
BBX 19 18 1 0
BITMAP
3FC000
7FC000
7FC000
43C000
838000
038000
038F00
073F80
0763C0
0781E0
0F01E0
0E01E0
0E01C0
0E01C0
0E0380
0E0380
060700
03FC00
ENDCHAR
STARTCHAR 044B
ENCODING 1099
SWIDTH 672 0
DWIDTH 28 0
BBX 24 18 2 0
BITMAP
3E003F
7C000F
1C000E
1C000E
1C000E
38001C
38F01C
3BFC1C
763E1C
781E38
701E38
700E38
E01E70
E01C71
E01C71
E03872
7070FC
3FC078
ENDCHAR
STARTCHAR 044C
ENCODING 1100
SWIDTH 456 0
DWIDTH 19 0
BBX 15 18 2 0
BITMAP
3E00
7C00
1C00
1C00
1C00
3800
38F0
3BFC
763E
781E
701E
700E
E01E
E01C
E01C
E038
7070
3FC0
ENDCHAR
STARTCHAR 044D
ENCODING 1101
SWIDTH 432 0
DWIDTH 18 0
BBX 17 18 0 0
BITMAP
0FF800
1C1E00
180F00
100700
200700
000780
000780
000780
03FF80
000700
000F00
000F00
000E00
801E00
401C00
603800
30F000
1FE000
ENDCHAR
STARTCHAR 044E
ENCODING 1102
SWIDTH 696 0
DWIDTH 29 0
BBX 27 18 1 0
BITMAP
1F007F00
7F01C380
0E0301C0
0E0701C0
0E0E01E0
1E1C01E0
1C3C01E0
1C3801E0
1FF801E0
387801C0
387003C0
387003C0
78700780
70700700
70700E00
70381C00
E0383800
E01FE000
ENDCHAR
STARTCHAR 044F
ENCODING 1103
SWIDTH 456 0
DWIDTH 19 0
BBX 20 18 -2 0
BITMAP
00FFF0
01E0F0
03C0E0
0780E0
0780E0
0781C0
0381C0
03C1C0
007FC0
00F380
01E380
03C380
078700
070700
0E0710
1C0F20
3C0FC0
F80F80
ENDCHAR
STARTCHAR 0451
ENCODING 1105
SWIDTH 456 0
DWIDTH 19 0
BBX 19 27 1 0
BITMAP
01E1C0
01E3E0
01E3C0
00E1C0
000000
000000
000000
000000
000000
007F00
018380
070380
0E0380
1C0700
1C0700
380E00
383C00
70F000
7F8000
700000
F00000
F00000
F00000
780600
7C0800
3FF000
1FC000
ENDCHAR
STARTCHAR 0452
ENCODING 1106
SWIDTH 480 0
DWIDTH 20 0
BBX 17 38 1 -9
BITMAP
00E000
0FE000
01E000
01C000
01C000
0FFF00
038000
038000
038000
070000
070000
070F80
071F80
0E3380
0E6380
0EC380
1C8380
1D0380
1E0780
1E0780
3C0700
3C0F00
380F00
780E00
700E00
701C00
701C00
E03800
E03800
003000
007000
006000
00C000
018000
030000
060000
0C0000
100000
ENDCHAR
STARTCHAR 0453
ENCODING 1107
SWIDTH 384 0
DWIDTH 16 0
BBX 19 29 -2 0
BITMAP
0003E0
0003C0
000380
000700
000600
000400
000C00
000000
000000
000000
000000
07FFE0
01E1C0
01C040
01C040
01C040
03C000
038000
038000
038000
070000
070000
070000
0F0000
0E0000
0E0000
1E0000
1E0000
FF8000
ENDCHAR
STARTCHAR 0454
ENCODING 1108
SWIDTH 432 0
DWIDTH 18 0
BBX 17 18 1 0
BITMAP
00FF80
038380
070180
0E0180
1C0100
380000
380000
700000
7FE000
700000
F00000
F00000
F00000
F00200
F00400
780800
7E3000
3FE000
ENDCHAR
STARTCHAR 0455
ENCODING 1109
SWIDTH 384 0
DWIDTH 16 0
BBX 15 18 0 0
BITMAP
03FE
060E
0E0E
0E04
0E04
0F04
0F80
07C0
03C0
01E0
01F0
00F0
4070
4070
C070
C070
E060
FFC0
ENDCHAR
STARTCHAR 0456
ENCODING 1110
SWIDTH 288 0
DWIDTH 12 0
BBX 9 26 2 1
BITMAP
0380
0780
0380
0100
0000
0000
0000
0000
3E00
5E00
0E00
1C00
1C00
1C00
1C00
3800
3800
3800
7000
7000
7000
7000
E200
E400
F800
F000
ENDCHAR
STARTCHAR 0457
ENCODING 1111
SWIDTH 288 0
DWIDTH 12 0
BBX 13 27 2 0
BITMAP
3C78
3C78
3C78
3838
0000
0000
0000
0000
0000
3E00
5E00
0E00
1C00
1C00
1C00
1C00
3800
3800
3800
7000
7000
7000
7000
E200
E400
F800
F000
ENDCHAR
STARTCHAR 0458
ENCODING 1112
SWIDTH 288 0
DWIDTH 12 0
BBX 19 35 -7 -9
BITMAP
0001C0
0003E0
0001C0
000080
000000
000000
000000
000000
000F80
003F00
000700
000700
000E00
000E00
000E00
001E00
001C00
001C00
001C00
003800
003800
003800
007800
007000
007000
007000
00E000
00E000
00E000
01C000
01C000
418000
E30000
C60000
780000
ENDCHAR
STARTCHAR 0459
ENCODING 1113
SWIDTH 672 0
DWIDTH 28 0
BBX 28 18 -2 0
BITMAP
0003F000
000C7000
0010F000
0020E000
0020E000
0040E000
0041C380
0081CFE0
0081F0F0
0103E070
0103C070
01038070
02038070
020700F0
060700E0
640381C0
F8038380
F801FF00
ENDCHAR
STARTCHAR 045A
ENCODING 1114
SWIDTH 720 0
DWIDTH 30 0
BBX 27 18 1 0
BITMAP
1F03C000
7F0FC000
0E01C000
0E01C000
0E038000
1C038000
1C038F00
1C073F80
1FFF63C0
380781E0
380F01E0
380E01E0
700E01C0
700E01C0
700E03C0
700E0380
E0060700
E003FC00
ENDCHAR
STARTCHAR 045B
ENCODING 1115
SWIDTH 504 0
DWIDTH 21 0
BBX 18 29 1 0
BITMAP
00E000
0FE000
01E000
01C000
01C000
1FFF00
1FFF00
038000
038000
070000
070000
070780
071FC0
0E33C0
0E6380
0E4380
1C8380
1D0380
1F0700
1E0700
3C0700
3C0E00
380E00
780E00
700E40
701C40
701C80
E01F00
E01E00
ENDCHAR
STARTCHAR 045C
ENCODING 1116
SWIDTH 480 0
DWIDTH 20 0
BBX 18 29 1 0
BITMAP
000F80
000F00
000E00
001C00
001800
001000
003000
000000
000000
000000
000000
1F03C0
7F07C0
0E0DC0
0E08C0
0E0800
1C1000
1C3000
1C6000
1FC000
3BC000
38E000
38F000
707000
707800
703800
F03C00
E01E00
E01F80
ENDCHAR
STARTCHAR 045D
ENCODING 1117
SWIDTH 504 0
DWIDTH 21 0
BBX 18 29 1 0
BITMAP
01F000
00F000
007000
003800
001800
000800
000C00
000000
000000
000000
000000
1E01C0
3F01C0
4E01C0
CE01C0
0E0380
1E0380
1C0780
1C0700
1C0F00
3C0F00
381700
382E00
382E00
704E00
708C40
711C80
7E1F00
7C1E00
ENDCHAR
STARTCHAR 045E
ENCODING 1118
SWIDTH 456 0
DWIDTH 19 0
BBX 21 37 -3 -9
BITMAP
001808
003C08
003E10
001FE0
000FC0
000000
000000
000000
000000
000000
03C038
0FE078
01E038
00E018
00E008
00E010
00E010
00E020
00E060
00E040
007080
007180
007100
007200
007400
007C00
007800
007000
006000
004000
008000
018000
030000
460000
EC0000
F80000
E00000
ENDCHAR
STARTCHAR 045F
ENCODING 1119
SWIDTH 504 0
DWIDTH 21 0
BBX 18 26 1 -8
BITMAP
1E01C0
3F01C0
4E01C0
CE01C0
0E0380
1E0380
1C0780
1C0700
1C0F00
3C0F00
381700
382E00
382E00
704E00
708C40
711C80
7E1F00
7C1E00
080000
100000
300000
380000
300000
300000
600000
C00000
ENDCHAR
STARTCHAR 0490
ENCODING 1168
SWIDTH 432 0
DWIDTH 18 0
BBX 25 33 -1 0
BITMAP
00000080
00000080
00000180
00000100
00000700
01FFFF00
007FFF00
003C0000
003C0000
003C0000
003C0000
00380000
00780000
00780000
00700000
00F00000
00F00000
00E00000
00E00000
01E00000
01E00000
01C00000
03C00000
03C00000
03800000
07800000
07800000
07000000
07000000
0F000000
0F000000
1F000000
FFE00000
ENDCHAR
STARTCHAR 0491
ENCODING 1169
SWIDTH 312 0
DWIDTH 13 0
BBX 14 22 2 0
BITMAP
0004
0004
0008
0038
7FF8
0E00
0E00
1C00
1C00
1C00
3C00
3800
3800
3800
7000
7000
7000
F000
E200
E400
F800
F000
ENDCHAR
STARTCHAR 0492
ENCODING 1170
SWIDTH 576 0
DWIDTH 24 0
BBX 29 28 -1 0
BITMAP
01FFFFF8
007FFFF0
003C0070
003C0030
003C0020
00380020
00380020
00780020
00780000
00700000
00F00000
00F00000
00E00000
0FFFE000
01E00000
01E00000
01C00000
03C00000
03C00000
03800000
07800000
07800000
07000000
07000000
0F000000
0F000000
1F000000
FFE00000
ENDCHAR
STARTCHAR 0493
ENCODING 1171
SWIDTH 384 0
DWIDTH 16 0
BBX 16 18 0 0
BITMAP
01FC
060F
1807
0007
0007
060E
031C
01B0
01C0
07C0
1C60
3860
7020
F000
E000
F008
F830
7FC0
ENDCHAR
STARTCHAR 0496
ENCODING 1174
SWIDTH 912 0
DWIDTH 38 0
BBX 43 36 -2 -8
BITMAP
007807FE0380
00FC03F807C0
00FE01F00FE0
00F601E01BE0
006201E010C0
000201E03000
000201C02000
000203C06000
000603C06000
000603C0C000
000603808000
000207818000
000387870000
0001FFFC0000
0007EF7C0000
000F8F3C0000
001F0E1E0000
003E0E0E0000
007C1E0F0000
00F81E0F0000
00F01C078000
01E03C078000
03E03C03C000
07C03C03C000
0F807801E000
1F007801E000
3E00FC00F000
FC07FF00FC00
000000003C00
000000001C00
000000001800
000000001800
000000001800
000000001000
000000001000
000000001000
ENDCHAR
STARTCHAR 0497
ENCODING 1175
SWIDTH 936 0
DWIDTH 39 0
BBX 39 26 0 -8
BITMAP
03F80E01F8
067C0E070C
181E0E0E0E
101E1C1C1E
200E1C381C
000E1C7800
000E3C7000
000E38F000
000E38E000
001FFFE000
001C70E000
001C71E000
003871E000
F030F0E000
F070E0E010
E0E0E0F020
E1C0E078E0
6701C03FC0
1800000080
0000000180
0000000380
0000000380
0000000380
0000000300
0000000600
0000000C00
ENDCHAR
STARTCHAR 049A
ENCODING 1178
SWIDTH 672 0
DWIDTH 28 0
BBX 31 36 -1 -8
BITMAP
01FFE03C
007F007E
003E00FE
003C019E
003C010C
00380300
00780200
00780600
00780400
00700C00
00F01800
00F03000
00E06000
00FFC000
01E7C000
01E3C000
01C1E000
03C1E000
03C0F000
0380F000
03807800
07807800
07803800
07003C00
0F001C00
0F001E00
1F001F00
FFE00FE0
000003C0
000001C0
000001C0
00000080
00000080
00000080
00000080
00000100
ENDCHAR
STARTCHAR 049B
ENCODING 1179
SWIDTH 480 0
DWIDTH 20 0
BBX 18 26 1 -8
BITMAP
1F03C0
7F07C0
0E0DC0
0E08C0
0E0800
1C1000
1C3000
1C6000
1FC000
3BC000
38E000
38F000
707000
707800
703840
F03C80
E01F80
E01F00
000200
000400
000C00
000E00
000C00
000C00
001800
003000
ENDCHAR
STARTCHAR 049C
ENCODING 1180
SWIDTH 672 0
DWIDTH 28 0
BBX 31 28 -1 0
BITMAP
01FFE03C
007F007E
003E00FE
003C019E
003C010C
00380300
0078C200
0078C600
0078C400
00708C00
00F19800
00F1B000
00E16000
00FFC000
01E7C000
01E3C000
01C3E000
03C7E000
03C6F000
0384F000
038C7800
078C7800
078C3800
07003C00
0F001C00
0F001E00
1F001F00
FFE00FE0
ENDCHAR
STARTCHAR 049D
ENCODING 1181
SWIDTH 480 0
DWIDTH 20 0
BBX 18 18 1 0
BITMAP
1F03C0
7F07C0
0E6DC0
0E68C0
0E4800
1CD000
1CF000
1CE000
1FC000
3BC000
39E000
39F000
737000
737800
723800
F03C00
E01E00
E01F80
ENDCHAR
STARTCHAR 04A2
ENCODING 1186
SWIDTH 720 0
DWIDTH 30 0
BBX 35 36 -1 -8
BITMAP
01FFC0FFE0
003F003F00
003E001E00
003C001E00
003C003C00
0038003C00
0038003800
0078003800
0078007800
0070007800
00F0007000
00F000F000
00E000F000
01FFFFE000
01E000E000
01C001E000
01C001E000
03C001C000
03C003C000
038003C000
0780038000
0780038000
0700078000
0700078000
0F00070000
0F000F0000
1F001F8000
FFE07FE000
000003E000
000001E000
000000C000
000000C000
000000C000
0000008000
0000008000
0000008000
ENDCHAR
STARTCHAR 04A3
ENCODING 1187
SWIDTH 504 0
DWIDTH 21 0
BBX 18 26 1 -8
BITMAP
1F01C0
3F01C0
0E03C0
0E0380
0E0380
1E0380
1C0700
1C0700
1FFF00
380F00
380E00
380E00
780E00
701C00
701C80
701D80
E01F00
E01E00
000200
000400
000C00
001C00
001C00
001800
001800
006000
ENDCHAR
STARTCHAR 04AE
ENCODING 1198
SWIDTH 552 0
DWIDTH 23 0
BBX 24 28 4 0
BITMAP
7FE1FF
3F807C
0F0030
0F0060
0F0060
0700C0
078180
078100
038300
038600
03C400
01CC00
01D800
01F000
01E000
01E000
01E000
01C000
03C000
03C000
038000
078000
078000
070000
0F0000
0F0000
1F0000
FFF000
ENDCHAR
STARTCHAR 04AF
ENCODING 1199
SWIDTH 504 0
DWIDTH 21 0
BBX 23 28 0 -9
BITMAP
1FE0FE
0F803C
070030
070060
078040
0780C0
078180
038100
038300
038600
038400
038C00
039800
039000
03A000
03E000
01C000
01C000
038000
038000
038000
070000
070000
070000
070000
0F0000
1F0000
FFC000
ENDCHAR
STARTCHAR 04B0
ENCODING 1200
SWIDTH 552 0
DWIDTH 23 0
BBX 24 28 4 0
BITMAP
7FE1FF
3F807C
0F0030
0F0070
0F0060
0700C0
078180
078100
038300
038600
03C400
01CC00
01D800
01F000
01E000
FFFFC0
FFFFC0
01C000
03C000
03C000
038000
078000
078000
070000
0F0000
0F0000
1F8000
FFF000
ENDCHAR
STARTCHAR 04B1
ENCODING 1201
SWIDTH 504 0
DWIDTH 21 0
BBX 24 28 -1 -9
BITMAP
0FF07F
07C01E
038018
038030
03C020
03C060
03C0C0
01C080
01C180
01C300
01C200
01C600
01CC00
01C800
01D000
01F000
00E000
00E000
FFFF80
01C000
01C000
038000
038000
038000
038000
078000
0F8000
7FE000
ENDCHAR
STARTCHAR 04B2
ENCODING 1202
SWIDTH 600 0
DWIDTH 25 0
BBX 34 36 -3 -8
BITMAP
007FE0FFC0
001F803F00
000F001C00
0007003800
0007803000
0007806000
000780C000
0003818000
0003C30000
0003C60000
0001CC0000
0001D80000
0001F00000
0001E00000
0000E00000
0001F00000
0003F00000
0006700000
000C700000
0018780000
0030780000
0060380000
00C03C0000
01803C0000
03001C0000
06001E0000
1E003F0000
FFC0FFC000
000007C000
000001C000
000001C000
0000018000
0000008000
0000008000
0000010000
0000010000
ENDCHAR
STARTCHAR 04B3
ENCODING 1203
SWIDTH 456 0
DWIDTH 19 0
BBX 19 26 -1 -8
BITMAP
1F81E0
07C3E0
01C6E0
01CC00
00E800
00F000
00F000
00E000
007000
00F000
00F000
017000
017800
023800
043880
CC3980
F83F00
F01E00
400400
000C00
001C00
001C00
001C00
001800
003000
006000
ENDCHAR
STARTCHAR 04B8
ENCODING 1208
SWIDTH 696 0
DWIDTH 29 0
BBX 27 28 5 0
BITMAP
FFE0FFE0
3F003F80
1E001F00
1E001E00
1C001E00
3C001C00
3C183C00
3C183C00
38183C00
78103800
78307800
78307800
78207000
7860F000
3C63F000
3FFEF000
0FF0E000
00C1E000
00C1E000
0081C000
0183C000
0183C000
0183C000
00038000
00078000
00078000
000F8000
007FF000
ENDCHAR
STARTCHAR 04B9
ENCODING 1209
SWIDTH 480 0
DWIDTH 20 0
BBX 16 18 2 0
BITMAP
7C07
FC07
3C07
38CF
38CE
398E
798E
719C
711C
7B7C
3FB8
0738
0238
0638
0671
0072
007C
0078
ENDCHAR
STARTCHAR 04BA
ENCODING 1210
SWIDTH 696 0
DWIDTH 29 0
BBX 27 28 -1 0
BITMAP
01FFC000
007F0000
003C0000
003C0000
003C0000
00380000
00780000
00780000
00700000
00F00000
00F00000
00E07800
00E7FF00
01FE0F80
01E003C0
01C003C0
03C003C0
03C003C0
038003C0
03800380
07800380
07800780
07000780
0F000700
0F000F00
0F000F00
1F001F00
FFE0FFE0
ENDCHAR
STARTCHAR 04BB
ENCODING 1211
SWIDTH 504 0
DWIDTH 21 0
BBX 18 29 1 0
BITMAP
006000
0FE000
01E000
01C000
01C000
01C000
038000
038000
038000
070000
070000
070780
071FC0
0E33C0
0E6380
0E4380
1C8380
1D0380
1F0700
1E0700
3C0700
3C0E00
380E00
780E00
700E40
701C40
701C80
E01F00
E01E00
ENDCHAR
STARTCHAR 04D8
ENCODING 1240
SWIDTH 696 0
DWIDTH 29 0
BBX 27 29 2 -1
BITMAP
010FF000
03F07C00
03C01F00
03800F00
03000780
060003C0
040003C0
040003C0
000003E0
000003E0
000001E0
000001E0
000003E0
7FFFFFE0
7FFFFFE0
780003C0
780003C0
780003C0
F8000780
F8000780
78000F00
78000F00
78001E00
38003C00
3C007800
1E00F000
0F03E000
07FF8000
00780000
ENDCHAR
STARTCHAR 04D9
ENCODING 1241
SWIDTH 456 0
DWIDTH 19 0
BBX 16 18 1 0
BITMAP
03FC
07FE
181E
200F
400F
0007
0007
0007
00FF
078E
1C0E
381C
701C
E038
E030
C060
E0C0
FF00
ENDCHAR
STARTCHAR 04E8
ENCODING 1256
SWIDTH 720 0
DWIDTH 30 0
BBX 28 29 2 -1
BITMAP
0003FE00
000E0F00
00380380
007001C0
01E001E0
03C001E0
078000F0
078000F0
0F0000F0
1E0000F0
1E0000F0
3E0000F0
3C0001F0
7FFFFFE0
780001E0
780003E0
780003C0
780003C0
78000780
F8000780
78000F00
78001F00
78001E00
38003C00
3C007800
1E00E000
0F03C000
07FF0000
00700000
ENDCHAR
STARTCHAR 04E9
ENCODING 1257
SWIDTH 504 0
DWIDTH 21 0
BBX 18 18 1 0
BITMAP
00FF00
038380
070180
0E01C0
1C01C0
3C01C0
3801C0
7801C0
7FFFC0
7003C0
F00380
F00780
F00700
F00F00
700E00
701C00
383800
1FE000
ENDCHAR
STARTCHAR 05B0
ENCODING 1456
SWIDTH 336 0
DWIDTH 14 0
BBX 3 8 1 -11
BITMAP
60
E0
E0
00
00
E0
E0
E0
ENDCHAR
STARTCHAR 05B1
ENCODING 1457
SWIDTH 336 0
DWIDTH 14 0
BBX 13 8 -4 -11
BITMAP
6338
F738
7738
0000
0000
1C38
1C38
1C38
ENDCHAR
STARTCHAR 05B2
ENCODING 1458
SWIDTH 336 0
DWIDTH 14 0
BBX 12 8 -3 -11
BITMAP
FE60
FEF0
00E0
0000
0000
0060
00F0
0060
ENDCHAR
STARTCHAR 05B3
ENCODING 1459
SWIDTH 336 0
DWIDTH 14 0
BBX 13 8 -4 -11
BITMAP
FF38
FF38
1838
1800
1C00
1C38
1C38
0038
ENDCHAR
STARTCHAR 05B4
ENCODING 1460
SWIDTH 336 0
DWIDTH 14 0
BBX 3 3 1 -6
BITMAP
60
E0
E0
ENDCHAR
STARTCHAR 05B5
ENCODING 1461
SWIDTH 336 0
DWIDTH 14 0
BBX 8 3 -1 -6
BITMAP
E6
EF
E7
ENDCHAR
STARTCHAR 05B6
ENCODING 1462
SWIDTH 336 0
DWIDTH 14 0
BBX 8 8 -1 -11
BITMAP
E6
EF
E7
00
00
38
38
38
ENDCHAR
STARTCHAR 05B7
ENCODING 1463
SWIDTH 336 0
DWIDTH 14 0
BBX 8 2 -1 -5
BITMAP
FF
FF
ENDCHAR
STARTCHAR 05B8
ENCODING 1464
SWIDTH 336 0
DWIDTH 14 0
BBX 8 7 -1 -10
BITMAP
FF
FF
18
18
38
38
38
ENDCHAR
STARTCHAR 05B9
ENCODING 1465
SWIDTH 336 0
DWIDTH 14 0
BBX 4 3 9 24
BITMAP
60
F0
70
ENDCHAR
STARTCHAR 05BA
ENCODING 1466
SWIDTH 336 0
DWIDTH 14 0
BBX 4 3 9 24
BITMAP
60
F0
70
ENDCHAR
STARTCHAR 05BB
ENCODING 1467
SWIDTH 336 0
DWIDTH 14 0
BBX 13 8 -4 -11
BITMAP
6000
F000
7200
0700
0700
0338
0038
0038
ENDCHAR
STARTCHAR 05BC
ENCODING 1468
SWIDTH 336 0
DWIDTH 14 0
BBX 4 3 5 9
BITMAP
60
F0
60
ENDCHAR
STARTCHAR 05BD
ENCODING 1469
SWIDTH 336 0
DWIDTH 14 0
BBX 2 7 2 -10
BITMAP
C0
C0
C0
C0
C0
C0
C0
ENDCHAR
STARTCHAR 05BE
ENCODING 1470
SWIDTH 360 0
DWIDTH 15 0
BBX 11 4 5 17
BITMAP
FFE0
FFE0
FFE0
FFE0
ENDCHAR
STARTCHAR 05BF
ENCODING 1471
SWIDTH 336 0
DWIDTH 14 0
BBX 8 2 7 25
BITMAP
FF
FF
ENDCHAR
STARTCHAR 05C0
ENCODING 1472
SWIDTH 336 0
DWIDTH 14 0
BBX 10 26 2 -2
BITMAP
01C0
01C0
01C0
0380
0380
0380
0380
0700
0700
0700
0E00
0E00
0E00
0E00
1C00
1C00
1C00
3800
3800
3800
3800
7000
7000
7000
E000
E000
ENDCHAR
STARTCHAR 05C1
ENCODING 1473
SWIDTH 336 0
DWIDTH 14 0
BBX 4 3 18 24
BITMAP
60
F0
E0
ENDCHAR
STARTCHAR 05C2
ENCODING 1474
SWIDTH 336 0
DWIDTH 14 0
BBX 3 3 1 24
BITMAP
60
E0
E0
ENDCHAR
STARTCHAR 05C3
ENCODING 1475
SWIDTH 336 0
DWIDTH 14 0
BBX 10 22 2 0
BITMAP
0180
03C0
03C0
0380
0000
0000
0000
0000
0000
0000
0000
0000
0000
0000
0000
0000
0000
0000
2000
7000
F800
7000
ENDCHAR
STARTCHAR 05D0
ENCODING 1488
SWIDTH 480 0
DWIDTH 20 0
BBX 21 23 -1 0
BITMAP
010080
0301C0
0701F0
0701F8
0781F8
03C0F8
03C078
01E080
01F180
00F900
037B00
047E00
0C3E00
081F00
181F00
180F80
180780
1C03C0
3C03C0
3C01C0
3C0180
3C0180
F80100
ENDCHAR
STARTCHAR 05D1
ENCODING 1489
SWIDTH 432 0
DWIDTH 18 0
BBX 18 23 -1 0
BITMAP
020000
078000
07FF80
07FFC0
07FFC0
03FFC0
0001C0
0000C0
0000C0
0000C0
000080
000180
000180
000100
000100
000300
000200
000400
000400
3FFF80
3FFF00
7FFF00
FFFE00
ENDCHAR
STARTCHAR 05D2
ENCODING 1490
SWIDTH 312 0
DWIDTH 13 0
BBX 14 24 -2 -1
BITMAP
00C0
00E0
01F8
01FC
01FC
007C
001C
0008
0008
0008
0010
0010
0010
0030
0020
0020
0070
0070
01B0
3F30
7E30
7C30
F830
0020
ENDCHAR
STARTCHAR 05D3
ENCODING 1491
SWIDTH 408 0
DWIDTH 17 0
BBX 15 23 4 0
BITMAP
4000
F000
FFFE
FFFE
FFFC
7FFC
0010
0020
0040
00C0
0080
0180
0180
0180
0300
0300
0300
0300
0700
0600
0600
0E00
0C00
ENDCHAR
STARTCHAR 05D4
ENCODING 1492
SWIDTH 480 0
DWIDTH 20 0
BBX 21 23 0 -1
BITMAP
020000
070000
07FFF8
0FFFF8
07FFF0
03FFF0
000060
000040
000080
000080
000180
000180
0C0180
180300
380300
300300
300300
700300
700700
600700
600600
E00600
C00C00
ENDCHAR
STARTCHAR 05D5
ENCODING 1493
SWIDTH 264 0
DWIDTH 11 0
BBX 7 23 4 0
BITMAP
40
F0
FC
FE
FE
7E
1E
0C
0C
0C
08
08
18
18
10
30
30
20
60
60
40
40
C0
ENDCHAR
STARTCHAR 05D6
ENCODING 1494
SWIDTH 264 0
DWIDTH 11 0
BBX 11 23 1 0
BITMAP
0800
1C00
1F80
1FE0
1FE0
0FC0
03C0
0600
0400
0C00
0C00
1800
1800
1800
1800
3800
3800
3000
3000
3000
7000
6000
C000
ENDCHAR
STARTCHAR 05D7
ENCODING 1495
SWIDTH 480 0
DWIDTH 20 0
BBX 20 23 0 0
BITMAP
020000
070000
07FFF0
0FFFF0
07FFF0
03FFE0
010040
0200C0
060080
040180
0C0180
0C0180
0C0300
180300
180300
180300
180300
380700
300700
300600
300600
600600
C00C00
ENDCHAR
STARTCHAR 05D8
ENCODING 1496
SWIDTH 480 0
DWIDTH 20 0
BBX 18 23 2 0
BITMAP
100000
380300
3E0F80
3F1F80
3F1FC0
1F3FC0
0A61C0
104080
108080
308080
200080
200180
600100
600100
600300
400200
400600
400400
C00C00
FFF800
FFF000
FFF000
FFE000
ENDCHAR
STARTCHAR 05D9
ENCODING 1497
SWIDTH 240 0
DWIDTH 10 0
BBX 7 13 4 10
BITMAP
40
E0
F8
FC
FE
3E
1E
0C
04
0C
08
30
60
ENDCHAR
STARTCHAR 05DA
ENCODING 1498
SWIDTH 432 0
DWIDTH 18 0
BBX 15 30 4 -7
BITMAP
4000
7000
FFFE
FFFE
FFFE
7FFC
0008
0018
0010
0010
0030
0030
0020
0020
0060
0060
0040
00C0
00C0
00C0
0080
0180
0180
0180
0300
0300
0300
0300
0600
0400
ENDCHAR
STARTCHAR 05DB
ENCODING 1499
SWIDTH 408 0
DWIDTH 17 0
BBX 17 23 -1 0
BITMAP
020000
038000
07FF00
07FF00
07FF80
03FF80
000380
000180
000180
000080
000080
000180
000100
000100
000300
000200
000600
000600
001C00
3FFC00
3FF800
7FF000
FFC000
ENDCHAR
STARTCHAR 05DC
ENCODING 1500
SWIDTH 432 0
DWIDTH 18 0
BBX 14 31 4 0
BITMAP
4000
7000
7000
3000
1000
2000
2000
4000
4000
F000
FFF8
FFFC
FFFC
7FFC
001C
000C
0008
0008
0018
0010
0020
0040
0080
0100
0200
0400
0C00
0800
1800
1800
1800
ENDCHAR
STARTCHAR 05DD
ENCODING 1501
SWIDTH 480 0
DWIDTH 20 0
BBX 19 23 0 0
BITMAP
020000
070000
0FFFC0
0FFFE0
0FFFE0
03FFE0
0180E0
030060
040060
0C0040
180040
1000C0
1000C0
300080
200080
200180
600100
600100
400300
FFFF00
FFFE00
FFFE00
FFFE00
ENDCHAR
STARTCHAR 05DE
ENCODING 1502
SWIDTH 480 0
DWIDTH 20 0
BBX 20 23 -1 0
BITMAP
020000
070100
07C1C0
07C3C0
07C7E0
03CFE0
00DDE0
006070
00C070
018020
030020
020020
040020
0C0060
080040
100040
1000C0
300080
200180
61FF00
43FF00
43FE00
C7FE00
ENDCHAR
STARTCHAR 05DF
ENCODING 1503
SWIDTH 264 0
DWIDTH 11 0
BBX 9 30 2 -7
BITMAP
1000
1C00
3F00
3F80
3F80
1F80
0380
0300
0200
0200
0600
0400
0400
0C00
0800
0800
1800
1800
1800
1000
3000
3000
3000
6000
6000
6000
6000
C000
C000
8000
ENDCHAR
STARTCHAR 05E0
ENCODING 1504
SWIDTH 288 0
DWIDTH 12 0
BBX 13 23 -2 0
BITMAP
0180
01C0
03F0
03F8
03F8
00F8
0038
0018
0010
0010
0020
0020
0060
0040
0040
00C0
00C0
00C0
00C0
3FC0
3FC0
7F80
FF80
ENDCHAR
STARTCHAR 05E1
ENCODING 1505
SWIDTH 456 0
DWIDTH 19 0
BBX 16 24 2 -1
BITMAP
1000
1C00
3FFE
3FFE
3FFF
0FFF
0807
1003
3003
2003
6003
4003
4002
C002
C002
C006
E004
E00C
7018
7FF8
7FF0
3FE0
1FC0
0600
ENDCHAR
STARTCHAR 05E2
ENCODING 1506
SWIDTH 432 0
DWIDTH 18 0
BBX 20 24 -1 -1
BITMAP
020080
0701C0
07E1E0
07E1F0
07E1F0
03E0F0
010070
010060
010040
0100C0
038080
018100
01C100
01C200
00C200
008600
008400
008C00
00FC00
0FF800
1FF000
3FE000
7F0000
E00000
ENDCHAR
STARTCHAR 05E3
ENCODING 1507
SWIDTH 432 0
DWIDTH 18 0
BBX 15 30 2 -7
BITMAP
0800
1C00
3FFC
3FFE
3FFE
1FFE
080E
1006
2006
6004
6004
F00C
F80C
F808
9818
0018
0018
0010
0030
0030
0030
0060
0060
0060
0060
00C0
00C0
00C0
0180
0100
ENDCHAR
STARTCHAR 05E4
ENCODING 1508
SWIDTH 432 0
DWIDTH 18 0
BBX 18 23 -1 0
BITMAP
010000
038000
07FF00
07FF80
07FFC0
03FFC0
0201C0
0400C0
0C00C0
0C00C0
0F00C0
1F8080
1F8080
110080
000180
000100
000300
000600
000E00
1FFC00
3FFC00
7FF800
FFC000
ENDCHAR
STARTCHAR 05E5
ENCODING 1509
SWIDTH 456 0
DWIDTH 19 0
BBX 16 30 4 -7
BITMAP
4020
E070
FC7E
FC7E
FC7F
3C3E
0818
0830
0420
0440
0480
0580
0500
0600
0600
0600
0C00
0C00
0C00
0C00
1C00
1C00
1800
3800
3800
3800
3000
7000
6000
4000
ENDCHAR
STARTCHAR 05E6
ENCODING 1510
SWIDTH 456 0
DWIDTH 19 0
BBX 20 23 0 0
BITMAP
040200
0F0300
0F87E0
0FC7F0
0FC3F0
03C1F0
008080
008100
010200
010600
018C00
01C800
01D800
00F800
007800
007800
003C00
001E00
000F00
3FFE00
7FFE00
7FFC00
FFF800
ENDCHAR
STARTCHAR 05E7
ENCODING 1511
SWIDTH 456 0
DWIDTH 19 0
BBX 21 29 -2 -6
BITMAP
01C000
03FFF0
03FFF8
03FFF8
00FFF8
000038
000010
000010
000030
020020
060020
040040
0C00C0
0C0180
0C0600
080C00
181800
187000
106000
30C000
30C000
30C000
200000
600000
600000
400000
C00000
C00000
800000
ENDCHAR
STARTCHAR 05E8
ENCODING 1512
SWIDTH 456 0
DWIDTH 19 0
BBX 14 23 4 -1
BITMAP
4000
7000
FFF8
FFFC
FFFC
7FFC
001C
001C
000C
0008
0018
0018
0010
0010
0030
0030
0020
0060
0060
0040
0040
00C0
0080
ENDCHAR
STARTCHAR 05E9
ENCODING 1513
SWIDTH 624 0
DWIDTH 26 0
BBX 23 23 4 0
BITMAP
404010
F07030
F87C78
FC7E7C
FC7E3E
7C3E3E
28141C
202008
602010
404020
404060
408040
418080
410180
C30100
C20300
C40600
CC0600
D80C00
FFFC00
FFFC00
FFF800
FFF800
ENDCHAR
STARTCHAR 05EA
ENCODING 1514
SWIDTH 480 0
DWIDTH 20 0
BBX 21 23 -2 -1
BITMAP
004000
00E000
01FFF0
01FFF8
01FFF8
007FF8
002038
004018
008018
018018
010010
030030
030030
030020
020020
060060
060060
060040
0600C0
3E00C0
7E0080
7E0180
FC0100
ENDCHAR
STARTCHAR 05F0
ENCODING 1520
SWIDTH 528 0
DWIDTH 22 0
BBX 18 23 4 0
BITMAP
400800
F01C00
FC1F80
FE1FC0
FE1FC0
7E0FC0
1E03C0
0C0180
0C0180
0C0180
080100
080100
180300
180300
100200
300600
300600
200400
600C00
600C00
400800
400800
C01800
ENDCHAR
STARTCHAR 05F1
ENCODING 1521
SWIDTH 504 0
DWIDTH 21 0
BBX 17 23 4 0
BITMAP
401000
E03C00
F83F00
FC3F80
FE3F80
3E1F80
1E0780
0C0300
040300
0C0300
080200
300200
600600
000600
000400
000C00
000C00
000800
000800
001800
001800
001000
003000
ENDCHAR
STARTCHAR 05F2
ENCODING 1522
SWIDTH 480 0
DWIDTH 20 0
BBX 17 13 4 10
BITMAP
401000
E01800
F83E00
FC3F00
FE1F80
3E0F80
1E0780
0C0300
040100
0C0300
080200
300400
601800
ENDCHAR
STARTCHAR 05F3
ENCODING 1523
SWIDTH 192 0
DWIDTH 8 0
BBX 6 9 3 13
BITMAP
1C
3C
3C
78
70
70
60
40
C0
ENDCHAR
STARTCHAR 05F4
ENCODING 1524
SWIDTH 360 0
DWIDTH 15 0
BBX 13 9 3 13
BITMAP
1C38
3C78
3C78
7870
7070
70E0
60C0
40C0
C080
ENDCHAR
STARTCHAR 1E80
ENCODING 7808
SWIDTH 840 0
DWIDTH 35 0
BBX 34 37 5 -1
BITMAP
0007C00000
0003C00000
0001C00000
0000E00000
0000600000
0000200000
0000100000
0000000000
FFEFFE3FC0
3F03F01F80
1E01E00E00
1E01E00C00
1E01E00800
1E01E01800
1C03E01000
1C07E02000
1C05E06000
1C0DE04000
1C19C08000
3C11C18000
3C31C10000
3C21C30000
3C43C60000
38C3C40000
3883CC0000
3983D80000
3B03D00000
3A03B00000
7E03E00000
7C03C00000
7803C00000
7807800000
7007000000
6007000000
6006000000
4004000000
0004000000
ENDCHAR
STARTCHAR 1E81
ENCODING 7809
SWIDTH 672 0
DWIDTH 28 0
BBX 27 29 1 0
BITMAP
001E0000
000F0000
000F0000
00070000
00030000
00018000
00008000
00000000
00000000
00000000
00000000
3C0181C0
FC0181E0
1C0380E0
0E078040
0E078040
0E0B80C0
0E0B8080
0E138100
0E338100
0E238200
0E418400
0EC1C400
0E81C800
0781D000
0701E000
0601E000
0601C000
04018000
ENDCHAR
STARTCHAR 1E82
ENCODING 7810
SWIDTH 840 0
DWIDTH 35 0
BBX 34 37 5 -1
BITMAP
00001E0000
00003C0000
0000380000
0000300000
0000600000
0000600000
0000400000
0000000000
FFEFFE3FC0
3F03F01F80
1E01E00E00
1E01E00C00
1E01E00800
1E01E01800
1C03E01000
1C07E02000
1C05E06000
1C0DE04000
1C19C08000
3C11C18000
3C31C10000
3C21C30000
3C43C60000
38C3C40000
3883CC0000
3983D80000
3B03D00000
3A03B00000
7E03E00000
7C03C00000
7803C00000
7807800000
7007000000
6007000000
6006000000
4004000000
0004000000
ENDCHAR
STARTCHAR 1E83
ENCODING 7811
SWIDTH 672 0
DWIDTH 28 0
BBX 27 29 1 0
BITMAP
00007800
00007800
0000F000
0000E000
0000C000
00018000
00010000
00000000
00000000
00000000
00000000
3C0181C0
FC0181E0
1C0380E0
0E078040
0E078040
0E0B80C0
0E0B8080
0E138100
0E338100
0E238200
0E418400
0EC1C400
0E81C800
0781D000
0701E000
0601E000
0601C000
04018000
ENDCHAR
STARTCHAR 1E84
ENCODING 7812
SWIDTH 840 0
DWIDTH 35 0
BBX 34 36 5 -1
BITMAP
00070E0000
000F8F0000
000F8F0000
00070E0000
0000000000
0000000000
0000000000
FFEFFE3FC0
3F03F01F80
1E01E00E00
1E01E00C00
1E01E00800
1E01E01800
1C03E01000
1C07E02000
1C05E06000
1C0DE04000
1C19C08000
3C11C18000
3C31C10000
3C21C30000
3C43C60000
38C3C40000
3883CC0000
3983D80000
3B03D00000
3A03B00000
7E03E00000
7C03C00000
7803C00000
7807800000
7007000000
6007000000
6006000000
4004000000
0004000000
ENDCHAR
STARTCHAR 1E85
ENCODING 7813
SWIDTH 672 0
DWIDTH 28 0
BBX 27 27 1 0
BITMAP
001E1C00
001E3C00
001E3C00
000E1C00
00000000
00000000
00000000
00000000
00000000
3C0181C0
FC0181E0
1C0380E0
0E078040
0E078040
0E0B80C0
0E0B8080
0E138100
0E338100
0E238200
0E418400
0EC1C400
0E81C800
0781D000
0701E000
0601E000
0601C000
04018000
ENDCHAR
STARTCHAR 1EA0
ENCODING 7840
SWIDTH 600 0
DWIDTH 25 0
BBX 25 34 -2 -7
BITMAP
00000200
00000600
00000600
00000E00
00001E00
00001E00
00003E00
00007E00
0000DE00
00009E00
00019C00
00031C00
00061C00
00041C00
000C1C00
00181C00
00303C00
003FFC00
007FFC00
00C03C00
00803C00
01003800
03003800
06003800
04003800
0C007800
3C007C00
FF03FF80
00000000
00000000
00000000
00F00000
00F00000
00F00000
ENDCHAR
STARTCHAR 1EA1
ENCODING 7841
SWIDTH 504 0
DWIDTH 21 0
BBX 18 25 1 -7
BITMAP
00FDC0
0185C0
0703C0
0E0380
0C0380
1C0380
380380
380700
700700
700700
F00E00
E01E00
E01E00
E03E00
E05C40
F09C80
7F1F00
7E1E00
000000
000000
020000
070000
0F0000
070000
020000
ENDCHAR
STARTCHAR 1EA2
ENCODING 7842
SWIDTH 600 0
DWIDTH 25 0
BBX 28 37 -2 0
BITMAP
000001F0
00000330
00000330
00000060
00000040
00000080
00000100
00000000
00000000
00000200
00000600
00000600
00000E00
00001E00
00001E00
00003E00
00007E00
0000DE00
00009E00
00019C00
00031C00
00061C00
00041C00
000C1C00
00181C00
00303C00
003FFC00
007FFC00
00C03C00
00803C00
01003800
03003800
06003800
04003800
0C007800
3C007C00
FF03FF80
ENDCHAR
STARTCHAR 1EA3
ENCODING 7843
SWIDTH 504 0
DWIDTH 21 0
BBX 18 28 1 0
BITMAP
000F80
001980
001100
000200
000400
000800
000000
000000
000000
000000
00FDC0
0185C0
0703C0
0E0380
0C0380
1C0380
380380
380700
700700
700700
F00E00
E01E00
E01E00
E03E00
E05C40
F09C80
7F1F00
7E1E00
ENDCHAR
STARTCHAR 1EA4
ENCODING 7844
SWIDTH 600 0
DWIDTH 25 0
BBX 29 37 -2 0
BITMAP
00000078
00000060
000000C0
00000000
000003E0
00000770
00001818
00000000
00000000
00000200
00000600
00000600
00000E00
00001E00
00001E00
00003E00
00007E00
0000DE00
00009E00
00019C00
00031C00
00061C00
00041C00
000C1C00
00181C00
00303C00
003FFC00
007FFC00
00C03C00
00803C00
01003800
03003800
06003800
04003800
0C007800
3C007C00
FF03FF80
ENDCHAR
STARTCHAR 1EA5
ENCODING 7845
SWIDTH 504 0
DWIDTH 21 0
BBX 21 37 1 0
BITMAP
0000F8
0000F0
0000E0
0001C0
000180
000100
000200
000000
000000
000780
000F80
001DC0
0030C0
006040
008040
000000
000000
000000
000000
00FDC0
0185C0
0703C0
0E0380
0C0380
1C0380
380380
380700
700700
700700
F00E00
E01E00
E01E00
E03E00
E05C40
F09C80
7F1F00
7E1E00
ENDCHAR
STARTCHAR 1EA6
ENCODING 7846
SWIDTH 600 0
DWIDTH 25 0
BBX 29 37 -2 0
BITMAP
000001E0
00000070
00000010
00000000
000003E0
00000770
00001818
00000000
00000000
00000200
00000600
00000600
00000E00
00001E00
00001E00
00003E00
00007E00
0000DE00
00009E00
00019C00
00031C00
00061C00
00041C00
000C1C00
00181C00
00303C00
003FFC00
007FFC00
00C03C00
00803C00
01003800
03003800
06003800
04003800
0C007800
3C007C00
FF03FF80
ENDCHAR
STARTCHAR 1EA7
ENCODING 7847
SWIDTH 504 0
DWIDTH 21 0
BBX 19 37 1 0
BITMAP
000780
000380
0001C0
0001C0
0000C0
000060
000020
000000
000000
000780
000F80
001DC0
0030C0
006040
008040
000000
000000
000000
000000
00FDC0
0185C0
0703C0
0E0380
0C0380
1C0380
380380
380700
700700
700700
F00E00
E01E00
E01E00
E03E00
E05C40
F09C80
7F1F00
7E1E00
ENDCHAR
STARTCHAR 1EA8
ENCODING 7848
SWIDTH 600 0
DWIDTH 25 0
BBX 29 37 -2 0
BITMAP
000001F0
00000130
00000040
00000000
000003E0
00000770
00001818
00000000
00000000
00000200
00000600
00000600
00000E00
00001E00
00001E00
00003E00
00007E00
0000DE00
00009E00
00019C00
00031C00
00061C00
00041C00
000C1C00
00181C00
00303C00
003FFC00
007FFC00
00C03C00
00803C00
01003800
03003800
06003800
04003800
0C007800
3C007C00
FF03FF80
ENDCHAR
STARTCHAR 1EA9
ENCODING 7849
SWIDTH 504 0
DWIDTH 21 0
BBX 21 37 1 0
BITMAP
0000F0
000118
000110
000030
000040
000080
000080
000000
000000
000780
000F80
001DC0
0030C0
006040
008040
000000
000000
000000
000000
00FDC0
0185C0
0703C0
0E0380
0C0380
1C0380
380380
380700
700700
700700
F00E00
E01E00
E01E00
E03E00
E05C40
F09C80
7F1F00
7E1E00
ENDCHAR
STARTCHAR 1EAA
ENCODING 7850
SWIDTH 600 0
DWIDTH 25 0
BBX 31 37 -2 0
BITMAP
00000F82
00000BF6
0000107C
00000000
000003E0
00000770
00001818
00000000
00000000
00000200
00000600
00000600
00000E00
00001E00
00001E00
00003E00
00007E00
0000DE00
00009E00
00019C00
00031C00
00061C00
00041C00
000C1C00
00181C00
00303C00
003FFC00
007FFC00
00C03C00
00803C00
01003800
03003800
06003800
04003800
0C007800
3C007C00
FF03FF80
ENDCHAR
STARTCHAR 1EAB
ENCODING 7851
SWIDTH 504 0
DWIDTH 21 0
BBX 23 37 1 0
BITMAP
000F00
001FC2
001FE2
0021FE
0020FC
000000
000000
000000
000000
000780
000F80
001DC0
0030C0
006040
008040
000000
000000
000000
000000
00FDC0
0185C0
0703C0
0E0380
0C0380
1C0380
380380
380700
700700
700700
F00E00
E01E00
E01E00
E03E00
E05C40
F09C80
7F1F00
7E1E00
ENDCHAR
STARTCHAR 1EAC
ENCODING 7852
SWIDTH 600 0
DWIDTH 25 0
BBX 29 39 -2 -7
BITMAP
000003E0
00000770
00001818
00000000
00000000
00000200
00000600
00000600
00000E00
00001E00
00001E00
00003E00
00007E00
0000DE00
00009E00
00019C00
00031C00
00061C00
00041C00
000C1C00
00181C00
00303C00
003FFC00
007FFC00
00C03C00
00803C00
01003800
03003800
06003800
04003800
0C007800
3C007C00
FF03FF80
00000000
00000000
00000000
00F00000
00F00000
00F00000
ENDCHAR
STARTCHAR 1EAD
ENCODING 7853
SWIDTH 504 0
DWIDTH 21 0
BBX 18 35 1 -7
BITMAP
000780
000F80
001DC0
0030C0
006040
008040
000000
000000
000000
000000
00FDC0
0185C0
0703C0
0E0380
0C0380
1C0380
380380
380700
700700
700700
F00E00
E01E00
E01E00
E03E00
E05C40
F09C80
7F1F00
7E1E00
000000
000000
020000
070000
0F0000
070000
020000
ENDCHAR
STARTCHAR 1EAE
ENCODING 7854
SWIDTH 600 0
DWIDTH 25 0
BBX 29 37 -2 0
BITMAP
00000078
00000060
00000080
00000000
00001808
00000FF0
000007C0
00000000
00000000
00000200
00000600
00000600
00000E00
00001E00
00001E00
00003E00
00007E00
0000DE00
00009E00
00019C00
00031C00
00061C00
00041C00
000C1C00
00181C00
00303C00
003FFC00
007FFC00
00C03C00
00803C00
01003800
03003800
06003800
04003800
0C007800
3C007C00
FF03FF80
ENDCHAR
STARTCHAR 1EAF
ENCODING 7855
SWIDTH 504 0
DWIDTH 21 0
BBX 20 37 1 0
BITMAP
0000F0
0001E0
0001C0
000180
000300
000200
000000
000000
000000
004010
004060
007FC0
003F80
001F00
000000
000000
000000
000000
000000
00FDC0
0185C0
0703C0
0E0380
0C0380
1C0380
380380
380700
700700
700700
F00E00
E01E00
E01E00
E03E00
E05C40
F09C80
7F1F00
7E1E00
ENDCHAR
STARTCHAR 1EB0
ENCODING 7856
SWIDTH 600 0
DWIDTH 25 0
BBX 29 37 -2 0
BITMAP
00000380
000001C0
00000040
00000000
00001808
00000FF0
000007C0
00000000
00000000
00000200
00000600
00000600
00000E00
00001E00
00001E00
00003E00
00007E00
0000DE00
00009E00
00019C00
00031C00
00061C00
00041C00
000C1C00
00181C00
00303C00
003FFC00
007FFC00
00C03C00
00803C00
01003800
03003800
06003800
04003800
0C007800
3C007C00
FF03FF80
ENDCHAR
STARTCHAR 1EB1
ENCODING 7857
SWIDTH 504 0
DWIDTH 21 0
BBX 20 37 1 0
BITMAP
001E00
000F00
000700
000300
000100
000180
000080
000000
000000
004010
004060
007FC0
003F80
001F00
000000
000000
000000
000000
000000
00FDC0
0185C0
0703C0
0E0380
0C0380
1C0380
380380
380700
700700
700700
F00E00
E01E00
E01E00
E03E00
E05C40
F09C80
7F1F00
7E1E00
ENDCHAR
STARTCHAR 1EB2
ENCODING 7858
SWIDTH 600 0
DWIDTH 25 0
BBX 29 37 -2 0
BITMAP
000001F0
00000130
00000040
00000000
00001808
00000FF0
000007C0
00000000
00000000
00000200
00000600
00000600
00000E00
00001E00
00001E00
00003E00
00007E00
0000DE00
00009E00
00019C00
00031C00
00061C00
00041C00
000C1C00
00181C00
00303C00
003FFC00
007FFC00
00C03C00
00803C00
01003800
03003800
06003800
04003800
0C007800
3C007C00
FF03FF80
ENDCHAR
STARTCHAR 1EB3
ENCODING 7859
SWIDTH 504 0
DWIDTH 21 0
BBX 20 37 1 0
BITMAP
0003C0
000460
000440
0000C0
000100
000200
000200
000000
000000
004010
004060
007FC0
003F80
001F00
000000
000000
000000
000000
000000
00FDC0
0185C0
0703C0
0E0380
0C0380
1C0380
380380
380700
700700
700700
F00E00
E01E00
E01E00
E03E00
E05C40
F09C80
7F1F00
7E1E00
ENDCHAR
STARTCHAR 1EB4
ENCODING 7860
SWIDTH 600 0
DWIDTH 25 0
BBX 31 37 -2 0
BITMAP
00000F82
00001BF4
00001078
00000000
00001808
00000FF0
000007C0
00000000
00000000
00000200
00000600
00000600
00000E00
00001E00
00001E00
00003E00
00007E00
0000DE00
00009E00
00019C00
00031C00
00061C00
00041C00
000C1C00
00181C00
00303C00
003FFC00
007FFC00
00C03C00
00803C00
01003800
03003800
06003800
04003800
0C007800
3C007C00
FF03FF80
ENDCHAR
STARTCHAR 1EB5
ENCODING 7861
SWIDTH 504 0
DWIDTH 21 0
BBX 22 37 1 0
BITMAP
001C04
003F04
007FC8
0047F8
0081F0
000000
000000
000000
000000
004010
004060
007FC0
003F80
001F00
000000
000000
000000
000000
000000
00FDC0
0185C0
0703C0
0E0380
0C0380
1C0380
380380
380700
700700
700700
F00E00
E01E00
E01E00
E03E00
E05C40
F09C80
7F1F00
7E1E00
ENDCHAR
STARTCHAR 1EB6
ENCODING 7862
SWIDTH 600 0
DWIDTH 25 0
BBX 29 39 -2 -7
BITMAP
00001808
00000FF0
000007C0
00000000
00000000
00000200
00000600
00000600
00000E00
00001E00
00001E00
00003E00
00007E00
0000DE00
00009E00
00019C00
00031C00
00061C00
00041C00
000C1C00
00181C00
00303C00
003FFC00
007FFC00
00C03C00
00803C00
01003800
03003800
06003800
04003800
0C007800
3C007C00
FF03FF80
00000000
00000000
00000000
00F00000
00F00000
00F00000
ENDCHAR
STARTCHAR 1EB7
ENCODING 7863
SWIDTH 504 0
DWIDTH 21 0
BBX 19 36 1 -7
BITMAP
010020
008040
0080C0
00FF80
00FF00
007E00
000000
000000
000000
000000
000000
00FDC0
0185C0
0703C0
0E0380
0C0380
1C0380
380380
380700
700700
700700
F00E00
E01E00
E01E00
E03E00
E05C40
F09C80
7F1F00
7E1E00
000000
000000
020000
070000
0F0000
070000
020000
ENDCHAR
STARTCHAR 1EB8
ENCODING 7864
SWIDTH 600 0
DWIDTH 25 0
BBX 27 35 -1 -7
BITMAP
01FFFFE0
007FFFE0
003C01E0
003C00E0
003C0040
00380040
00380040
00780000
00780000
00700800
00F01000
00F01000
00E07000
00FFE000
01E0E000
01E06000
01C02000
03C04000
03C04000
03800000
03800100
07800100
07800200
07000600
0F000E00
0F003C00
1F83FC00
FFFFFC00
00000000
00000000
00100000
00380000
00780000
00380000
00100000
ENDCHAR
STARTCHAR 1EB9
ENCODING 7865
SWIDTH 456 0
DWIDTH 19 0
BBX 17 25 1 -7
BITMAP
007F00
018380
070380
0E0380
1C0700
1C0700
380E00
383C00
70F000
7F8000
700000
F00000
F00000
F00000
780600
7C0800
3FF000
1FC000
000000
000000
040000
0E0000
1F0000
0E0000
040000
ENDCHAR
STARTCHAR 1EBA
ENCODING 7866
SWIDTH 600 0
DWIDTH 25 0
BBX 27 37 -1 0
BITMAP
00001E00
00003300
00003300
00000600
00000C00
00001000
00001000
00000000
00000000
01FFFFE0
007FFFE0
003C01E0
003C00E0
003C0040
00380040
00380040
00780000
00780000
00700800
00F01000
00F01000
00E07000
00FFE000
01E0E000
01E06000
01C02000
03C04000
03C04000
03800000
03800100
07800100
07800200
07000600
0F000E00
0F003C00
1F83FC00
FFFFFC00
ENDCHAR
STARTCHAR 1EBB
ENCODING 7867
SWIDTH 456 0
DWIDTH 19 0
BBX 17 28 1 0
BITMAP
001F00
001100
001300
000600
000400
000800
000000
000000
000000
000000
007F00
018380
070380
0E0380
1C0700
1C0700
380E00
383C00
70F000
7F8000
700000
F00000
F00000
F00000
780600
7C0800
3FF000
1FC000
ENDCHAR
STARTCHAR 1EBC
ENCODING 7868
SWIDTH 600 0
DWIDTH 25 0
BBX 27 35 -1 0
BITMAP
0001F020
0003FC40
00027FC0
00021FC0
00000780
00000000
00000000
01FFFFE0
007FFFE0
003C01E0
003C00E0
003C0040
00380040
00380040
00780000
00780000
00700800
00F01000
00F01000
00E07000
00FFE000
01E0E000
01E06000
01C02000
03C04000
03C04000
03800000
03800100
07800100
07800200
07000600
0F000E00
0F003C00
1F83FC00
FFFFFC00
ENDCHAR
STARTCHAR 1EBD
ENCODING 7869
SWIDTH 456 0
DWIDTH 19 0
BBX 19 28 1 0
BITMAP
007000
00FC20
01FE20
011FE0
0207C0
020100
000000
000000
000000
000000
007F00
018380
070380
0E0380
1C0700
1C0700
380E00
383C00
70F000
7F8000
700000
F00000
F00000
F00000
780600
7C0800
3FF000
1FC000
ENDCHAR
STARTCHAR 1EBE
ENCODING 7870
SWIDTH 600 0
DWIDTH 25 0
BBX 27 37 -1 0
BITMAP
00000780
00000600
00000800
00000000
00003E00
00007700
00018180
00000000
00000000
01FFFFE0
007FFFE0
003C01E0
003C00E0
003C0040
00380040
00380040
00780000
00780000
00700800
00F01000
00F01000
00E07000
00FFE000
01E0E000
01E06000
01C02000
03C04000
03C04000
03800000
03800100
07800100
07800200
07000600
0F000E00
0F003C00
1F83FC00
FFFFFC00
ENDCHAR
STARTCHAR 1EBF
ENCODING 7871
SWIDTH 456 0
DWIDTH 19 0
BBX 20 37 1 0
BITMAP
0001F0
0001E0
0001C0
000380
000300
000200
000400
000000
000000
000F00
001F00
003B80
006180
00C080
010080
000000
000000
000000
000000
007F00
018380
070380
0E0380
1C0700
1C0700
380E00
383C00
70F000
7F8000
700000
F00000
F00000
F00000
780600
7C0800
3FF000
1FC000
ENDCHAR
STARTCHAR 1EC0
ENCODING 7872
SWIDTH 600 0
DWIDTH 25 0
BBX 27 37 -1 0
BITMAP
00001E00
00000700
00000100
00000000
00003E00
00007700
00018180
00000000
00000000
01FFFFE0
007FFFE0
003C01E0
003C00E0
003C0040
00380040
00380040
00780000
00780000
00700800
00F01000
00F01000
00E07000
00FFE000
01E0E000
01E06000
01C02000
03C04000
03C04000
03800000
03800100
07800100
07800200
07000600
0F000E00
0F003C00
1F83FC00
FFFFFC00
ENDCHAR
STARTCHAR 1EC1
ENCODING 7873
SWIDTH 456 0
DWIDTH 19 0
BBX 18 37 1 0
BITMAP
000F00
000700
000780
000380
000180
0000C0
000040
000000
000000
000F00
001F00
003B80
006180
00C080
010080
000000
000000
000000
000000
007F00
018380
070380
0E0380
1C0700
1C0700
380E00
383C00
70F000
7F8000
700000
F00000
F00000
F00000
780600
7C0800
3FF000
1FC000
ENDCHAR
STARTCHAR 1EC2
ENCODING 7874
SWIDTH 600 0
DWIDTH 25 0
BBX 27 37 -1 0
BITMAP
00001F00
00001300
00000400
00000000
00003E00
00007700
00018180
00000000
00000000
01FFFFE0
007FFFE0
003C01E0
003C00E0
003C0040
00380040
00380040
00780000
00780000
00700800
00F01000
00F01000
00E07000
00FFE000
01E0E000
01E06000
01C02000
03C04000
03C04000
03800000
03800100
07800100
07800200
07000600
0F000E00
0F003C00
1F83FC00
FFFFFC00
ENDCHAR
STARTCHAR 1EC3
ENCODING 7875
SWIDTH 456 0
DWIDTH 19 0
BBX 20 37 1 0
BITMAP
0001E0
000230
000220
000040
000080
000100
000000
000000
000000
000F00
001F00
003B80
006180
00C080
010080
000000
000000
000000
000000
007F00
018380
070380
0E0380
1C0700
1C0700
380E00
383C00
70F000
7F8000
700000
F00000
F00000
F00000
780600
7C0800
3FF000
1FC000
ENDCHAR
STARTCHAR 1EC4
ENCODING 7876
SWIDTH 600 0
DWIDTH 25 0
BBX 27 37 -1 0
BITMAP
0000F820
0000BF60
00010780
00000000
00003E00
00007700
00018180
00000000
00000000
01FFFFE0
007FFFE0
003C01E0
003C00E0
003C0040
00380040
00380040
00780000
00780000
00700800
00F01000
00F01000
00E07000
00FFE000
01E0E000
01E06000
01C02000
03C04000
03C04000
03800000
03800100
07800100
07800200
07000600
0F000E00
0F003C00
1F83FC00
FFFFFC00
ENDCHAR
STARTCHAR 1EC5
ENCODING 7877
SWIDTH 456 0
DWIDTH 19 0
BBX 22 37 1 0
BITMAP
001E04
003F04
003FC4
0043F8
0041F8
000000
000000
000000
000000
000F00
001F00
003B80
006180
00C080
010080
000000
000000
000000
000000
007F00
018380
070380
0E0380
1C0700
1C0700
380E00
383C00
70F000
7F8000
700000
F00000
F00000
F00000
780600
7C0800
3FF000
1FC000
ENDCHAR
STARTCHAR 1EC6
ENCODING 7878
SWIDTH 600 0
DWIDTH 25 0
BBX 27 40 -1 -7
BITMAP
00003E00
00007700
00018180
00000000
00000000
01FFFFE0
007FFFE0
003C01E0
003C00E0
003C0040
00380040
00380040
00780000
00780000
00700800
00F01000
00F01000
00E07000
00FFE000
01E0E000
01E06000
01C02000
03C04000
03C04000
03800000
03800100
07800100
07800200
07000600
0F000E00
0F003C00
1F83FC00
FFFFFC00
00000000
00000000
00100000
00380000
00780000
00380000
00100000
ENDCHAR
STARTCHAR 1EC7
ENCODING 7879
SWIDTH 456 0
DWIDTH 19 0
BBX 17 35 1 -7
BITMAP
000F00
001F00
003B80
006180
00C080
010080
000000
000000
000000
000000
007F00
018380
070380
0E0380
1C0700
1C0700
380E00
383C00
70F000
7F8000
700000
F00000
F00000
F00000
780600
7C0800
3FF000
1FC000
000000
000000
040000
0E0000
1F0000
0E0000
040000
ENDCHAR
STARTCHAR 1EC8
ENCODING 7880
SWIDTH 336 0
DWIDTH 14 0
BBX 18 37 -1 0
BITMAP
0003C0
000440
0004C0
000080
000100
000200
000000
000000
000000
01FFC0
003F00
003E00
003C00
003C00
003800
003800
007800
007800
007000
00F000
00F000
00E000
00E000
01E000
01E000
01C000
03C000
03C000
038000
038000
078000
078000
070000
0F0000
0F0000
1F0000
FFE000
ENDCHAR
STARTCHAR 1EC9
ENCODING 7881
SWIDTH 288 0
DWIDTH 12 0
BBX 11 28 2 0
BITMAP
03E0
0220
0260
00C0
0080
0100
0000
0000
0000
0000
3E00
5E00
0E00
1C00
1C00
1C00
1C00
3800
3800
3800
7000
7000
7000
7000
E200
E400
F800
F000
ENDCHAR
STARTCHAR 1ECA
ENCODING 7882
SWIDTH 336 0
DWIDTH 14 0
BBX 18 35 -1 -7
BITMAP
01FFC0
003F00
003E00
003C00
003C00
003800
003800
007800
007800
007000
00F000
00F000
00E000
00E000
01E000
01E000
01C000
03C000
03C000
038000
038000
078000
078000
070000
0F0000
0F0000
1F0000
FFE000
000000
000000
080000
1C0000
3C0000
3C0000
080000
ENDCHAR
STARTCHAR 1ECB
ENCODING 7883
SWIDTH 288 0
DWIDTH 12 0
BBX 10 32 1 -6
BITMAP
01C0
03C0
01C0
0080
0000
0000
0000
0000
1F00
2F00
0700
0E00
0E00
0E00
0E00
1C00
1C00
1C00
3800
3800
3800
3800
7100
7200
7C00
7800
0000
0000
0000
F000
F000
F000
ENDCHAR
STARTCHAR 1ECC
ENCODING 7884
SWIDTH 720 0
DWIDTH 30 0
BBX 28 35 2 -7
BITMAP
0003FE00
000E0F00
00380380
007003C0
01E001E0
03C001E0
078000F0
078000F0
0F0000F0
1E0000F0
1E0000F0
3E0000F0
3C0001F0
7C0001E0
7C0001E0
780003E0
780003C0
780003C0
78000780
F8000780
78000F00
78001F00
78001E00
78003C00
3C007800
1E00E000
0F03C000
07FF0000
00700000
00000000
00800000
01C00000
01E00000
01C00000
00800000
ENDCHAR
STARTCHAR 1ECD
ENCODING 7885
SWIDTH 504 0
DWIDTH 21 0
BBX 18 25 1 -7
BITMAP
00FF00
038380
070180
0E01C0
1C01C0
3C01C0
3801C0
7801C0
7003C0
7003C0
F00380
F00780
F00700
F00F00
700E00
701C00
383800
1FE000
000000
000000
080000
1E0000
1E0000
1E0000
080000
ENDCHAR
STARTCHAR 1ECE
ENCODING 7886
SWIDTH 720 0
DWIDTH 30 0
BBX 28 38 2 -1
BITMAP
00001E00
00002300
00003200
00000600
00000800
00001000
00001000
00000000
00000000
0003FE00
000E0F00
00380380
007003C0
01E001E0
03C001E0
078000F0
078000F0
0F0000F0
1E0000F0
1E0000F0
3E0000F0
3C0001F0
7C0001E0
7C0001E0
780003E0
780003C0
780003C0
78000780
F8000780
78000F00
78001F00
78001E00
78003C00
3C007800
1E00E000
0F03C000
07FF0000
00700000
ENDCHAR
STARTCHAR 1ECF
ENCODING 7887
SWIDTH 504 0
DWIDTH 21 0
BBX 18 28 1 0
BITMAP
000780
0008C0
000980
000100
000200
000400
000000
000000
000000
000000
00FF00
038380
070180
0E01C0
1C01C0
3C01C0
3801C0
7801C0
7003C0
7003C0
F00380
F00780
F00700
F00F00
700E00
701C00
383800
1FE000
ENDCHAR
STARTCHAR 1ED0
ENCODING 7888
SWIDTH 720 0
DWIDTH 30 0
BBX 28 38 2 -1
BITMAP
00000F00
00001C00
00001000
00000000
00007C00
0000FE00
00030300
00000000
00000000
0003FE00
000E0F00
00380380
007003C0
01E001E0
03C001E0
078000F0
078000F0
0F0000F0
1E0000F0
1E0000F0
3E0000F0
3C0001F0
7C0001E0
7C0001E0
780003E0
780003C0
780003C0
78000780
F8000780
78000F00
78001F00
78001E00
78003C00
3C007800
1E00E000
0F03C000
07FF0000
00700000
ENDCHAR
STARTCHAR 1ED1
ENCODING 7889
SWIDTH 504 0
DWIDTH 21 0
BBX 21 37 1 0
BITMAP
0000F8
0000F0
0000E0
0001C0
000180
000100
000200
000000
000000
000780
000F80
001DC0
0030C0
006040
008040
000000
000000
000000
000000
00FF00
038380
070180
0E01C0
1C01C0
3C01C0
3801C0
7801C0
7003C0
7003C0
F00380
F00780
F00700
F00F00
700E00
701C00
383800
1FE000
ENDCHAR
STARTCHAR 1ED2
ENCODING 7890
SWIDTH 720 0
DWIDTH 30 0
BBX 28 38 2 -1
BITMAP
00003C00
00000C00
00000200
00000000
00007C00
0000FE00
00030300
00000000
00000000
0003FE00
000E0F00
00380380
007003C0
01E001E0
03C001E0
078000F0
078000F0
0F0000F0
1E0000F0
1E0000F0
3E0000F0
3C0001F0
7C0001E0
7C0001E0
780003E0
780003C0
780003C0
78000780
F8000780
78000F00
78001F00
78001E00
78003C00
3C007800
1E00E000
0F03C000
07FF0000
00700000
ENDCHAR
STARTCHAR 1ED3
ENCODING 7891
SWIDTH 504 0
DWIDTH 21 0
BBX 19 37 1 0
BITMAP
000780
000380
0001C0
0001C0
0000C0
000060
000020
000000
000000
000780
000F80
001DC0
0030C0
006040
008040
000000
000000
000000
000000
00FF00
038380
070180
0E01C0
1C01C0
3C01C0
3801C0
7801C0
7003C0
7003C0
F00380
F00780
F00700
F00F00
700E00
701C00
383800
1FE000
ENDCHAR
STARTCHAR 1ED4
ENCODING 7892
SWIDTH 720 0
DWIDTH 30 0
BBX 28 38 2 -1
BITMAP
00003E00
00002600
00000800
00000000
00007C00
0000FE00
00030300
00000000
00000000
0003FE00
000E0F00
00380380
007003C0
01E001E0
03C001E0
078000F0
078000F0
0F0000F0
1E0000F0
1E0000F0
3E0000F0
3C0001F0
7C0001E0
7C0001E0
780003E0
780003C0
780003C0
78000780
F8000780
78000F00
78001F00
78001E00
78003C00
3C007800
1E00E000
0F03C000
07FF0000
00700000
ENDCHAR
STARTCHAR 1ED5
ENCODING 7893
SWIDTH 504 0
DWIDTH 21 0
BBX 21 37 1 0
BITMAP
0000F0
000118
000110
000030
000040
000080
000080
000000
000000
000780
000F80
001DC0
0030C0
006040
008040
000000
000000
000000
000000
00FF00
038380
070180
0E01C0
1C01C0
3C01C0
3801C0
7801C0
7003C0
7003C0
F00380
F00780
F00700
F00F00
700E00
701C00
383800
1FE000
ENDCHAR
STARTCHAR 1ED6
ENCODING 7894
SWIDTH 720 0
DWIDTH 30 0
BBX 28 38 2 -1
BITMAP
0001F040
00037E80
00020F00
00000000
00007C00
0000FE00
00030300
00000000
00000000
0003FE00
000E0F00
00380380
007003C0
01E001E0
03C001E0
078000F0
078000F0
0F0000F0
1E0000F0
1E0000F0
3E0000F0
3C0001F0
7C0001E0
7C0001E0
780003E0
780003C0
780003C0
78000780
F8000780
78000F00
78001F00
78001E00
78003C00
3C007800
1E00E000
0F03C000
07FF0000
00700000
ENDCHAR
STARTCHAR 1ED7
ENCODING 7895
SWIDTH 504 0
DWIDTH 21 0
BBX 23 37 1 0
BITMAP
000F00
001FC2
001FE2
0021FE
0020FC
000000
000000
000000
000000
000780
000F80
001DC0
0030C0
006040
008040
000000
000000
000000
000000
00FF00
038380
070180
0E01C0
1C01C0
3C01C0
3801C0
7801C0
7003C0
7003C0
F00380
F00780
F00700
F00F00
700E00
701C00
383800
1FE000
ENDCHAR
STARTCHAR 1ED8
ENCODING 7896
SWIDTH 720 0
DWIDTH 30 0
BBX 28 40 2 -7
BITMAP
00007C00
0000FE00
00030300
00000000
00000000
0003FE00
000E0F00
00380380
007003C0
01E001E0
03C001E0
078000F0
078000F0
0F0000F0
1E0000F0
1E0000F0
3E0000F0
3C0001F0
7C0001E0
7C0001E0
780003E0
780003C0
780003C0
78000780
F8000780
78000F00
78001F00
78001E00
78003C00
3C007800
1E00E000
0F03C000
07FF0000
00700000
00000000
00800000
01C00000
01E00000
01C00000
00800000
ENDCHAR
STARTCHAR 1ED9
ENCODING 7897
SWIDTH 504 0
DWIDTH 21 0
BBX 18 35 1 -7
BITMAP
000780
000F80
001DC0
0030C0
006040
008040
000000
000000
000000
000000
00FF00
038380
070180
0E01C0
1C01C0
3C01C0
3801C0
7801C0
7003C0
7003C0
F00380
F00780
F00700
F00F00
700E00
701C00
383800
1FE000
000000
000000
080000
1E0000
1E0000
1E0000
080000
ENDCHAR
ENDFONT
